<svg width="333" height="98" viewBox="0 0 333 98" fill="none" xmlns="http://www.w3.org/2000/svg">
<path fill-rule="evenodd" clip-rule="evenodd" d="M151.877 48C156.862 48 161.016 49.1667 164.506 52.5C166.002 53.8333 166.832 55 167.996 56.8333C168.826 58.3333 169.823 60.6667 170.322 62.5H134.43C135.094 60.8333 134.928 59.8333 136.756 56.8333C137.587 55.3333 139.082 53.6667 140.412 52.5C141.575 51.3333 143.735 50.1667 145.231 49.3333C146.892 48.6667 149.551 48 151.877 48ZM123.13 66.8333C123.13 72.3333 123.629 75.8333 125.789 80.5C127.617 84.3333 128.448 85.1667 130.608 88C131.771 89.3333 133.931 91.3333 135.26 92.3333C136.424 93.1667 138.251 94.3333 139.581 95C145.231 97.5 147.391 97.8333 153.871 97.8333C157.859 97.8333 164.007 96.1667 167.165 94C169.491 92.5 169.325 92.5 171.153 91C171.485 90.8333 171.651 90.6667 171.984 90.3333C173.479 88.8333 174.642 87.6667 175.972 85.6667C177.467 83.3333 178.63 81.5 179.793 78.8333C180.126 77.8333 179.129 78.3333 177.467 78.3333H168.162C166.002 82.1667 162.678 85 158.524 86.5C154.037 88.1667 148.222 87.6667 143.901 85.5C139.913 83.5 136.424 79.5 134.928 75L134.097 71.6667C134.43 71.8333 134.43 71.8333 134.762 71.8333H181.289C181.954 71.8333 181.787 71 181.787 69.3333C181.787 65 180.957 60.6667 179.627 56.6667L177.966 52.8333C177.633 52.3333 177.467 52 177.135 51.5L174.808 48.3333C171.984 45.1667 169.159 42.8333 165.503 40.8333L164.174 40.3333C155.034 36.1667 143.403 37.1667 135.26 43.3333C133.765 44.5 131.272 46.8333 129.943 48.5C128.448 50.3333 128.281 50.6667 126.952 52.8333C124.792 56.5 123.13 61.8333 123.13 66.8333Z" fill="#050507"/>
<path fill-rule="evenodd" clip-rule="evenodd" d="M28.747 48C33.3997 48 36.8892 48.8333 40.3787 51.5C40.7111 51.8333 41.0434 52.1667 41.5419 52.5C44.0344 55 46.3608 58.6667 47.1916 62.5H11.2994C12.6287 57 16.7829 51.5 22.1003 49.3333C23.9281 48.6667 26.2545 48 28.747 48ZM0 65.5C0 64.8333 0 65.1667 0.166168 64.6667L0.664671 61.1667C1.32934 57.5 3.65569 52.5 5.81587 49.8333L7.47755 47.8333C9.13922 46 10.3024 44.8333 12.2964 43.3333C13.9581 42 14.7889 41.5 16.6168 40.6667C24.759 36.5 34.5629 37 42.7051 41C44.2006 41.8333 45.1976 42.5 46.3608 43.3333C46.8593 43.6667 47.0255 43.8333 47.524 44.1667C55.0015 50.3333 58.491 59 58.491 68.6667C58.491 70.6667 58.8234 71.8333 58.1587 71.8333H32.0704C31.4057 71.8333 31.2395 71.8333 30.741 71.8333C30.2425 71.6667 30.4087 71.8333 29.744 71.8333C28.9132 71.8333 28.9132 71.6667 28.0823 71.8333L23.2635 71.6667C21.6018 71.6667 15.9521 72 14.9551 71.8333C12.7949 71.6667 13.6257 71.8333 12.6287 71.8333L10.9671 71.6667C10.9671 73.1667 12.2964 76.5 12.7949 77.5C13.4596 78.8333 14.1243 79.6667 14.9551 80.8333C16.9491 83.1667 19.774 85.3333 22.5988 86.3333C31.0734 89.5 40.8772 86.5 45.0314 78.3333H56.6632C56.6632 78.8333 55.3338 81.6667 55.0015 82.3333C52.6752 86 50.6811 89 47.3578 91.6667C45.1976 93.5 42.8713 94.8333 40.2126 96C36.3907 97.5 32.4027 97.8333 28.4147 97.8333C26.2545 97.8333 23.5958 97.5 21.9341 97C16.6168 95.8333 11.9641 92.6667 8.14222 88.6667C7.80988 88.3333 7.64371 88.1667 7.31138 87.6667C4.81886 85 2.65868 80.6667 1.49551 77C0.664671 74.8333 0.830838 74.5 0.332335 72.6667C0.332335 72 0.332335 71.6667 0.166168 71C0 70 0.166168 71.1667 0 70.3333V65.5Z" fill="#050507"/>
<path fill-rule="evenodd" clip-rule="evenodd" d="M59.6542 21.1667C59.6542 22 61.482 26.8333 61.9805 28.3333L69.6243 49.5C71.1198 53.6667 73.1138 59.6667 74.6093 63.6667L75.9386 67.1667C77.268 70.6667 78.4311 74.1667 79.7605 77.6667L85.5763 94.1667C85.7425 94.6667 85.9087 95 86.0749 95.5C86.241 96 86.0749 96.5 86.7395 96.5H96.2111C97.2081 96.5 97.2081 95.1667 97.5404 94.5C97.7066 93.8333 98.0389 93 98.3713 92.1667L100.864 85.1667C101.196 84.3333 101.362 83.6667 101.695 82.8333C102.027 82 102.359 81.1667 102.525 80.5C104.187 75.6667 106.015 71 107.677 66.3333L118.311 36.8333C119.142 34.5 123.795 22 123.795 21.1667C123.13 21 113.991 21.1667 112.329 21.1667C111.665 22.5 103.522 44.8333 102.027 49C101.861 49.5 101.528 50.1667 101.362 50.6667C99.7006 54.6667 98.5374 58.8333 96.8757 62.8333L92.0569 76.3333C91.7245 76.6667 91.8907 76.5 91.7245 76.6667C91.5584 76.1667 91.2261 75.5 91.0599 75L87.9027 66.3333C87.7365 65.8333 87.5704 65.1667 87.238 64.6667C87.0719 64 86.9057 63.5 86.5734 62.8333C86.5734 62.5 86.4072 62.3333 86.4072 62L85.4102 59.5C85.244 59.1667 85.244 58.8333 85.0779 58.6667L82.253 50.8333C80.4252 46.1667 78.9296 41.5 77.1018 36.8333L71.2859 21.1667H59.6542Z" fill="#BD1E05"/>
<path fill-rule="evenodd" clip-rule="evenodd" d="M322.199 69C322.033 71.3333 322.199 69.8333 321.701 72.1667C321.036 76.6667 319.042 79.8333 315.885 82.8333C314.722 84.1667 313.392 85 311.731 85.8333C306.413 88.5 299.268 88.1667 293.951 84.8333C292.123 83.8333 289.796 81.5 288.633 79.6667C288.301 79.1667 288.135 78.8333 287.802 78.3333C285.31 74.1667 285.31 71 285.31 66.3333C285.31 63.8333 286.141 60.6667 286.972 59C289.132 54.6667 292.621 50.6667 297.44 49.1667C302.591 47.3333 308.573 47.8333 313.392 50.6667C317.713 53.3333 321.036 58.3333 321.867 63.5C322.199 65.8333 322.033 64.5 322.199 66.6667V69ZM333 65.5V69C333 69.5 333 70.1667 332.834 71C332.335 74.1667 332.169 75.3333 331.006 78.3333L328.68 83.1667C328.513 83.6667 328.347 84 328.015 84.3333C325.356 88.3333 321.202 92.6667 316.716 94.8333C316.383 95 316.383 95 316.051 95.1667C315.885 95.3333 315.885 95.3333 315.552 95.5C312.063 97 308.407 97.8333 304.751 98H302.425C296.942 97.8333 291.79 96 287.138 92.8333C286.473 92.3333 285.808 91.8333 285.144 91.3333C283.482 89.8333 281.156 87.3333 279.992 85.6667C279.494 84.8333 278.996 84.1667 278.663 83.3333C277.666 81.8333 276.835 80.1667 276.337 78.5L275.506 75.8333C274.343 72 274.509 69.8333 274.509 66C274.509 62.3333 275.838 57.8333 277.334 54.6667C277.999 53 278.995 51.5 279.992 50.1667C280.325 49.8333 280.491 49.6667 280.823 49.1667C281.156 48.8333 281.322 48.5 281.654 48.1667C282.153 47.5 282.651 47 283.316 46.3333C285.808 44 288.301 42.1667 291.458 40.5C297.274 37.5 303.921 37 310.235 38.5C312.395 39 313.725 39.5 315.552 40.3333C316.051 40.5 316.383 40.5 316.716 40.8333C317.214 41.1667 317.38 41.1667 317.879 41.5C318.71 41.8333 319.374 42.3333 320.205 42.8333C322.531 44.6667 325.522 47.5 327.35 50C328.68 52 330.341 54.6667 331.006 57C331.671 58.3333 332.335 60.8333 332.668 62.5C332.668 63.1667 332.668 63.3333 332.834 64C333 64.5 333 64.8333 333 65.5Z" fill="#050507"/>
<path fill-rule="evenodd" clip-rule="evenodd" d="M200.066 45.6667C200.066 44.1667 200.232 40.3333 200.066 39.5H190.262V96.3333H200.398V72.1667C200.398 69 200.564 66.1667 200.897 63.3333C201.229 59.3333 202.392 55.6667 204.552 52.8333C206.879 49.5 211.365 48.5 215.353 48.5C216.35 48.5 217.513 48.8333 218.51 48.8333C225.656 50 228.481 57.5 228.481 64.1667V96.3333H238.949V66.3333C238.949 57.3333 237.786 48.3333 230.308 42.8333L227.65 41C222.997 38.6667 219.175 38.6667 214.19 38.6667C212.528 38.6667 211.033 39 209.704 39.3333C206.214 40.3333 203.057 42.5 200.731 45.1667C200.398 45.5 200.564 45.6667 200.066 45.6667Z" fill="#050507"/>
<path fill-rule="evenodd" clip-rule="evenodd" d="M245.263 48.8333V39.5L247.257 39.6667C247.091 39.3333 247.59 39.5 246.759 39.1667L241.774 37.8333C238.284 36.8333 234.961 35.5 231.804 33.8333C228.314 32.1667 224.825 30.3333 221.502 28.3333L218.012 26.3333C217.347 25.8333 216.683 25.3333 215.852 25C213.525 23.8333 211.365 22.3333 209.205 21L198.57 15C196.576 14.1667 194.915 13.1667 193.087 12.5C192.588 12.3333 192.256 12.1667 191.757 12L189.265 11C186.44 10 183.615 8.83333 180.79 8L177.467 6.83333C173.313 5.5 168.993 4.5 164.838 3.5C164.34 3.33333 163.675 3.33333 163.343 3.16667C162.844 3.16667 162.346 3 161.847 3L157.361 2.16667C154.868 1.66667 150.714 1 148.055 0.833333L141.575 0.333333C140.246 0.166667 139.415 0.166667 138.085 0.166667L134.762 0H127.118C126.287 0 125.29 0.166667 124.293 0.333333C122.133 0.5 119.973 0.5 117.813 0.666667C114.323 1.16667 108.507 1.66667 105.184 2.33333C102.359 3 98.3713 3.5 94.8817 4.33333C94.3832 4.5 93.8847 4.66667 93.3862 4.66667L85.0779 6.83333C84.0808 7.16667 83.25 7.5 82.253 7.66667C80.4252 8.33333 72.6153 10.5 71.6183 11.1667C71.7844 11.6667 73.9446 13.8333 74.4431 14.3333L75.9386 16C76.4371 16.6667 77.1018 17.1667 77.4341 17.6667L84.7455 15C89.0659 13.5 93.3862 12.3333 97.8728 11.3333C101.861 10.3333 104.852 9.83333 109.006 9.16667C111.831 8.5 114.988 8.33333 117.813 8L127.284 7.16667C129.611 7.33333 131.605 7.16667 133.931 7.16667L143.569 7.33333C144.566 7.33333 145.895 7.66667 146.892 7.66667C148.055 7.66667 148.886 7.83333 149.883 7.83333C154.536 8.5 158.524 9 163.177 9.83333C165.669 10.1667 168.162 10.8333 170.82 11.5C174.975 12.5 181.289 14.3333 185.277 16L193.752 19.5C200.232 22.1667 206.38 25.8333 212.861 29L221.668 33.5C223.662 34.8333 226.154 35.8333 228.314 37C232.136 39 238.451 41.5 242.439 42.6667L243.768 43.1667C244.1 43.1667 244.765 43.3333 245.097 43.5C245.097 44.3333 245.097 45.3333 245.097 46.1667V48.3333C245.097 48.8333 244.931 48.5 245.263 48.8333Z" fill="#BD1E05"/>
<path fill-rule="evenodd" clip-rule="evenodd" d="M247.257 39.6667L245.263 39.5V48.8333C245.43 49 245.097 48.8333 245.596 49C245.596 49 245.762 49 245.928 49C246.094 49 246.427 49 246.759 49H252.907C253.406 49 253.073 48.8333 253.073 51C253.073 57.5 252.907 96 253.24 96.3333L258.058 96.5C259.886 96.5 262.046 96.6667 263.542 96.3333V49C263.874 49 271.019 49.1667 271.352 48.8333C271.352 47.3333 271.186 45.6667 271.352 44.1667C271.518 43 271.518 40.6667 271.352 39.6667C271.019 39.3333 264.04 39.5 263.542 39.5C263.542 35.5 263.542 31.6667 263.542 27.6667C263.542 25.8333 263.542 23.6667 263.542 21.8333C263.542 20.8333 263.21 21.1667 261.216 21.1667H253.904C253.24 21.1667 253.073 21.1667 253.073 21.8333V36.5C253.073 37.5 253.073 38.5 253.073 39.5C251.744 39.5 248.254 39.1667 247.257 39.6667Z" fill="#050507"/>
<path fill-rule="evenodd" clip-rule="evenodd" d="M271.352 39.6667C271.518 40.6667 271.518 43 271.352 44.1667C271.186 45.6667 271.352 47.3333 271.352 48.8333C271.85 48.3333 271.518 44.6667 271.518 44L275.174 43.1667C275.506 43.1667 276.005 43 276.337 42.8333C278.331 42.3333 284.147 40 285.975 39.1667C286.307 38.8333 286.639 38.8333 286.972 38.6667C287.802 38.3333 288.301 38 288.966 37.6667C289.796 37.1667 290.295 36.8333 290.96 36.5C291.624 36.1667 292.123 35.8333 292.954 35.5L296.775 33.3333C297.108 33 297.108 33 297.606 32.8333L302.093 29.8333C302.924 29.3333 303.588 29 303.755 28.3333C303.422 28.3333 299.102 30.6667 298.271 31L288.467 35.1667C287.802 35.3333 287.138 35.6667 286.473 35.8333L282.319 37.1667C281.654 37.5 280.823 37.6667 280.159 37.8333L273.512 39.5C272.515 39.6667 271.85 39.8333 271.352 39.6667Z" fill="#BD1E05"/>
</svg>
