<svg width="143" height="54" viewBox="0 0 143 54" fill="none" xmlns="http://www.w3.org/2000/svg">
<g clip-path="url(#clip0_34_322)">
<path fill-rule="evenodd" clip-rule="evenodd" d="M11.3489 36.8853C12.2891 36.8853 13.0513 37.6474 13.0513 38.5877C13.0513 39.3402 13.3502 40.0618 13.8823 40.5939C14.4144 41.1261 15.1361 41.425 15.8886 41.425C16.8288 41.425 17.591 42.1872 17.591 43.1274C17.591 44.0676 16.8288 44.8298 15.8886 44.8298C14.2331 44.8298 12.6454 44.1721 11.4748 43.0015C10.3041 41.8309 9.64648 40.2432 9.64648 38.5877C9.64648 37.6474 10.4087 36.8853 11.3489 36.8853Z" fill="#0A12CE"/>
<path fill-rule="evenodd" clip-rule="evenodd" d="M11.3489 23.2661C12.2891 23.2661 13.0513 24.0283 13.0513 24.9685V29.5082C13.0513 30.4484 12.2891 31.2106 11.3489 31.2106C10.4087 31.2106 9.64648 30.4484 9.64648 29.5082V24.9685C9.64648 24.0283 10.4087 23.2661 11.3489 23.2661Z" fill="#0A12CE"/>
<path fill-rule="evenodd" clip-rule="evenodd" d="M15.8886 13.0517C15.1361 13.0517 14.4144 13.3506 13.8823 13.8827C13.3502 14.4148 13.0513 15.1365 13.0513 15.889C13.0513 16.8292 12.2891 17.5914 11.3489 17.5914C10.4087 17.5914 9.64648 16.8292 9.64648 15.889C9.64648 14.2335 10.3041 12.6458 11.4748 11.4752C12.6454 10.3045 14.2331 9.64688 15.8886 9.64688C16.8288 9.64688 17.591 10.4091 17.591 11.3493C17.591 12.2895 16.8288 13.0517 15.8886 13.0517Z" fill="#0A12CE"/>
<path fill-rule="evenodd" clip-rule="evenodd" d="M23.2656 11.3493C23.2656 10.4091 24.0278 9.64688 24.968 9.64688H29.5078C30.448 9.64688 31.2102 10.4091 31.2102 11.3493C31.2102 12.2895 30.448 13.0517 29.5078 13.0517H24.968C24.0278 13.0517 23.2656 12.2895 23.2656 11.3493Z" fill="#0A12CE"/>
<path fill-rule="evenodd" clip-rule="evenodd" d="M36.8848 11.3493C36.8848 10.4091 37.647 9.64688 38.5872 9.64688C40.2427 9.64688 41.8304 10.3045 43.001 11.4752C44.1716 12.6458 44.8293 14.2335 44.8293 15.889C44.8293 16.8292 44.0671 17.5914 43.1269 17.5914C42.1867 17.5914 41.4245 16.8292 41.4245 15.889C41.4245 15.1365 41.1256 14.4148 40.5935 13.8827C40.0614 13.3506 39.3397 13.0517 38.5872 13.0517C37.647 13.0517 36.8848 12.2895 36.8848 11.3493Z" fill="#0A12CE"/>
<path fill-rule="evenodd" clip-rule="evenodd" d="M43.1272 23.2661C44.0674 23.2661 44.8296 24.0283 44.8296 24.9685V29.5082C44.8296 30.4484 44.0674 31.2106 43.1272 31.2106C42.187 31.2106 41.4248 30.4484 41.4248 29.5082V24.9685C41.4248 24.0283 42.187 23.2661 43.1272 23.2661Z" fill="#0A12CE"/>
<path fill-rule="evenodd" clip-rule="evenodd" d="M43.1272 36.8853C44.0674 36.8853 44.8296 37.6474 44.8296 38.5877V47.6671C44.8296 48.6073 44.0674 49.3695 43.1272 49.3695C42.187 49.3695 41.4248 48.6073 41.4248 47.6671V38.5877C41.4248 37.6474 42.187 36.8853 43.1272 36.8853Z" fill="#0A12CE"/>
<path fill-rule="evenodd" clip-rule="evenodd" d="M36.8848 43.1275C36.8848 42.1873 37.647 41.4251 38.5872 41.4251H47.6666C48.6068 41.4251 49.369 42.1873 49.369 43.1275C49.369 44.0677 48.6068 44.8299 47.6666 44.8299H38.5872C37.647 44.8299 36.8848 44.0677 36.8848 43.1275Z" fill="#0A12CE"/>
<path fill-rule="evenodd" clip-rule="evenodd" d="M23.2656 43.1275C23.2656 42.1873 24.0278 41.4251 24.968 41.4251H29.5078C30.448 41.4251 31.2102 42.1873 31.2102 43.1275C31.2102 44.0677 30.448 44.8299 29.5078 44.8299H24.968C24.0278 44.8299 23.2656 44.0677 23.2656 43.1275Z" fill="#0A12CE"/>
<path d="M132.964 22.6661C134.205 23.9074 134.826 25.7081 134.826 28.0683C134.826 29.1173 134.695 30.0701 134.432 30.9268C134.17 31.766 133.786 32.4828 133.279 33.0772C132.789 33.6716 132.177 34.1349 131.443 34.4671C130.709 34.7818 129.878 34.9391 128.952 34.9391C128.025 34.9391 127.195 34.7818 126.46 34.4671C125.743 34.1349 125.132 33.6716 124.625 33.0772C124.135 32.4828 123.759 31.766 123.497 30.9268C123.235 30.0701 123.104 29.1173 123.104 28.0683C123.104 25.9529 123.611 24.2833 124.625 23.0595C125.639 21.8182 127.081 21.1975 128.952 21.1975C130.595 21.1975 131.932 21.6871 132.964 22.6661ZM128.952 23.7675C127.396 23.7675 126.618 25.2011 126.618 28.0683C126.618 30.9181 127.396 32.3429 128.952 32.3429C130.525 32.3429 131.312 30.9181 131.312 28.0683C131.312 25.2011 130.525 23.7675 128.952 23.7675Z" fill="#15186B"/>
<path d="M121.649 21.5384C121.754 21.958 121.807 22.3689 121.807 22.771C121.807 23.1731 121.754 23.5839 121.649 24.0035L118.476 23.9511V30.8481C118.476 31.6523 118.852 32.0544 119.604 32.0544H121.23C121.404 32.5789 121.492 33.0772 121.492 33.5492C121.492 34.0213 121.466 34.3272 121.413 34.4671C120.347 34.6244 119.298 34.7031 118.266 34.7031C116.168 34.7031 115.119 33.6366 115.119 31.5037V23.9773L113.126 24.0035C113.039 23.6539 112.995 23.243 112.995 22.771C112.995 22.2989 113.039 21.8881 113.126 21.5384L115.119 21.5647V19.6765C115.119 18.9073 115.259 18.3653 115.539 18.0506C115.819 17.7359 116.299 17.5786 116.981 17.5786H118.292L118.476 17.7359V21.5909L121.649 21.5384Z" fill="#15186B"/>
<path d="M111.109 25.813V31.5299C111.109 32.6489 111.293 33.4793 111.66 34.0213C111.1 34.5108 110.427 34.7555 109.641 34.7555C108.889 34.7555 108.373 34.5895 108.093 34.2573C107.814 33.9076 107.674 33.3657 107.674 32.6314V26.5211C107.674 25.7343 107.578 25.1836 107.385 24.8689C107.193 24.5542 106.835 24.3969 106.31 24.3969C105.383 24.3969 104.518 24.8165 103.714 25.6557V34.572C103.452 34.6244 103.172 34.6594 102.875 34.6769C102.595 34.6944 102.306 34.7031 102.009 34.7031C101.712 34.7031 101.415 34.6944 101.118 34.6769C100.838 34.6594 100.567 34.6244 100.305 34.572V21.5909L100.462 21.4073H101.773C102.752 21.4073 103.364 21.9318 103.609 22.9808C104.885 21.8794 106.153 21.3286 107.412 21.3286C108.67 21.3286 109.597 21.7395 110.191 22.5612C110.803 23.3654 111.109 24.4493 111.109 25.813Z" fill="#15186B"/>
<path d="M97.1311 29.1698H89.8931C89.9456 30.1313 90.1641 30.8918 90.5487 31.4513C90.9508 31.9933 91.6414 32.2642 92.6205 32.2642C93.6345 32.2642 94.7971 31.967 96.1083 31.3726C96.6153 31.8971 96.9387 32.5877 97.0786 33.4443C95.68 34.4409 94.0016 34.9391 92.0435 34.9391C90.1903 34.9391 88.783 34.3709 87.8214 33.2346C86.8773 32.0807 86.4053 30.3761 86.4053 28.1208C86.4053 27.0718 86.5277 26.1277 86.7724 25.2886C87.0172 24.4319 87.3756 23.7063 87.8476 23.1119C88.3197 22.5 88.8966 22.028 89.5784 21.6958C90.2603 21.3636 91.0383 21.1975 91.9124 21.1975C92.804 21.1975 93.5908 21.3374 94.2726 21.6171C94.9544 21.8794 95.5314 22.264 96.0034 22.771C96.4754 23.2605 96.8251 23.8462 97.0524 24.528C97.2971 25.2099 97.4195 25.9529 97.4195 26.7571C97.4195 27.1942 97.3933 27.6138 97.3409 28.0159C97.2884 28.4005 97.2185 28.7851 97.1311 29.1698ZM92.0697 23.6626C90.7061 23.6626 89.9718 24.6941 89.8669 26.7571H94.2201V26.4424C94.2201 25.6032 94.0453 24.9302 93.6957 24.4231C93.346 23.9161 92.804 23.6626 92.0697 23.6626Z" fill="#15186B"/>
<path d="M79.8989 31.8971L82.5738 21.5647C82.9235 21.4772 83.3868 21.4335 83.9637 21.4335C84.5406 21.4335 85.0826 21.521 85.5896 21.6958L85.6945 21.8531C83.9812 27.8148 82.7049 32.0544 81.8657 34.572C81.0965 34.6769 80.301 34.7293 79.4793 34.7293C78.6751 34.7293 78.0982 34.6157 77.7485 34.3884C77.3988 34.1436 77.1191 33.6716 76.9093 32.9723L73.5264 21.8269C74.2257 21.4947 74.8726 21.3286 75.467 21.3286C76.4985 21.3286 77.1366 21.8444 77.3814 22.8759L78.8499 28.1994C79.0422 28.8288 79.3045 29.9914 79.6367 31.6873C79.6716 31.8272 79.759 31.8971 79.8989 31.8971Z" fill="#15186B"/>
<path d="M64.5923 30.0876L64.5661 31.7135L66.4018 31.6611H72.8268C72.8268 32.2205 72.8006 32.6489 72.7481 32.9461C72.5558 34.065 71.8041 34.6244 70.4928 34.6244H63.1238C62.4944 34.6244 61.9961 34.4409 61.629 34.0737C61.2793 33.6891 61.1045 33.1734 61.1045 32.5265V16.8443L61.2881 16.6607H72.2236C72.3111 17.0978 72.3548 17.5698 72.3548 18.0768C72.3548 18.5663 72.2586 19.0821 72.0663 19.6241H64.5661L64.5923 21.4335V24.1347L66.2969 24.1084H70.7289C70.8687 24.5105 70.9387 24.9913 70.9387 25.5508C70.9387 26.1102 70.8687 26.591 70.7289 26.9931H64.5923V30.0876Z" fill="#15186B"/>
<path d="M133.545 46.0954L132.857 46.1069H131.285L130.619 46.0954L130.011 48.0115C129.881 48.0421 129.709 48.0574 129.495 48.0574C129.281 48.0574 129.078 48.0306 128.887 47.9771L128.853 47.9197L131.445 40.1638C131.606 40.1332 131.839 40.1179 132.145 40.1179C132.451 40.1179 132.681 40.1332 132.834 40.1638L135.404 47.9197C135.243 48.0268 135.037 48.0803 134.784 48.0803C134.532 48.0803 134.352 48.0344 134.245 47.9426C134.138 47.8508 134.046 47.6826 133.97 47.4378L133.545 46.0954ZM130.929 45.1088L131.514 45.0973H132.662C132.975 45.1049 133.166 45.1088 133.235 45.1088L132.708 43.4451C132.44 42.5885 132.237 41.8963 132.099 41.3685H132.042C131.95 41.7892 131.801 42.3437 131.595 43.0321L130.929 45.1088Z" fill="#181818"/>
<path d="M127.044 41.1964L126.379 41.1849V48C126.203 48.0306 125.996 48.0459 125.759 48.0459C125.53 48.0459 125.327 48.0306 125.151 48V42.0339L125.163 41.1849H125.151L124.497 41.1964H123.132C123.101 41.0358 123.086 40.8637 123.086 40.6801C123.086 40.4965 123.101 40.3244 123.132 40.1638H128.409C128.455 40.3474 128.478 40.5233 128.478 40.6916C128.478 41.0281 128.249 41.1964 127.79 41.1964H127.044Z" fill="#181818"/>
<path d="M117.929 46.4167L117.918 47.0018C118.147 46.9789 118.4 46.9674 118.675 46.9674H121.647C121.647 47.1739 121.635 47.3307 121.612 47.4378C121.543 47.8203 121.283 48.0115 120.832 48.0115H117.424C117.21 48.0115 117.038 47.9465 116.908 47.8164C116.786 47.6788 116.725 47.4914 116.725 47.2542V40.2327L116.805 40.1638H121.417C121.44 40.2862 121.452 40.4506 121.452 40.6572C121.452 40.856 121.421 41.0358 121.36 41.1964H117.918L117.929 41.9422V43.5484L118.641 43.5369H120.798C120.836 43.6746 120.855 43.8467 120.855 44.0532C120.855 44.2521 120.836 44.4165 120.798 44.5466H118.641C118.342 44.5466 118.105 44.5428 117.929 44.5351V46.4167Z" fill="#181818"/>
<path d="M111.648 48.0459L109.113 48.0229L109.044 47.9312V40.2327L109.113 40.1523L111.499 40.1179C112.333 40.1179 112.956 40.2977 113.369 40.6572C113.79 41.0167 114 41.5291 114 42.1946C114 42.5617 113.901 42.8906 113.702 43.1813C113.503 43.4643 113.243 43.6708 112.922 43.8008C113.113 43.862 113.297 43.9576 113.473 44.0876C113.656 44.2177 113.813 44.3706 113.943 44.5466C114.073 44.7225 114.176 44.9175 114.253 45.1317C114.337 45.3459 114.379 45.5715 114.379 45.8086C114.379 46.4817 114.153 47.0248 113.702 47.4378C113.251 47.8432 112.566 48.0459 111.648 48.0459ZM110.249 47.128L111.637 47.1166C111.92 47.1166 112.157 47.0783 112.348 47.0018C112.539 46.9253 112.692 46.8259 112.807 46.7035C112.922 46.5735 113.002 46.4282 113.048 46.2675C113.102 46.0993 113.128 45.9195 113.128 45.7283C113.128 45.56 113.098 45.3956 113.037 45.235C112.983 45.0667 112.891 44.9175 112.761 44.7875C112.639 44.6575 112.478 44.5542 112.279 44.4777C112.081 44.3936 111.843 44.3515 111.568 44.3515H110.249V47.128ZM110.249 41.0358V43.4107H111.453C111.698 43.4107 111.905 43.3801 112.073 43.3189C112.241 43.2577 112.375 43.1736 112.474 43.0665C112.582 42.9594 112.658 42.8332 112.704 42.6879C112.75 42.5426 112.773 42.3896 112.773 42.229C112.773 41.4412 112.341 41.0472 111.476 41.0472C111.186 41.0472 110.937 41.0472 110.731 41.0472C110.532 41.0472 110.371 41.0434 110.249 41.0358Z" fill="#181818"/>
</g>
<defs>
<clipPath id="clip0_34_322">
<rect width="143" height="54" fill="white"/>
</clipPath>
</defs>
</svg>
