<svg width="167" height="115" viewBox="0 0 167 115" fill="none" xmlns="http://www.w3.org/2000/svg">
<g clip-path="url(#clip0_259_1006)">
<path d="M33.9278 61.1676C31.5494 60.5363 28.8222 59.0344 28.364 55.2467C28.364 55.2467 28.2766 54.4632 28.2549 53.1135C28.2331 51.764 28.2112 49.9136 28.1895 47.9111C28.1895 43.9057 27.8403 40.9454 27.8403 40.9454C25.5931 40.8147 23.2148 40.7277 20.6839 40.8582C18.1529 40.9671 15.6001 41.1413 13.2 41.3153C13.2 41.3153 13.0691 44.5805 13.0691 48.4117C13.0691 49.3695 13.0691 50.3056 13.0473 51.1761C13.1564 53.7013 12.3709 56.5746 10.8654 58.5773C10.3636 59.2521 9.79631 59.8179 9.14175 60.2316C7.87627 61.1893 5.86895 61.1676 4.42893 60.754C3.83983 60.3623 3.27254 59.7744 2.81435 59.0126C2.35616 58.2725 2.00705 57.38 1.85432 56.3568C1.85432 54.9855 2.5307 54.289 2.18161 53.2659C2.18161 51.4157 2.18161 48.847 2.13796 46.0608C2.90161 43.1222 2.7707 39.7046 2.35616 36.2C2.22524 35.0245 2.0507 33.849 1.87614 32.6735C-0.829371 24.6196 -2.18214 8.7508 9.22903 9.18615C16.6474 9.94802 13.9419 24.1624 12.5891 32.0424C13.3746 32.0859 14.2473 32.1947 15.1419 32.3036C18.131 32.6735 21.5565 33.1742 24.0222 31.977C25.2439 31.3675 26.2258 30.3444 26.793 28.6466C28.1457 21.8333 26.1168 14.6499 28.8222 7.61886C29.3239 5.33325 31.7458 2.3293 34.3641 2.3946C35.2369 2.41637 36.1314 2.78642 36.9823 3.63537C39.7096 9.42559 39.7096 15.5641 39.6006 22.4645C39.6006 23.7488 39.557 25.0113 39.5351 26.2957C39.5132 27.6452 39.4915 29.0384 39.4697 30.4314C39.3387 36.5701 38.9898 42.7085 38.5533 48.8254C38.4661 50.0443 38.3788 51.2633 38.2698 52.4823C37.6588 54.5067 37.6588 57.5323 37.5279 59.6439C36.6333 60.6452 35.3678 61.233 33.9278 61.1893" fill="white"/>
<path d="M60.2633 62.648C53.9795 62.169 48.525 59.0127 45.1429 53.0048C44.5538 52.0035 44.0302 50.9587 43.572 49.7614C41.7392 44.9724 40.9756 39.2911 40.9102 33.4139C40.9102 31.9553 40.932 30.4753 40.9975 28.995C43.0702 20.745 41.0192 2.35121 52.605 5.37691C60.1105 8.07612 55.3322 19.3083 54.3723 26.2086C54.0014 27.5802 53.6087 28.8643 53.3031 30.3445C51.3613 39.2476 50.2923 47.6717 58.0597 52.7872C60.1105 53.5491 62.1616 53.5491 64.1907 51.9818C65.5653 50.4144 66.918 48.8255 67.5944 46.4527C68.6199 40.14 68.2707 34.045 67.8563 27.9284C67.7689 26.7094 67.6599 25.5339 67.5507 24.3366C67.5945 16.5438 64.8453 4.76742 72.3509 3.87495C81.9075 2.26413 79.18 18.0893 80.2928 26.361C80.3366 27.8195 80.3582 29.3214 80.3365 30.8017C80.2056 44.2106 77.0419 57.0753 65.8488 61.9732C64.9979 62.1909 64.0815 62.3649 63.1434 62.4738C62.2052 62.5827 61.2233 62.648 60.2198 62.648" fill="white"/>
<path d="M100.061 62.2345C98.2717 62.6046 96.4826 62.4957 94.8025 61.9951C93.1006 61.4943 91.508 60.6019 90.046 59.4048C82.3877 51.8296 81.0349 39.7918 81.9949 28.2333C82.1258 26.7747 82.3005 25.3817 82.5186 24.0103C83.3259 18.0894 84.0024 10.1877 89.5443 6.46541C90.177 6.00829 90.8534 5.63824 91.6389 5.31172C92.4025 4.9852 93.2315 4.70222 94.1479 4.46277C95.959 3.98388 97.9881 3.78798 100.257 3.94035C103.944 4.15803 108.286 5.59471 110.686 7.88032C112.388 9.40406 113.13 11.2326 113.13 12.8434C113.13 14.2147 112.716 15.5208 111.887 16.4568C111.057 17.3928 109.814 17.9588 108.177 17.85C107.021 17.7847 106.061 17.4146 104.643 16.5657C103.552 15.695 102.483 15.2161 101.435 15.0637C100.388 14.9113 99.3625 15.0637 98.359 15.3902C97.6171 15.9344 96.9625 16.5439 96.3734 17.2187C95.7843 17.8935 95.2825 18.5901 94.8244 19.3519C90.177 28.3856 89.4788 44.1672 98.359 49.718C99.7117 51.2852 102.439 51.3071 104.49 49.7833C106.541 47.4759 107.894 45.2121 107.217 42.0993C107.217 39.7918 105.166 39.7267 103.137 41.2286C101.086 42.7306 99.7336 39.596 99.0571 37.245C99.0571 33.3486 99.7336 29.4523 103.835 28.059C106.563 28.1679 109.29 27.5366 111.996 29.2127C114.047 30.8453 115.399 32.4562 116.752 34.7853C118.105 37.8763 117.428 40.1184 117.45 43.5142C117.319 44.7115 117.123 45.9086 116.817 47.1058C115.334 53.0702 111.581 58.7516 105.996 61.2549C104.316 61.8427 102.374 62.191 100.126 62.2345" fill="white"/>
<path d="M148.083 61.5163C146.687 61.3421 145.225 61.3639 143.698 61.4728C133.007 64.8904 119.413 61.4728 119.042 46.8449C118.977 45.8435 118.977 44.8203 119.021 43.7974C120.112 40.9021 118.759 37.0493 120.003 34.35C120.112 33.5012 120.221 32.6739 120.352 31.825C120.461 30.9978 120.57 30.1489 120.657 29.3217C121.486 22.1385 116.73 12.5823 122.163 8.62059C129.624 4.15819 139.77 6.6615 148.519 11.1021C152.556 13.2789 153.21 20.1358 148.519 21.529C142.476 22.7696 133.683 17.393 131.654 20.0923C125.566 30.5407 140.468 28.2551 148.519 33.3269C150.527 34.916 150.527 36.9623 149.872 38.2901C145.836 44.2545 139.116 37.4847 133.705 39.2914C132.352 39.2044 130.999 42.0776 130.759 44.5593C130.65 45.887 131.152 46.8231 132.068 47.4761C135.734 50.0448 146.076 48.521 151.88 51.5031C152.556 52.2215 152.556 54.2677 153.232 55.7478C153.254 58.8606 150.985 61.3858 148.127 61.4945" fill="white"/>
<path d="M34.9319 76.71C34.2555 76.536 33.5136 76.4053 32.7719 76.3618C32.0081 76.3183 31.3973 76.4271 30.7208 76.5795C29.4336 76.7535 28.2989 77.5589 27.3826 78.6692C26.9244 79.2134 26.5316 79.8664 26.2043 80.5412C24.7643 84.024 25.4407 86.9626 25.659 90.489C25.8335 91.4903 26.0517 92.4918 26.2917 93.493C27.448 98.5432 28.8226 103.767 25.4407 107.359C23.4116 108.513 21.3825 107.424 19.3752 106.38C17.346 104.616 16.0151 102.962 16.6696 100.959C16.7787 100.154 16.9314 99.3486 17.1496 98.6302C19.2224 95.844 20.3351 92.5353 20.5096 89.183C20.5751 88.0729 20.5096 86.9409 20.4006 85.8308C19.3752 77.0583 12.6332 73.7279 6.61122 69.2872C5.93484 68.5689 6.61122 66.5663 7.28759 65.2385C11.9786 59.2305 20.0514 62.757 26.2698 64.5855C27.1643 64.8684 28.0152 65.1731 28.888 65.4344C29.7609 65.6956 30.5899 65.9785 31.3099 66.2181C32.0954 66.501 32.8373 66.7839 33.7318 67.0451C34.6482 67.3064 35.5427 67.5458 36.4591 67.807C37.2883 68.3513 38.161 69.0913 39.0119 69.9621C39.6883 71.4858 39.6883 73.7714 37.9865 75.404C37.2446 76.2529 36.1756 76.7319 34.9319 76.6884" fill="white"/>
<path d="M65.3905 114.999C64.1906 114.433 62.8379 113.585 62.1396 112.779C58.0377 106.336 63.4925 95.6261 56.8595 91.7514C55.1358 91.3815 53.7831 91.3815 52.7577 91.6644C50.903 92.9922 50.183 94.8424 50.0085 96.9539C49.9211 97.9987 49.9211 99.0872 49.9866 100.197C50.5757 104.311 51.2522 108.23 49.223 112.17C48.8084 112.431 48.2631 112.561 47.4993 112.496C46.7357 112.453 45.7757 112.213 44.6411 111.8C43.7901 111.386 42.9828 110.755 42.2628 109.971C41.5427 109.187 40.9101 108.273 40.3864 107.272C39.0337 104.856 39.71 101.895 39.7754 99.109C39.8846 98.3035 40.0156 97.5199 40.1682 96.7581C40.6264 94.4506 41.1938 92.252 41.3028 90.0536C41.4556 88.9433 41.5865 87.768 41.6737 86.5707C41.6737 85.7434 41.6301 84.8946 41.5646 84.0022C41.4992 83.1096 41.3901 82.1953 41.3028 81.2811C41.0845 76.9711 40.4083 72.3999 42.1318 68.0681C42.4374 66.8926 42.7864 65.9783 43.7901 65.6082C48.5466 64.1499 51.2739 69.5918 50.1613 75.0121C50.1175 76.035 50.0521 77.1016 50.0085 78.1247C49.9649 79.1697 49.9211 80.171 49.9211 81.1287C49.9211 82.6743 51.2739 83.5015 51.9722 84.3069C60.1542 88.1163 59.1286 79.7138 60.1323 72.7046C60.3068 71.5292 60.547 70.419 60.8959 69.3959C60.8305 65.826 63.5579 66.6313 65.4779 66.9579C66.2852 67.3062 66.9615 67.8287 67.5289 68.547C69.2743 70.6803 70.0162 74.3154 70.2343 78.3206C70.2998 79.6485 70.3216 81.0199 70.2998 82.3912C69.689 91.8603 69.689 100.524 69.0344 109.666C68.9689 110.711 68.9035 111.713 68.8816 112.714C68.0307 114.151 66.8089 115.043 65.4124 115.065" fill="white"/>
<path d="M77.7613 112.975C68.3139 105.291 73.0922 88.7477 73.0049 78.0161C73.0049 76.732 72.9613 75.4258 73.0267 74.1633C73.2012 70.3758 73.9867 66.98 76.9104 65.6738C77.6958 65.8916 78.5468 66.3052 79.2449 66.6969C80.6195 68.2642 81.9724 69.0479 82.6486 71.4205C82.8669 72.3348 83.0414 73.2274 83.1723 74.1198C83.3032 74.9905 83.3687 75.8612 83.4124 76.7101C81.274 88.7695 88.1034 101.264 80.5105 112.453C79.6814 112.779 78.765 112.975 77.7613 112.997" fill="white"/>
<path d="M109.115 110.646C101.064 110.646 101.064 100.546 97.4644 93.5367C97.2242 92.7748 96.9624 92.0348 96.6789 91.2075C96.3078 90.4675 95.937 89.7273 95.5442 89.0308C95.1515 88.3341 94.7369 87.6811 94.3006 87.0281C94.1697 88.1601 94.1478 89.379 94.2132 90.7504C94.257 92.1218 94.3879 93.4931 94.5188 94.8864C95.2605 98.3256 96.1115 104.638 94.366 108.121C93.9297 108.992 93.3406 109.688 92.5332 110.124C91.5295 110.407 90.1768 110.472 89.5004 110.494C88.9332 109.863 88.4531 109.166 88.0822 108.426C85.3985 101.243 86.7512 93.3408 85.5949 85.4827C85.4423 84.22 85.3114 82.8486 85.2895 81.4121C85.1804 75.6435 86.0968 69.5267 91.5514 68.9609C92.686 69.2003 93.6241 69.7228 94.3879 70.4193C98.2715 73.9021 98.4243 82.174 102.177 86.2446C102.657 87.1588 103.246 87.9858 103.792 88.7696C104.337 89.5531 104.839 90.2933 105.188 91.0552C105.864 88.7042 105.864 86.4186 105.581 84.3942C105.45 83.1752 105.297 81.8692 105.166 80.5849C105.014 79.2789 104.926 77.9727 104.883 76.7537C105.21 73.4014 105.21 71.0942 107.915 69.4832C108.941 69.3309 109.814 69.4832 110.534 69.9187C114.221 72.0301 114.57 80.3018 113.937 86.2009C113.828 87.2893 113.763 88.2036 113.675 89.2048C111.995 95.9965 116.752 103.855 111.821 109.906C111.036 110.276 110.141 110.559 109.159 110.69" fill="white"/>
<path d="M129.842 108.992C128.664 109.188 127.551 109.188 126.482 109.057C125.413 108.926 124.41 108.622 123.471 108.186C122.97 107.773 122.424 107.359 121.879 106.924C117.406 102.701 115.355 95.365 115.333 87.9206C115.377 87.1368 115.464 86.3315 115.551 85.5477C115.682 84.503 115.857 83.4364 116.075 82.4132C116.751 79.5617 118.104 76.4923 119.173 73.7279C119.719 72.6395 120.308 71.6382 120.984 70.724C125.828 64.2589 133.813 62.1475 139.683 66.8058C140.359 67.4806 140.686 68.6561 140.686 69.7879C140.686 70.9198 140.359 71.9646 139.683 72.3566C138.788 72.8789 137.806 73.2925 136.759 73.6626C135.712 74.0327 134.643 74.3591 133.552 74.6857C129.188 76.0135 124.802 77.5373 123.34 83.4364C122.926 84.8077 122.664 86.3315 122.555 87.9641C122.511 88.7913 122.49 89.6183 122.533 90.4891C122.839 93.9067 123.515 96.7799 126.22 99.3486C128.926 101.177 132.962 99.8274 133.639 97.6071C135.668 92.3829 128.25 92.6006 128.25 88.2253C128.25 83.8716 133.661 82.6961 137.021 83.0663C139.704 83.5017 141.734 83.9588 143.741 85.0906C149.108 90.4891 144.417 99.8492 138.373 105.291C137.021 106.249 135.013 107.316 133.704 108.121C132.57 108.513 131.304 108.796 129.886 109.014" fill="white"/>
<path d="M159.473 3.50462V6.0079H161.371C162.048 6.0079 162.659 5.50725 162.659 4.78891C162.659 4.00527 162.048 3.50462 161.371 3.50462H159.473ZM160.695 6.90039H159.473V9.68667H158.491V2.6339H161.371C162.615 2.6339 163.662 3.48285 163.662 4.78891C163.662 6.3562 162.266 6.87862 161.851 6.87862L163.749 9.68667H162.528L160.695 6.90039ZM155.611 6.13852C155.611 9.01186 157.946 11.3628 160.847 11.3628C163.749 11.3628 166.084 9.01186 166.084 6.13852C166.084 3.26517 163.728 0.914248 160.847 0.914248C157.968 0.914248 155.611 3.2434 155.611 6.13852ZM154.673 6.13852C154.673 2.72098 157.444 0 160.826 0C164.208 0 166.979 2.72098 166.979 6.13852C166.979 9.55605 164.251 12.2988 160.826 12.2988C157.4 12.2988 154.673 9.5343 154.673 6.13852Z" fill="white"/>
</g>
<defs>
<clipPath id="clip0_259_1006">
<rect width="167" height="115" fill="white"/>
</clipPath>
</defs>
</svg>
