<svg version="1.0" xmlns="http://www.w3.org/2000/svg"
 width="215.000000pt" height="70.000000pt" viewBox="0 0 215.000000 70.000000"
 preserveAspectRatio="xMidYMid meet">

<g transform="translate(0.000000,70.000000) scale(0.100000,-0.100000)"
fill="#FFFFFF" stroke="none">
<path d="M170 530 l0 -130 25 0 c23 0 24 3 27 77 l3 78 35 -60 c20 -33 43 -61
51 -63 9 -2 28 20 49 59 l35 61 3 -76 c3 -73 4 -76 27 -76 l25 0 0 130 c0 124
-1 130 -20 130 -13 0 -29 -15 -46 -42 -14 -24 -36 -61 -48 -82 l-24 -40 -47
82 c-38 66 -52 82 -71 82 l-24 0 0 -130z"/>
<path d="M604 641 c-42 -19 -74 -67 -74 -111 0 -44 32 -92 74 -111 52 -23 80
-23 132 0 42 19 74 67 74 111 0 44 -32 92 -74 111 -23 10 -52 19 -66 19 -14 0
-43 -9 -66 -19z m121 -56 c50 -49 15 -135 -55 -135 -19 0 -40 9 -55 25 -16 15
-25 36 -25 55 0 19 9 40 25 55 15 16 36 25 55 25 19 0 40 -9 55 -25z"/>
<path d="M858 643 c5 -10 31 -69 57 -130 43 -104 49 -113 74 -113 25 0 30 9
79 123 29 67 52 126 52 130 0 5 -12 7 -26 5 -23 -3 -31 -14 -62 -90 -20 -49
-38 -88 -41 -88 -3 0 -22 40 -42 88 -33 82 -37 87 -68 90 -29 3 -31 1 -23 -15z"/>
<path d="M1190 530 l0 -130 101 0 c98 0 100 0 97 23 -3 20 -9 22 -70 25 -68 3
-68 3 -68 32 0 30 0 30 60 30 53 0 60 2 60 20 0 18 -7 20 -60 20 l-60 0 0 30
0 30 65 0 c63 0 65 1 65 25 0 25 0 25 -95 25 l-95 0 0 -130z"/>
<path d="M1470 530 l0 -130 30 0 29 0 3 77 3 76 59 -76 c44 -58 64 -77 82 -77
l24 0 0 130 0 130 -30 0 -29 0 -3 -77 -3 -76 -59 76 c-44 58 -64 77 -82 77
l-24 0 0 -130z"/>
<path d="M1834 650 c-26 -10 -54 -48 -54 -72 0 -29 34 -55 95 -72 43 -13 56
-21 53 -34 -4 -21 -77 -29 -109 -12 -22 12 -38 1 -39 -26 0 -17 85 -37 128
-31 40 7 82 46 82 77 0 28 -39 60 -82 66 -49 8 -73 26 -64 49 5 15 15 17 62
13 46 -4 57 -2 65 13 8 15 3 20 -28 28 -45 13 -80 13 -109 1z"/>
<path d="M224 272 c-42 -20 -74 -68 -74 -112 0 -34 29 -87 58 -106 37 -24 119
-25 156 -1 27 18 27 19 10 38 -15 17 -19 18 -34 4 -45 -40 -130 2 -130 65 0
63 85 105 130 65 15 -14 19 -13 34 4 17 19 17 20 -8 36 -39 26 -95 28 -142 7z"/>
<path d="M535 258 c-7 -18 -32 -75 -54 -127 -23 -52 -41 -96 -41 -98 0 -2 13
-3 28 -3 22 0 30 7 39 30 11 29 14 30 71 30 58 0 60 -1 71 -30 8 -24 16 -30
40 -30 l29 0 -56 130 c-54 122 -59 130 -85 130 -22 0 -31 -7 -42 -32z m48
-126 c-19 -2 -37 -1 -39 1 -2 2 4 25 13 51 l18 48 21 -49 21 -48 -34 -3z"/>
<path d="M780 160 l0 -130 30 0 c27 0 30 3 30 34 0 33 1 34 49 38 64 6 98 29
106 71 15 78 -35 117 -150 117 l-65 0 0 -130z m148 68 c7 -7 12 -21 12 -33 0
-31 -19 -45 -62 -45 l-38 0 0 45 0 45 38 0 c21 0 43 -5 50 -12z"/>
<path d="M1080 160 l0 -130 30 0 30 0 0 130 0 130 -30 0 -30 0 0 -130z"/>
<path d="M1210 265 c0 -22 4 -25 40 -25 l40 0 0 -105 0 -105 30 0 30 0 0 105
0 105 40 0 c36 0 40 3 40 25 l0 25 -110 0 -110 0 0 -25z"/>
<path d="M1545 258 c-7 -18 -32 -75 -54 -127 -23 -52 -41 -96 -41 -98 0 -2 13
-3 28 -3 22 0 30 7 39 30 11 29 14 30 71 30 58 0 60 -1 71 -30 8 -24 16 -30
40 -30 l29 0 -56 130 c-54 122 -59 130 -85 130 -22 0 -31 -7 -42 -32z m48
-126 c-19 -2 -37 -1 -39 1 -2 2 4 25 13 51 l18 48 21 -49 21 -48 -34 -3z"/>
<path d="M1800 160 l0 -130 96 0 c93 0 95 1 92 23 -3 20 -9 22 -65 25 l-63 3
0 104 0 105 -30 0 -30 0 0 -130z"/>
</g>
</svg>
