<svg width="156" height="55" viewBox="0 0 156 55" fill="none" xmlns="http://www.w3.org/2000/svg">
<path fill-rule="evenodd" clip-rule="evenodd" d="M29.4678 2.91029H7.27526C4.91822 2.91029 3.00746 4.82105 3.00746 7.17809V29.3707C3.00746 31.7277 4.91822 33.6385 7.27526 33.6385H29.4678C31.8248 33.6385 33.7356 31.7277 33.7356 29.3707V7.17809C33.7356 4.82105 31.8248 2.91029 29.4678 2.91029ZM7.27526 0.349609C3.50399 0.349609 0.446777 3.40683 0.446777 7.17809V29.3707C0.446777 33.1419 3.50399 36.1991 7.27526 36.1991H29.4678C33.2391 36.1991 36.2963 33.1419 36.2963 29.3707V7.17809C36.2963 3.40683 33.2391 0.349609 29.4678 0.349609H7.27526Z" fill="url(#paint0_linear_1129_617)"/>
<path d="M30.0773 13.4758C31.8645 15.3665 32.7581 17.7494 32.7581 20.6244C32.7581 23.4994 31.8645 25.9081 30.0773 27.8507C28.3161 29.7673 26.1016 30.7257 23.4338 30.7257C21.025 30.7257 19.1084 29.9486 17.6839 28.3946V37.2526H12.439V11.0282H17.2565V13.4369C18.5774 11.5462 20.6365 10.6008 23.4338 10.6008C26.1016 10.6008 28.3161 11.5591 30.0773 13.4758ZM27.4355 20.6632C27.4355 19.0833 26.9693 17.8012 26.0368 16.817C25.1044 15.8327 23.913 15.3406 22.4625 15.3406C21.0639 15.3406 19.8984 15.8068 18.9659 16.7393C18.0594 17.6717 17.6062 18.9667 17.6062 20.6244C17.6062 22.282 18.0594 23.59 18.9659 24.5483C19.8984 25.4808 21.0639 25.947 22.4625 25.947C23.8871 25.947 25.0656 25.4549 25.998 24.4706C26.9563 23.4864 27.4355 22.2173 27.4355 20.6632Z" fill="white"/>
<path d="M53.7728 22.4115H40.2915C40.6023 23.6289 41.2239 24.5742 42.1564 25.2477C43.1147 25.8952 44.2932 26.2189 45.6918 26.2189C47.5826 26.2189 49.3697 25.5714 51.0532 24.2764L53.2289 27.8507C50.9237 29.7673 48.3596 30.7257 45.5364 30.7257C42.5837 30.7775 40.0714 29.8191 37.9993 27.8507C35.9531 25.8563 34.956 23.4605 35.0078 20.6632C34.956 17.8919 35.9272 15.509 37.9216 13.5146C39.916 11.5203 42.2988 10.549 45.0702 10.6008C47.7121 10.6008 49.8748 11.4555 51.5583 13.165C53.2678 14.8744 54.1225 16.9983 54.1225 19.5365C54.1225 20.469 54.0059 21.4273 53.7728 22.4115ZM40.2915 18.7207H49.033C49.0071 17.5551 48.5927 16.6227 47.7898 15.9234C47.0127 15.1982 46.0415 14.8356 44.8759 14.8356C43.7622 14.8356 42.7909 15.1852 41.9621 15.8845C41.1333 16.5839 40.5764 17.5292 40.2915 18.7207Z" fill="white"/>
<path d="M69.2486 11.0282V15.6514H67.8499C66.2441 15.6514 64.975 16.0788 64.0425 16.9335C63.136 17.7882 62.6828 19.0315 62.6828 20.6632V30.2594H57.4379V11.0282H62.2554V13.3204C63.6022 11.6368 65.3635 10.7951 67.5391 10.7951C68.1867 10.7951 68.7565 10.8728 69.2486 11.0282Z" fill="white"/>
<path d="M69.9749 26.9959L72.6168 23.8102C74.2744 25.5455 76.0745 26.4132 78.0171 26.4132C78.7423 26.4132 79.3251 26.2837 79.7654 26.0247C80.2316 25.7398 80.4647 25.3383 80.4647 24.8203C80.4647 24.4318 80.3222 24.1339 80.0373 23.9267C79.7783 23.6936 79.2603 23.4087 78.4833 23.072L76.4242 22.2173C74.5852 21.4661 73.2514 20.6503 72.4225 19.7697C71.5937 18.8631 71.1793 17.7235 71.1793 16.3508C71.1793 14.5636 71.8268 13.165 73.1219 12.1548C74.4169 11.1188 76.1263 10.6008 78.2502 10.6008C81.0993 10.6008 83.4044 11.5591 85.1657 13.4758L82.5238 16.7004C81.2288 15.4831 79.7913 14.8744 78.2113 14.8744C76.8386 14.8744 76.1522 15.3277 76.1522 16.2342C76.1522 16.5968 76.2947 16.8947 76.5796 17.1278C76.8645 17.3609 77.3955 17.6328 78.1725 17.9437L80.0373 18.7207C81.954 19.4977 83.3267 20.3265 84.1555 21.2071C85.0103 22.0878 85.4376 23.2144 85.4376 24.5872C85.4376 26.5038 84.7254 28.0061 83.3008 29.0939C81.9022 30.1817 80.115 30.7257 77.9394 30.7257C74.4946 30.7257 71.8398 29.4824 69.9749 26.9959Z" fill="white"/>
<path d="M87.5386 20.6244C87.4868 17.8789 88.484 15.509 90.5301 13.5146C92.5763 11.5203 95.011 10.549 97.8341 10.6008C100.657 10.549 103.092 11.5203 105.138 13.5146C107.21 15.509 108.22 17.8789 108.169 20.6244C108.22 23.3699 107.21 25.7527 105.138 27.773C103.066 29.7673 100.618 30.7386 97.7953 30.6868C94.9721 30.7386 92.5374 29.7673 90.4913 27.773C88.471 25.7527 87.4868 23.3699 87.5386 20.6244ZM101.37 24.3929C102.328 23.4087 102.807 22.1655 102.807 20.6632C102.807 19.161 102.328 17.9048 101.37 16.8947C100.437 15.8845 99.2587 15.3795 97.8341 15.3795C96.3837 15.3795 95.1923 15.8845 94.2598 16.8947C93.3274 17.8789 92.8612 19.1351 92.8612 20.6632C92.8612 22.1655 93.3274 23.4087 94.2598 24.3929C95.1923 25.3772 96.3837 25.8693 97.8341 25.8693C99.2587 25.8693 100.437 25.3772 101.37 24.3929Z" fill="white"/>
<path d="M129.164 18.3322V30.2594H123.958V19.0315C123.958 17.9178 123.621 17.0242 122.947 16.3508C122.3 15.6514 121.445 15.3018 120.383 15.3018C119.321 15.3018 118.441 15.6514 117.741 16.3508C117.068 17.0242 116.731 17.9178 116.731 19.0315V30.2594H111.486V11.0282H116.304V12.7765C117.754 11.326 119.632 10.6008 121.937 10.6008C124.165 10.6008 125.926 11.3001 127.221 12.6988C128.516 14.0974 129.164 15.9752 129.164 18.3322Z" fill="white"/>
<path d="M133.436 30.2594V11.0282H138.681V30.2594H133.436ZM132.697 4.03498C132.697 3.10255 133.021 2.32553 133.669 1.70391C134.316 1.08229 135.106 0.771484 136.039 0.771484C136.971 0.771484 137.761 1.08229 138.409 1.70391C139.082 2.32553 139.419 3.10255 139.419 4.03498C139.419 4.9415 139.082 5.70557 138.409 6.32719C137.761 6.9488 136.971 7.25961 136.039 7.25961C135.106 7.25961 134.316 6.9488 133.669 6.32719C133.021 5.70557 132.697 4.9415 132.697 4.03498Z" fill="white"/>
<path d="M155.447 25.8693V30.2594C154.204 30.5702 152.999 30.7257 151.834 30.7257C149.373 30.7257 147.469 30.117 146.123 28.8997C144.802 27.6823 144.141 25.8822 144.141 23.4994V15.4572H141.111V11.0282H144.141V6.17178H149.386V11.0282H154.825V15.4572H149.386V23.0331C149.386 24.121 149.658 24.898 150.202 25.3642C150.772 25.8045 151.691 26.0247 152.96 26.0247C153.401 26.0247 154.23 25.9729 155.447 25.8693Z" fill="white"/>
<path d="M18.6033 44.9547H19.2422V53.186H18.9842L13.6154 46.3184V53.0631H12.9766V44.8319H13.2223L18.6033 51.7486V44.9547Z" fill="white"/>
<path d="M21.0979 49.0089C21.0488 46.6993 22.9776 44.795 25.2504 44.8319C27.4987 44.795 29.4643 46.6993 29.4152 49.0089C29.4643 51.3063 27.4987 53.2351 25.2504 53.186C22.9776 53.2351 21.0488 51.3063 21.0979 49.0089ZM28.7395 48.9967C28.7764 47.0187 27.1915 45.3847 25.2627 45.4216C23.3093 45.3847 21.7368 47.0187 21.7736 48.9967C21.7368 50.9992 23.3093 52.6086 25.2627 52.584C27.1915 52.6209 28.7764 50.9746 28.7395 48.9967Z" fill="white"/>
<path d="M30.7691 49.5126V48.9721H33.5702V49.5126H30.7691Z" fill="white"/>
<path d="M34.9311 49.0089C34.882 46.6993 36.8108 44.795 39.0836 44.8319C40.4473 44.8319 41.639 45.4584 42.3638 46.4781L41.8847 46.859C41.2458 45.9621 40.263 45.4216 39.0959 45.4216C37.1425 45.3847 35.5699 47.0187 35.6068 48.9967C35.5699 50.9992 37.1425 52.6086 39.0959 52.584C40.263 52.584 41.2458 52.0557 41.8847 51.1589L42.3638 51.5397C41.639 52.5594 40.4473 53.186 39.0836 53.186C36.8108 53.2351 34.882 51.3063 34.9311 49.0089Z" fill="white"/>
<path d="M43.6173 49.0089C43.5682 46.6993 45.497 44.795 47.7698 44.8319C50.018 44.795 51.9837 46.6993 51.9346 49.0089C51.9837 51.3063 50.018 53.2351 47.7698 53.186C45.497 53.2351 43.5682 51.3063 43.6173 49.0089ZM51.2589 48.9967C51.2957 47.0187 49.7109 45.3847 47.7821 45.4216C45.8287 45.3847 44.2562 47.0187 44.293 48.9967C44.2562 50.9992 45.8287 52.6086 47.7821 52.584C49.7109 52.6209 51.2957 50.9746 51.2589 48.9967Z" fill="white"/>
<path d="M53.7922 53.0631V44.9547H56.0773C58.8784 44.9547 60.4878 46.6624 60.4878 48.9967C60.5246 51.3063 58.8415 53.0877 56.0773 53.0631H53.7922ZM54.431 52.4857H56.0773C58.4484 52.4857 59.8244 50.9623 59.8244 48.9967C59.8244 47.031 58.4607 45.5321 56.0773 45.5321H54.431V52.4857Z" fill="white"/>
<path d="M62.3464 53.0631V44.9547H67.4203V45.5321H62.9853V48.3947H66.4375V48.9721H62.9853V52.4857H67.5678V53.0631H62.3464Z" fill="white"/>
<path d="M75.013 54.5497L81.4384 43.4805H82.8758L76.4504 54.5497H75.013Z" fill="white"/>
<path d="M91.0325 53.0631V44.9547H91.6714V52.4857H95.6642V53.0631H91.0325Z" fill="white"/>
<path d="M96.4305 49.0089C96.3813 46.6993 98.3102 44.795 100.583 44.8319C102.831 44.795 104.797 46.6993 104.748 49.0089C104.797 51.3063 102.831 53.2351 100.583 53.186C98.3102 53.2351 96.3813 51.3063 96.4305 49.0089ZM104.072 48.9967C104.109 47.0187 102.524 45.3847 100.595 45.4216C98.6419 45.3847 97.0693 47.0187 97.1062 48.9967C97.0693 50.9992 98.6419 52.6086 100.595 52.584C102.524 52.6209 104.109 50.9746 104.072 48.9967Z" fill="white"/>
<path d="M117.029 44.9547H117.705L114.707 53.186H114.449L111.746 46.0973L109.044 53.186H108.786L105.788 44.9547H106.476L108.933 51.8715L111.624 44.8319H111.869L114.572 51.8715L117.029 44.9547Z" fill="white"/>
<path d="M118.543 49.5126V48.9721H121.344V49.5126H118.543Z" fill="white"/>
<path d="M122.705 49.0089C122.656 46.6993 124.585 44.795 126.858 44.8319C128.221 44.8319 129.413 45.4584 130.138 46.4781L129.659 46.859C129.02 45.9621 128.037 45.4216 126.87 45.4216C124.916 45.3847 123.344 47.0187 123.381 48.9967C123.344 50.9992 124.916 52.6086 126.87 52.584C128.037 52.584 129.02 52.0557 129.659 51.1589L130.138 51.5397C129.413 52.5594 128.221 53.186 126.858 53.186C124.585 53.2351 122.656 51.3063 122.705 49.0089Z" fill="white"/>
<path d="M131.391 49.0089C131.342 46.6993 133.271 44.795 135.544 44.8319C137.792 44.795 139.758 46.6993 139.709 49.0089C139.758 51.3063 137.792 53.2351 135.544 53.186C133.271 53.2351 131.342 51.3063 131.391 49.0089ZM139.033 48.9967C139.07 47.0187 137.485 45.3847 135.556 45.4216C133.603 45.3847 132.03 47.0187 132.067 48.9967C132.03 50.9992 133.603 52.6086 135.556 52.584C137.485 52.6209 139.07 50.9746 139.033 48.9967Z" fill="white"/>
<path d="M141.566 53.0631V44.9547H143.851C146.652 44.9547 148.262 46.6624 148.262 48.9967C148.299 51.3063 146.616 53.0877 143.851 53.0631H141.566ZM142.205 52.4857H143.851C146.222 52.4857 147.598 50.9623 147.598 48.9967C147.598 47.031 146.235 45.5321 143.851 45.5321H142.205V52.4857Z" fill="white"/>
<path d="M150.12 53.0631V44.9547H155.194V45.5321H150.759V48.3947H154.211V48.9721H150.759V52.4857H155.342V53.0631H150.12Z" fill="white"/>
<defs>
<linearGradient id="paint0_linear_1129_617" x1="0.247612" y1="-0.0487174" x2="27.3339" y2="26.3832" gradientUnits="userSpaceOnUse">
<stop stop-color="#0CFFA7"/>
<stop offset="1" stop-color="#4DACB8" stop-opacity="0"/>
</linearGradient>
</defs>
</svg>
