<svg width="410" height="168" viewBox="0 0 410 168" fill="none" xmlns="http://www.w3.org/2000/svg">
<path d="M300.784 56.9783C300.784 56.6693 300.675 56.4333 300.458 56.2683C300.239 56.1033 299.849 55.9293 299.282 55.7473C298.718 55.5623 298.268 55.3833 297.938 55.2063C297.04 54.7203 296.59 54.0643 296.59 53.2413C296.59 52.8133 296.709 52.4323 296.951 52.0963C297.191 51.7603 297.537 51.4993 297.99 51.3103C298.441 51.1223 298.947 51.0273 299.511 51.0273C300.075 51.0273 300.579 51.1303 301.023 51.3353C301.464 51.5413 301.808 51.8293 302.054 52.2033C302.298 52.5773 302.419 53.0013 302.419 53.4753H300.788C300.788 53.1123 300.673 52.8303 300.444 52.6293C300.215 52.4283 299.895 52.3273 299.481 52.3273C299.083 52.3273 298.772 52.4113 298.553 52.5803C298.33 52.7493 298.219 52.9713 298.219 53.2473C298.219 53.5033 298.348 53.7203 298.61 53.8933C298.868 54.0673 299.251 54.2303 299.755 54.3823C300.683 54.6613 301.359 55.0083 301.782 55.4213C302.208 55.8343 302.419 56.3503 302.419 56.9663C302.419 57.6513 302.161 58.1893 301.642 58.5793C301.122 58.9693 300.425 59.1643 299.548 59.1643C298.939 59.1643 298.384 59.0523 297.882 58.8293C297.382 58.6053 297.001 58.3013 296.737 57.9133C296.475 57.5243 296.344 57.0753 296.344 56.5623H297.981C297.981 57.4373 298.502 57.8743 299.547 57.8743C299.936 57.8743 300.236 57.7963 300.455 57.6383C300.675 57.4813 300.784 57.2623 300.784 56.9783Z" fill="white"/>
<path d="M303.177 56.0595C303.177 55.4775 303.29 54.9555 303.515 54.4985C303.74 54.0415 304.064 53.6885 304.486 53.4375C304.91 53.1875 305.4 53.0625 305.959 53.0625C306.752 53.0625 307.4 53.3045 307.902 53.7915C308.404 54.2765 308.685 54.9375 308.744 55.7715L308.754 56.1725C308.754 57.0765 308.502 57.8005 307.998 58.3465C307.494 58.8915 306.818 59.1655 305.969 59.1655C305.121 59.1655 304.444 58.8945 303.94 58.3485C303.432 57.8045 303.178 57.0665 303.178 56.1295V56.0595H303.177ZM304.749 56.1715C304.749 56.7315 304.854 57.1585 305.065 57.4545C305.274 57.7505 305.577 57.8985 305.967 57.8985C306.348 57.8985 306.645 57.7525 306.86 57.4605C307.075 57.1675 307.18 56.7005 307.18 56.0575C307.18 55.5085 307.075 55.0835 306.86 54.7825C306.645 54.4815 306.346 54.3315 305.958 54.3315C305.573 54.3315 305.274 54.4805 305.065 54.7805C304.855 55.0795 304.749 55.5435 304.749 56.1715Z" fill="white"/>
<path d="M310.15 59.0579V54.3259H309.275V53.1729H310.15V52.6729C310.15 52.0129 310.338 51.4999 310.718 51.1359C311.097 50.7709 311.626 50.5889 312.31 50.5889C312.527 50.5889 312.794 50.6249 313.109 50.6969L313.093 51.9159C312.962 51.8839 312.802 51.8679 312.614 51.8679C312.022 51.8679 311.727 52.1439 311.727 52.6999V53.1729H312.897V54.3259H311.727V59.0579H310.15Z" fill="white"/>
<path d="M315.957 51.7246V53.1716H316.963V54.3246H315.957V57.2626C315.957 57.4796 315.998 57.6366 316.082 57.7296C316.166 57.8256 316.324 57.8726 316.562 57.8726C316.734 57.8726 316.89 57.8586 317.023 57.8346V59.0246C316.714 59.1206 316.398 59.1676 316.072 59.1676C314.968 59.1676 314.406 58.6096 314.384 57.4966V54.3256H313.525V53.1726H314.384V51.7256H315.957V51.7246Z" fill="white"/>
<path d="M323.35 56.9199L324.121 53.1719H325.641L324.139 59.0579H322.822L321.707 55.3539L320.592 59.0579H319.281L317.779 53.1719H319.297L320.064 56.9149L321.141 53.1719H322.279L323.35 56.9199Z" fill="white"/>
<path d="M329.829 59.0575C329.757 58.9155 329.704 58.7405 329.673 58.5305C329.292 58.9545 328.796 59.1675 328.187 59.1675C327.611 59.1675 327.132 59.0005 326.753 58.6665C326.374 58.3335 326.185 57.9115 326.185 57.4045C326.185 56.7805 326.415 56.3005 326.88 55.9675C327.341 55.6335 328.009 55.4655 328.884 55.4615H329.607V55.1245C329.607 54.8535 329.539 54.6345 329.398 54.4715C329.257 54.3085 329.039 54.2265 328.738 54.2265C328.472 54.2265 328.265 54.2905 328.113 54.4175C327.965 54.5435 327.888 54.7175 327.888 54.9395H326.316C326.316 54.5975 326.421 54.2825 326.632 53.9925C326.841 53.7025 327.14 53.4735 327.523 53.3105C327.908 53.1455 328.339 53.0625 328.818 53.0625C329.545 53.0625 330.121 53.2445 330.547 53.6095C330.973 53.9725 331.186 54.4855 331.186 55.1465V57.6975C331.19 58.2555 331.268 58.6765 331.42 58.9645V59.0575H329.829ZM328.53 57.9635C328.76 57.9635 328.975 57.9125 329.171 57.8085C329.368 57.7055 329.513 57.5675 329.607 57.3925V56.3805H329.019C328.234 56.3805 327.814 56.6525 327.763 57.1965L327.757 57.2895C327.757 57.4845 327.825 57.6465 327.964 57.7735C328.103 57.9005 328.29 57.9635 328.53 57.9635Z" fill="white"/>
<path d="M335.838 54.6455C335.623 54.6165 335.436 54.6025 335.272 54.6025C334.678 54.6025 334.288 54.8025 334.104 55.2055V59.0585H332.532V53.1715H334.016L334.059 53.8735C334.375 53.3325 334.813 53.0625 335.37 53.0625C335.546 53.0625 335.708 53.0845 335.86 53.1325L335.838 54.6455Z" fill="white"/>
<path d="M339.179 59.1665C338.316 59.1665 337.613 58.9005 337.072 58.3725C336.529 57.8425 336.258 57.1375 336.258 56.2555V56.1035C336.258 55.5125 336.373 54.9845 336.602 54.5175C336.831 54.0515 337.153 53.6925 337.573 53.4405C337.991 53.1885 338.469 53.0625 339.007 53.0625C339.812 53.0625 340.446 53.3165 340.907 53.8255C341.37 54.3325 341.6 55.0535 341.6 55.9835V56.6265H337.852C337.905 57.0115 338.057 57.3185 338.315 57.5515C338.567 57.7845 338.891 57.8995 339.284 57.8995C339.889 57.8995 340.364 57.6805 340.704 57.2425L341.475 58.1065C341.241 58.4395 340.92 58.7015 340.518 58.8875C340.114 59.0715 339.669 59.1665 339.179 59.1665ZM338.999 54.3305C338.688 54.3305 338.435 54.4345 338.239 54.6465C338.046 54.8575 337.923 55.1615 337.868 55.5535H340.054V55.4275C340.048 55.0775 339.954 54.8075 339.773 54.6165C339.591 54.4265 339.333 54.3305 338.999 54.3305Z" fill="white"/>
<path d="M297.013 72.4269V64.5059H299.451C300.148 64.5059 300.769 64.6629 301.32 64.9769C301.869 65.2909 302.299 65.7379 302.605 66.3149C302.914 66.8929 303.068 67.5509 303.068 68.2879V68.6519C303.068 69.3879 302.918 70.0429 302.615 70.6159C302.31 71.1879 301.885 71.6339 301.334 71.9489C300.781 72.2639 300.16 72.4239 299.467 72.4279L297.013 72.4269ZM298.646 65.8279V71.1159H299.435C300.074 71.1159 300.56 70.9079 300.898 70.4899C301.236 70.0729 301.408 69.4759 301.414 68.7009V68.2819C301.414 67.4749 301.25 66.8659 300.914 66.4509C300.58 66.0359 300.094 65.8279 299.451 65.8279H298.646Z" fill="white"/>
<path d="M306.857 72.5346C305.996 72.5346 305.293 72.2696 304.75 71.7406C304.209 71.2106 303.938 70.5056 303.938 69.6246V69.4726C303.938 68.8806 304.05 68.3536 304.279 67.8866C304.508 67.4196 304.833 67.0616 305.253 66.8096C305.671 66.5586 306.148 66.4316 306.684 66.4316C307.491 66.4316 308.124 66.6856 308.585 67.1936C309.05 67.7006 309.279 68.4216 309.279 69.3536V69.9946H305.531C305.582 70.3796 305.734 70.6876 305.99 70.9196C306.246 71.1526 306.57 71.2686 306.961 71.2686C307.568 71.2686 308.042 71.0496 308.382 70.6106L309.154 71.4756C308.918 71.8086 308.599 72.0696 308.197 72.2556C307.793 72.4406 307.348 72.5346 306.857 72.5346ZM306.68 67.6986C306.367 67.6986 306.115 67.8036 305.921 68.0156C305.728 68.2266 305.602 68.5296 305.547 68.9226H307.735V68.7956C307.727 68.4466 307.633 68.1766 307.452 67.9846C307.271 67.7926 307.014 67.6986 306.68 67.6986Z" fill="white"/>
<path d="M312.57 70.5119L313.664 66.5459H315.307L313.32 72.4319H311.82L309.834 66.5459H311.477L312.57 70.5119Z" fill="white"/>
<path d="M318.568 72.5346C317.705 72.5346 317.002 72.2696 316.461 71.7406C315.918 71.2106 315.647 70.5056 315.647 69.6246V69.4726C315.647 68.8806 315.76 68.3536 315.989 67.8866C316.218 67.4196 316.542 67.0616 316.962 66.8096C317.38 66.5586 317.858 66.4316 318.394 66.4316C319.201 66.4316 319.833 66.6856 320.296 67.1936C320.759 67.7006 320.989 68.4216 320.989 69.3536V69.9946H317.241C317.292 70.3796 317.444 70.6876 317.702 70.9196C317.956 71.1526 318.28 71.2686 318.671 71.2686C319.278 71.2686 319.751 71.0496 320.091 70.6106L320.864 71.4756C320.628 71.8086 320.309 72.0696 319.907 72.2556C319.505 72.4416 319.057 72.5346 318.568 72.5346ZM318.389 67.6986C318.076 67.6986 317.825 67.8036 317.629 68.0156C317.436 68.2266 317.311 68.5296 317.256 68.9226H319.444V68.7956C319.436 68.4466 319.342 68.1766 319.161 67.9846C318.98 67.7926 318.723 67.6986 318.389 67.6986Z" fill="white"/>
<path d="M323.539 64.0703H321.961V72.4253H323.539V64.0703Z" fill="white"/>
<path d="M324.591 69.4297C324.591 68.8457 324.702 68.3257 324.927 67.8677C325.154 67.4107 325.476 67.0567 325.898 66.8067C326.322 66.5557 326.812 66.4307 327.371 66.4307C328.166 66.4307 328.814 66.6737 329.314 67.1597C329.818 67.6447 330.097 68.3057 330.156 69.1387L330.168 69.5417C330.168 70.4437 329.914 71.1687 329.41 71.7147C328.906 72.2607 328.23 72.5337 327.381 72.5337C326.533 72.5337 325.856 72.2617 325.352 71.7177C324.844 71.1737 324.592 70.4337 324.592 69.4977V69.4297H324.591ZM326.163 69.5407C326.163 70.0997 326.268 70.5267 326.477 70.8237C326.688 71.1197 326.989 71.2667 327.379 71.2667C327.76 71.2667 328.059 71.1207 328.272 70.8287C328.487 70.5357 328.594 70.0677 328.594 69.4257C328.594 68.8767 328.487 68.4517 328.272 68.1507C328.059 67.8487 327.758 67.6997 327.37 67.6997C326.985 67.6997 326.688 67.8477 326.477 68.1477C326.269 68.4487 326.163 68.9127 326.163 69.5407Z" fill="white"/>
<path d="M336.103 69.5367C336.103 70.4437 335.898 71.1717 335.486 71.7167C335.074 72.2627 334.519 72.5347 333.818 72.5347C333.224 72.5347 332.744 72.3277 332.377 71.9157V74.6887H330.805V66.5407H332.264L332.319 67.1167C332.7 66.6597 333.196 66.4307 333.809 66.4307C334.534 66.4307 335.098 66.6987 335.5 67.2357C335.902 67.7727 336.104 68.5127 336.104 69.4567V69.5367H336.103ZM334.53 69.4237C334.53 68.8767 334.434 68.4527 334.239 68.1557C334.046 67.8577 333.764 67.7107 333.393 67.7107C332.901 67.7107 332.561 67.8987 332.375 68.2757V70.6847C332.568 71.0727 332.91 71.2667 333.404 71.2667C334.155 71.2677 334.53 70.6517 334.53 69.4237Z" fill="white"/>
<path d="M338.602 66.5407L338.651 67.1987C339.067 66.6867 339.631 66.4307 340.342 66.4307C341.1 66.4307 341.621 66.7297 341.903 67.3287C342.317 66.7287 342.907 66.4307 343.673 66.4307C344.312 66.4307 344.784 66.6177 345.097 66.9897C345.41 67.3597 345.566 67.9207 345.566 68.6677V72.4267H343.988V68.6727C343.988 68.3397 343.924 68.0957 343.793 67.9417C343.662 67.7887 343.432 67.7107 343.102 67.7107C342.631 67.7107 342.305 67.9357 342.123 68.3857L342.129 72.4277H340.557V68.6797C340.557 68.3387 340.489 68.0917 340.356 67.9397C340.221 67.7887 339.993 67.7107 339.67 67.7107C339.223 67.7107 338.9 67.8957 338.701 68.2657V72.4277H337.129V66.5417L338.602 66.5407Z" fill="white"/>
<path d="M349.388 72.5346C348.525 72.5346 347.822 72.2696 347.281 71.7406C346.738 71.2106 346.467 70.5056 346.467 69.6246V69.4726C346.467 68.8806 346.582 68.3536 346.811 67.8866C347.04 67.4196 347.362 67.0616 347.782 66.8096C348.2 66.5586 348.678 66.4316 349.216 66.4316C350.021 66.4316 350.655 66.6856 351.116 67.1936C351.579 67.7006 351.809 68.4216 351.809 69.3536V69.9946H348.063C348.112 70.3796 348.264 70.6876 348.522 70.9196C348.776 71.1526 349.1 71.2686 349.493 71.2686C350.098 71.2686 350.571 71.0496 350.913 70.6106L351.684 71.4756C351.448 71.8086 351.129 72.0696 350.727 72.2556C350.325 72.4416 349.878 72.5346 349.388 72.5346ZM349.208 67.6986C348.895 67.6986 348.644 67.8036 348.448 68.0156C348.255 68.2266 348.132 68.5296 348.077 68.9226H350.263V68.7956C350.255 68.4466 350.163 68.1766 349.98 67.9846C349.798 67.7946 349.542 67.6986 349.208 67.6986Z" fill="white"/>
<path d="M354.321 66.5406L354.37 67.2206C354.792 66.6946 355.354 66.4316 356.061 66.4316C356.684 66.4316 357.149 66.6166 357.454 66.9806C357.759 67.3476 357.915 67.8946 357.923 68.6246V72.4276H356.351V68.6636C356.351 68.3296 356.279 68.0876 356.134 67.9356C355.988 67.7866 355.747 67.7096 355.409 67.7096C354.966 67.7096 354.634 67.8976 354.413 68.2746V72.4256H352.841V66.5396L354.321 66.5406Z" fill="white"/>
<path d="M360.994 65.0938V66.5397H362.003V67.6937H360.994V70.6318C360.994 70.8488 361.037 71.0057 361.121 71.0997C361.203 71.1937 361.363 71.2407 361.6 71.2407C361.774 71.2407 361.928 71.2288 362.061 71.2028V72.3937C361.754 72.4887 361.436 72.5358 361.11 72.5358C360.008 72.5358 359.446 71.9787 359.424 70.8657V67.6947H358.563V66.5397H359.424V65.0938H360.994Z" fill="white"/>
<path d="M302.112 84.163H299.251L298.706 85.796H296.972L299.921 77.875H301.431L304.396 85.796H302.662L302.112 84.163ZM299.69 82.842H301.67L300.674 79.876L299.69 82.842Z" fill="white"/>
<path d="M308.219 84.1688C308.219 83.9768 308.125 83.8238 307.934 83.7148C307.745 83.6048 307.438 83.5048 307.018 83.4188C305.618 83.1248 304.918 82.5288 304.918 81.6338C304.918 81.1118 305.135 80.6758 305.568 80.3248C306 79.9748 306.568 79.8008 307.267 79.8008C308.015 79.8008 308.611 79.9768 309.06 80.3288C309.507 80.6808 309.732 81.1378 309.732 81.6988H308.16C308.16 81.4738 308.086 81.2888 307.941 81.1408C307.796 80.9948 307.57 80.9198 307.261 80.9198C306.997 80.9198 306.79 80.9798 306.646 81.0998C306.502 81.2198 306.429 81.3718 306.429 81.5568C306.429 81.7308 306.511 81.8718 306.677 81.9788C306.841 82.0858 307.12 82.1778 307.511 82.2558C307.904 82.3338 308.234 82.4218 308.501 82.5198C309.331 82.8248 309.747 83.3518 309.747 84.1028C309.747 84.6398 309.517 85.0738 309.056 85.4058C308.597 85.7368 308.001 85.9028 307.273 85.9028C306.779 85.9028 306.341 85.8148 305.959 85.6398C305.576 85.4638 305.277 85.2218 305.059 84.9158C304.842 84.6088 304.733 84.2778 304.733 83.9228H306.223C306.237 84.2028 306.34 84.4168 306.534 84.5648C306.725 84.7138 306.983 84.7888 307.305 84.7888C307.608 84.7888 307.834 84.7308 307.989 84.6168C308.143 84.5038 308.219 84.3538 308.219 84.1688Z" fill="white"/>
<path d="M313.947 84.1688C313.947 83.9768 313.853 83.8238 313.662 83.7148C313.473 83.6048 313.166 83.5048 312.746 83.4188C311.346 83.1248 310.644 82.5288 310.644 81.6338C310.644 81.1118 310.861 80.6758 311.296 80.3248C311.728 79.9748 312.294 79.8008 312.995 79.8008C313.741 79.8008 314.339 79.9768 314.788 80.3288C315.235 80.6808 315.458 81.1378 315.458 81.6988H313.886C313.886 81.4738 313.814 81.2888 313.669 81.1408C313.524 80.9948 313.298 80.9198 312.989 80.9198C312.725 80.9198 312.518 80.9798 312.374 81.0998C312.23 81.2198 312.157 81.3718 312.157 81.5568C312.157 81.7308 312.239 81.8718 312.405 81.9788C312.569 82.0858 312.846 82.1778 313.239 82.2558C313.632 82.3338 313.96 82.4218 314.229 82.5198C315.059 82.8248 315.475 83.3518 315.475 84.1028C315.475 84.6398 315.245 85.0738 314.784 85.4058C314.323 85.7368 313.729 85.9028 312.999 85.9028C312.507 85.9028 312.069 85.8148 311.686 85.6398C311.303 85.4638 311.002 85.2218 310.786 84.9158C310.567 84.6088 310.46 84.2778 310.46 83.9228H311.95C311.964 84.2028 312.067 84.4168 312.261 84.5648C312.452 84.7138 312.71 84.7888 313.032 84.7888C313.333 84.7888 313.561 84.7308 313.714 84.6168C313.871 84.5038 313.947 84.3538 313.947 84.1688Z" fill="white"/>
<path d="M316.189 82.7988C316.189 82.2148 316.3 81.6938 316.525 81.2368C316.752 80.7798 317.074 80.4258 317.496 80.1758C317.92 79.9258 318.41 79.7998 318.969 79.7998C319.762 79.7998 320.41 80.0418 320.912 80.5288C321.416 81.0148 321.695 81.6758 321.754 82.5088L321.764 82.9108C321.764 83.8138 321.512 84.5378 321.008 85.0838C320.504 85.6308 319.828 85.9028 318.979 85.9028C318.131 85.9028 317.454 85.6318 316.95 85.0868C316.442 84.5428 316.19 83.8038 316.19 82.8668V82.7988H316.189ZM317.76 82.9088C317.76 83.4698 317.867 83.8958 318.076 84.1918C318.287 84.4878 318.588 84.6358 318.978 84.6358C319.359 84.6358 319.656 84.4898 319.871 84.1978C320.086 83.9048 320.191 83.4378 320.191 82.7948C320.191 82.2458 320.086 81.8208 319.871 81.5208C319.656 81.2208 319.357 81.0688 318.969 81.0688C318.584 81.0688 318.287 81.2188 318.076 81.5178C317.867 81.8168 317.76 82.2808 317.76 82.9088Z" fill="white"/>
<path d="M325.234 84.6368C325.525 84.6368 325.759 84.5568 325.941 84.3978C326.123 84.2388 326.216 84.0258 326.224 83.7618H327.699C327.695 84.1588 327.588 84.5258 327.373 84.8578C327.158 85.1888 326.865 85.4468 326.494 85.6298C326.123 85.8128 325.711 85.9038 325.262 85.9038C324.422 85.9038 323.758 85.6358 323.272 85.1008C322.786 84.5668 322.543 83.8268 322.543 82.8848V82.7808C322.543 81.8728 322.783 81.1498 323.266 80.6098C323.749 80.0698 324.411 79.7988 325.252 79.7988C325.988 79.7988 326.578 80.0088 327.023 80.4268C327.466 80.8458 327.691 81.4038 327.699 82.0998H326.224C326.216 81.7938 326.122 81.5458 325.941 81.3538C325.76 81.1618 325.521 81.0668 325.224 81.0668C324.857 81.0668 324.581 81.1998 324.394 81.4668C324.206 81.7338 324.115 82.1668 324.115 82.7668V82.9298C324.115 83.5348 324.207 83.9728 324.392 84.2378C324.576 84.5048 324.857 84.6368 325.234 84.6368Z" fill="white"/>
<path d="M328.586 78.3872C328.586 78.1512 328.666 77.9562 328.822 77.8052C328.98 77.6532 329.195 77.5762 329.467 77.5762C329.737 77.5762 329.949 77.6532 330.11 77.8052C330.27 77.9562 330.348 78.1512 330.348 78.3872C330.348 78.6252 330.268 78.8222 330.106 78.9742C329.946 79.1262 329.733 79.2032 329.467 79.2032C329.203 79.2032 328.99 79.1272 328.828 78.9742C328.666 78.8212 328.586 78.6252 328.586 78.3872ZM330.256 85.7962H328.678V79.9092H330.256V85.7962Z" fill="white"/>
<path d="M334.842 85.7948C334.77 85.6538 334.717 85.4778 334.684 85.2678C334.303 85.6918 333.809 85.9048 333.2 85.9048C332.624 85.9048 332.145 85.7378 331.766 85.4048C331.387 85.0708 331.198 84.6488 331.198 84.1418C331.198 83.5178 331.428 83.0388 331.891 82.7058C332.352 82.3718 333.02 82.2028 333.895 82.1998H334.62V81.8628C334.62 81.5908 334.55 81.3728 334.409 81.2098C334.27 81.0468 334.05 80.9648 333.749 80.9648C333.485 80.9648 333.276 81.0288 333.126 81.1548C332.976 81.2818 332.901 81.4558 332.901 81.6768H331.329C331.329 81.3348 331.434 81.0198 331.643 80.7298C331.854 80.4398 332.151 80.2118 332.536 80.0468C332.921 79.8828 333.352 79.7998 333.831 79.7998C334.556 79.7998 335.132 79.9818 335.558 80.3468C335.984 80.7108 336.197 81.2228 336.197 81.8828V84.4338C336.201 84.9938 336.279 85.4148 336.431 85.7028V85.7948H334.842ZM333.541 84.7018C333.773 84.7018 333.988 84.6488 334.184 84.5468C334.379 84.4428 334.524 84.3048 334.62 84.1308V83.1188H334.032C333.245 83.1188 332.827 83.3898 332.776 83.9338L332.77 84.0278C332.77 84.2218 332.838 84.3838 332.977 84.5108C333.113 84.6388 333.303 84.7018 333.541 84.7018Z" fill="white"/>
<path d="M339.407 78.4629V79.9089H340.413V81.0619H339.407V83.9999C339.407 84.2169 339.448 84.3729 339.532 84.4669C339.616 84.5619 339.774 84.6089 340.011 84.6089C340.185 84.6089 340.339 84.5959 340.474 84.5709V85.7619C340.165 85.8559 339.847 85.9029 339.521 85.9029C338.419 85.9029 337.857 85.3469 337.835 84.2329V81.0619H336.976V79.9089H337.835V78.4629H339.407Z" fill="white"/>
<path d="M341.461 78.3872C341.461 78.1512 341.541 77.9562 341.697 77.8052C341.857 77.6532 342.07 77.5762 342.343 77.5762C342.611 77.5762 342.823 77.6532 342.984 77.8052C343.144 77.9562 343.224 78.1512 343.224 78.3872C343.224 78.6252 343.144 78.8222 342.982 78.9742C342.82 79.1262 342.607 79.2032 342.343 79.2032C342.077 79.2032 341.864 79.1272 341.704 78.9742C341.543 78.8212 341.461 78.6252 341.461 78.3872ZM343.133 85.7962H341.555V79.9092H343.133V85.7962Z" fill="white"/>
<path d="M344.183 82.7988C344.183 82.2148 344.294 81.6938 344.521 81.2368C344.746 80.7798 345.068 80.4258 345.492 80.1758C345.914 79.9258 346.406 79.7998 346.963 79.7998C347.758 79.7998 348.406 80.0418 348.908 80.5288C349.41 81.0158 349.691 81.6758 349.748 82.5088L349.76 82.9108C349.76 83.8138 349.508 84.5378 349.004 85.0838C348.5 85.6308 347.822 85.9028 346.975 85.9028C346.125 85.9028 345.448 85.6318 344.944 85.0868C344.436 84.5428 344.184 83.8038 344.184 82.8668V82.7988H344.183ZM345.755 82.9088C345.755 83.4698 345.86 83.8958 346.071 84.1918C346.28 84.4878 346.581 84.6358 346.973 84.6358C347.354 84.6358 347.651 84.4898 347.866 84.1978C348.079 83.9048 348.186 83.4378 348.186 82.7948C348.186 82.2458 348.079 81.8208 347.866 81.5208C347.651 81.2198 347.35 81.0688 346.962 81.0688C346.579 81.0688 346.28 81.2188 346.071 81.5178C345.86 81.8168 345.755 82.2808 345.755 82.9088Z" fill="white"/>
<path d="M352.172 79.9088L352.223 80.5898C352.643 80.0638 353.207 79.8008 353.914 79.8008C354.537 79.8008 355.002 79.9848 355.307 80.3508C355.612 80.7168 355.766 81.2638 355.774 81.9928V85.7958H354.202V82.0318C354.202 81.6978 354.13 81.4558 353.985 81.3058C353.84 81.1548 353.598 81.0778 353.26 81.0778C352.819 81.0778 352.487 81.2668 352.266 81.6438V85.7938H350.694V79.9078L352.172 79.9088Z" fill="white"/>
<path d="M297.64 98.1667V101.393H296.972V93.4717H299.669C300.493 93.4717 301.142 93.6827 301.618 94.1027C302.097 94.5237 302.335 95.1017 302.335 95.8377C302.335 96.5817 302.105 97.1557 301.647 97.5597C301.188 97.9637 300.522 98.1667 299.653 98.1667H297.64ZM297.64 97.6007H299.669C300.319 97.6007 300.814 97.4467 301.153 97.1377C301.492 96.8287 301.665 96.3987 301.665 95.8467C301.665 95.2977 301.495 94.8607 301.157 94.5357C300.817 94.2107 300.335 94.0447 299.712 94.0377H297.64V97.6007Z" fill="white"/>
<path d="M303.248 98.3615C303.248 97.7965 303.357 97.2865 303.576 96.8335C303.795 96.3805 304.105 96.0265 304.508 95.7745C304.908 95.5225 305.362 95.3965 305.869 95.3965C306.652 95.3965 307.287 95.6715 307.773 96.2205C308.259 96.7695 308.502 97.4985 308.502 98.4045V98.5415C308.502 99.1105 308.393 99.6235 308.174 100.078C307.953 100.532 307.645 100.884 307.246 101.13C306.846 101.377 306.391 101.5 305.879 101.5C305.1 101.5 304.467 101.226 303.979 100.676C303.491 100.127 303.249 99.3995 303.249 98.4925V98.3615H303.248ZM303.9 98.5415C303.9 99.2455 304.082 99.8215 304.445 100.273C304.812 100.724 305.289 100.951 305.879 100.951C306.467 100.951 306.943 100.724 307.307 100.273C307.674 99.8215 307.856 99.2265 307.856 98.4865V98.3615C307.856 97.9125 307.772 97.5005 307.606 97.1275C307.438 96.7535 307.206 96.4645 306.903 96.2595C306.602 96.0545 306.258 95.9525 305.87 95.9525C305.29 95.9525 304.817 96.1795 304.45 96.6345C304.083 97.0905 303.901 97.6865 303.901 98.4215V98.5415H303.9Z" fill="white"/>
<path d="M310.575 93.0371H309.925V101.392H310.575V93.0371Z" fill="white"/>
<path d="M316.059 101.392C315.993 101.206 315.952 100.933 315.934 100.57C315.705 100.868 315.413 101.097 315.061 101.258C314.706 101.42 314.332 101.5 313.938 101.5C313.372 101.5 312.913 101.343 312.563 101.027C312.213 100.711 312.038 100.312 312.038 99.8305C312.038 99.2585 312.276 98.8045 312.755 98.4705C313.232 98.1375 313.896 97.9705 314.747 97.9705H315.929V97.3015C315.929 96.8815 315.8 96.5495 315.54 96.3085C315.28 96.0685 314.903 95.9465 314.405 95.9465C313.95 95.9465 313.575 96.0625 313.278 96.2965C312.981 96.5275 312.833 96.8075 312.833 97.1335L312.181 97.1275C312.181 96.6595 312.398 96.2555 312.833 95.9115C313.269 95.5695 313.804 95.3975 314.438 95.3975C315.094 95.3975 315.612 95.5615 315.991 95.8895C316.37 96.2175 316.565 96.6755 316.575 97.2635V100.048C316.575 100.617 316.636 101.044 316.755 101.325V101.391L316.059 101.392ZM314.012 100.924C314.448 100.924 314.836 100.819 315.18 100.609C315.522 100.398 315.772 100.117 315.928 99.7655V98.4705H314.764C314.114 98.4785 313.608 98.5975 313.241 98.8265C312.874 99.0565 312.692 99.3735 312.692 99.7755C312.692 100.105 312.813 100.379 313.059 100.596C313.303 100.814 313.621 100.924 314.012 100.924Z" fill="white"/>
<path d="M318.93 95.5065L318.951 96.5125C319.174 96.1505 319.449 95.8725 319.779 95.6835C320.109 95.4925 320.472 95.3975 320.873 95.3975C321.504 95.3975 321.973 95.5755 322.281 95.9305C322.59 96.2845 322.746 96.8185 322.748 97.5295V101.392H322.102V97.5245C322.098 96.9985 321.987 96.6075 321.768 96.3495C321.549 96.0925 321.198 95.9635 320.715 95.9635C320.313 95.9635 319.955 96.0895 319.647 96.3415C319.336 96.5935 319.108 96.9335 318.958 97.3615V101.392H318.312V95.5065H318.93Z" fill="white"/>
<path d="M324.168 98.3951C324.168 97.4821 324.373 96.7531 324.779 96.2111C325.189 95.6691 325.742 95.3981 326.443 95.3981C327.236 95.3981 327.843 95.7111 328.259 96.3381V93.0361H328.905V101.39H328.296L328.269 100.608C327.853 101.202 327.24 101.5 326.431 101.5C325.753 101.5 325.206 101.227 324.79 100.681C324.376 100.136 324.167 99.4001 324.167 98.4701V98.3951H324.168ZM324.826 98.5091C324.826 99.2601 324.976 99.8521 325.279 100.285C325.58 100.719 326.004 100.934 326.55 100.934C327.353 100.934 327.921 100.581 328.259 99.8741V97.1101C327.921 96.3441 327.357 95.9631 326.562 95.9631C326.015 95.9631 325.587 96.1771 325.283 96.6081C324.979 97.0381 324.826 97.6721 324.826 98.5091Z" fill="white"/>
<path d="M73.5464 118.217C70.5484 118.217 67.6474 117.798 64.8384 116.963C62.0284 116.127 59.4594 114.921 57.1244 113.343C54.7894 111.765 52.8014 109.706 51.1614 107.167C49.5194 104.626 48.4474 101.764 47.9414 98.5767L59.8694 95.5477C60.2784 99.5237 61.7544 102.521 64.2944 104.539C66.8334 106.558 69.9814 107.568 73.7344 107.568C77.2064 107.568 79.9124 106.763 81.8514 105.155C83.7924 103.546 84.7614 101.509 84.7614 99.0497C84.7614 97.4097 84.2954 95.9347 83.3654 94.6247C82.4354 93.3157 81.2134 92.2427 79.6974 91.4057C78.1834 90.5707 76.4564 89.7257 74.5154 88.8747C72.5744 88.0227 70.5944 87.2347 68.5774 86.5087C66.5584 85.7827 64.5784 84.8677 62.6374 83.7627C60.6974 82.6587 58.9694 81.4527 57.4554 80.1427C55.9404 78.8337 54.7184 77.1377 53.7884 75.0547C52.8574 72.9727 52.3914 70.6377 52.3914 68.0507C52.3914 64.2347 53.3544 60.9047 55.2794 58.0667C57.2034 55.2257 59.7284 53.1037 62.8514 51.7007C65.9754 50.2977 69.4444 49.5947 73.2624 49.5947C77.5524 49.5947 81.4654 50.5667 84.9994 52.5057C88.5314 54.4467 91.4044 57.3877 93.6134 61.3317L83.6274 67.4357C82.4594 65.1647 80.9294 63.4067 79.0364 62.1597C77.1424 60.9137 75.0764 60.2907 72.8364 60.2907C70.4384 60.2907 68.4364 60.9527 66.8264 62.2787C65.2164 63.6027 64.4124 65.3227 64.4124 67.4357C64.4124 68.7607 64.7824 69.9677 65.5244 71.0557C66.2654 72.1447 67.2584 73.0687 68.5044 73.8257C69.7514 74.5827 71.1874 75.3077 72.8124 76.0027C74.4374 76.6977 76.1404 77.3837 77.9234 78.0617C79.7054 78.7407 81.4874 79.4657 83.2714 80.2397C85.0534 81.0117 86.7574 81.9347 88.3824 83.0087C90.0074 84.0807 91.4434 85.2797 92.6914 86.6047C93.9354 87.9297 94.9294 89.5627 95.6714 91.5027C96.4114 93.4437 96.7824 95.5967 96.7824 97.9637C96.7824 102.065 95.7334 105.669 93.6364 108.778C91.5384 111.884 88.7384 114.236 85.2344 115.829C81.7344 117.421 77.8374 118.217 73.5464 118.217Z" fill="white"/>
<path d="M136.943 116.419C133.882 117.744 130.57 118.406 127.004 118.406C123.44 118.406 120.127 117.744 117.066 116.419C114.003 115.093 111.441 113.311 109.375 111.072C107.309 108.831 105.689 106.213 104.523 103.214C103.355 100.218 102.771 97.0465 102.771 93.7015C102.771 89.2535 103.757 85.1755 105.73 81.4675C107.703 77.7605 110.558 74.7875 114.296 72.5465C118.036 70.3065 122.271 69.1865 127.003 69.1865C131.737 69.1865 135.974 70.3065 139.712 72.5465C143.45 74.7875 146.306 77.7605 148.278 81.4675C150.249 85.1755 151.235 89.2535 151.235 93.7015C151.235 97.0465 150.651 100.218 149.485 103.214C148.317 106.213 146.7 108.831 144.633 111.072C142.568 113.311 140.004 115.093 136.943 116.419ZM127.004 108.468C131.106 108.468 134.168 107.072 136.188 104.28C138.206 101.489 139.215 97.9625 139.215 93.7025C139.215 90.9895 138.82 88.5755 138.031 86.4615C137.242 84.3485 135.91 82.6045 134.033 81.2325C132.154 79.8595 129.812 79.1725 127.004 79.1725C122.902 79.1725 119.842 80.5375 117.822 83.2655C115.802 85.9955 114.793 89.4735 114.793 93.7025C114.793 96.4165 115.189 98.8455 115.977 100.991C116.766 103.137 118.108 104.919 120 106.339C121.892 107.759 124.229 108.468 127.004 108.468Z" fill="white"/>
<path d="M159.017 117.459V50.5879H178.421C189.747 50.5879 198.376 53.5149 204.31 59.3669C210.242 65.2209 213.206 73.6039 213.206 84.5199C213.206 94.9959 210.192 103.104 204.167 108.846C198.14 114.587 189.528 117.458 178.327 117.458H159.017V117.459ZM171.038 106.433H177.143C180.959 106.433 184.295 106.038 187.153 105.249C190.008 104.46 192.508 103.206 194.653 101.487C196.799 99.7669 198.424 97.4489 199.528 94.5299C200.633 91.6119 201.186 88.1009 201.186 83.9999C201.186 76.0499 199.411 70.3309 195.862 66.8459C192.309 63.3589 186.434 61.6159 178.231 61.6159H171.038V106.433Z" fill="white"/>
<path d="M251.147 50.5879H238.919L211.937 117.46H224.165L245.034 65.7389L265.903 117.46H277.019H278.132L251.147 50.5879Z" fill="white"/>
<path d="M247.176 101.489L240.736 117.448H252.965L259.404 101.489H247.176Z" fill="white"/>
</svg>
