<svg xmlns="http://www.w3.org/2000/svg" xmlns:xlink="http://www.w3.org/1999/xlink" width="526" height="492" viewBox="0 0 526 492">
  <defs>
    <clipPath id="clip-mapa">
      <rect width="526" height="492"/>
    </clipPath>
  </defs>
  <g id="mapa" clip-path="url(#clip-mapa)">
    <g id="mapa-2" data-name="mapa" transform="translate(-1 7.5)">
      <path id="Path_1" data-name="Path 1" d="M85.5,228.616v-10.86h4.515a3.179,3.179,0,0,1,1.675.45,3.354,3.354,0,0,1,1.21,1.226,3.4,3.4,0,0,1,.45,1.738,3.437,3.437,0,0,1-1.66,3.01,3.1,3.1,0,0,1-1.675.465h-2.5v3.972Zm2.017-5.833h2.358a1.191,1.191,0,0,0,.7-.217,1.525,1.525,0,0,0,.512-.574,1.61,1.61,0,0,0,.2-.807,1.527,1.527,0,0,0-.2-.791,1.411,1.411,0,0,0-.512-.559,1.191,1.191,0,0,0-.7-.217H87.521Zm10.9,5.988a4.375,4.375,0,0,1-2.187-.543,4.126,4.126,0,0,1-1.52-1.52,4.563,4.563,0,0,1,0-4.375,4.008,4.008,0,0,1,1.52-1.5,4.533,4.533,0,0,1,4.36,0,3.9,3.9,0,0,1,1.5,1.5,4.563,4.563,0,0,1,0,4.375,4.017,4.017,0,0,1-1.5,1.52A4.347,4.347,0,0,1,98.424,228.772Zm0-1.691a2.076,2.076,0,0,0,1.179-.341,2.352,2.352,0,0,0,.822-.915,2.589,2.589,0,0,0,.295-1.3,2.622,2.622,0,0,0-.295-1.319,2.237,2.237,0,0,0-.822-.9,2.076,2.076,0,0,0-1.179-.341,2.235,2.235,0,0,0-2.032,1.257,3.028,3.028,0,0,0,0,2.606,2.345,2.345,0,0,0,.822.915A2.225,2.225,0,0,0,98.424,227.081Zm5.139,1.536v-1.365l4.266-5.616v.4h-4.266v-1.6h6.252v1.365l-4.142,5.507-.062-.295h4.313v1.6Zm7.894,0v-8.176h1.862l.031,1.676-.357.186a2.282,2.282,0,0,1,.605-1.008,3.421,3.421,0,0,1,1.07-.745,3.072,3.072,0,0,1,1.272-.279,2.972,2.972,0,0,1,1.551.372,2.25,2.25,0,0,1,.946,1.117,4.655,4.655,0,0,1,.326,1.862v5h-1.908v-4.856a2.649,2.649,0,0,0-.171-1.024,1.134,1.134,0,0,0-.527-.605,1.63,1.63,0,0,0-.869-.186,2.109,2.109,0,0,0-.776.14,1.727,1.727,0,0,0-.605.372,1.91,1.91,0,0,0-.4.543,1.643,1.643,0,0,0-.14.683v4.933h-1.908Zm12.231.155a3.186,3.186,0,0,1-1.831-.559,4.032,4.032,0,0,1-1.319-1.52,5.067,5.067,0,0,1,0-4.375,3.809,3.809,0,0,1,1.35-1.5,3.511,3.511,0,0,1,1.924-.543,3.292,3.292,0,0,1,1.132.186,2.718,2.718,0,0,1,.9.5,2.9,2.9,0,0,1,.636.745,2.608,2.608,0,0,1,.357.9l-.419-.109v-2.048h1.924v8.176H126.4v-1.955l.45-.078a2.426,2.426,0,0,1-.4.822,3.039,3.039,0,0,1-.714.7,3.858,3.858,0,0,1-.946.481A3.2,3.2,0,0,1,123.687,228.772Zm.527-1.691a2.117,2.117,0,0,0,1.97-1.226,2.972,2.972,0,0,0,.295-1.35,2.844,2.844,0,0,0-.295-1.319,2.227,2.227,0,0,0-3.149-.9,2.2,2.2,0,0,0-.776.9,2.979,2.979,0,0,0-.279,1.319,3.115,3.115,0,0,0,.279,1.35,2.2,2.2,0,0,0,.776.9A2.148,2.148,0,0,0,124.215,227.081Zm6.029,1.536v-8.176h1.862l.031,1.676-.357.186a2.264,2.264,0,0,1,.605-1.008,3.42,3.42,0,0,1,1.07-.745,3.068,3.068,0,0,1,1.272-.279,2.972,2.972,0,0,1,1.551.372,2.255,2.255,0,0,1,.946,1.117,4.655,4.655,0,0,1,.326,1.862v5h-1.908v-4.856a2.649,2.649,0,0,0-.171-1.024,1.138,1.138,0,0,0-.527-.605,1.632,1.632,0,0,0-.869-.186,2.109,2.109,0,0,0-.776.14,1.727,1.727,0,0,0-.605.372,1.893,1.893,0,0,0-.4.543,1.643,1.643,0,0,0-.14.683v4.933h-1.908Zm2.948-9.308-.605-.915,2.42-2.017,1.055,1.381Z" transform="translate(-2.568 -6.499)" fill="#56ff8f"/>
      <path id="Path_2" data-name="Path 2" d="M77.654,303.64l-3.382-10.86h2.11l1.924,6.407q.093.3.171.652c.052.238.1.476.14.714s.078.439.109.636.062.362.093.5l-.419-.016q.186-.729.295-1.179t.186-.745c.062-.207.124-.4.186-.574l1.831-4.685h1.722l1.784,4.685q.155.435.279.838a7.139,7.139,0,0,1,.2.776q.093.372.171.776l-.372.078q.062-.372.093-.605t.062-.419c.021-.124.041-.243.062-.357s.052-.269.093-.434.114-.4.186-.667l1.908-6.376h2.094l-3.4,10.86H84.325l-2.761-6.609.186.062-2.622,6.547Zm12.554,0v-8.176h1.877l.031,2.606-.264-.59a2.9,2.9,0,0,1,.59-1.117,3.126,3.126,0,0,1,.962-.776,2.457,2.457,0,0,1,1.164-.295,2.529,2.529,0,0,1,.5.047,2.181,2.181,0,0,1,.4.109l-.512,2.094a1.792,1.792,0,0,0-.419-.155,2.023,2.023,0,0,0-.5-.062,1.956,1.956,0,0,0-1.35.559,1.991,1.991,0,0,0-.419.621,2.034,2.034,0,0,0-.14.776v4.359Zm9.61.155a4.375,4.375,0,0,1-2.187-.543,4.126,4.126,0,0,1-1.52-1.52,4.563,4.563,0,0,1,0-4.375,4.008,4.008,0,0,1,1.52-1.5,4.533,4.533,0,0,1,4.359,0,3.9,3.9,0,0,1,1.5,1.5,4.563,4.563,0,0,1,0,4.375,4.01,4.01,0,0,1-1.5,1.52A4.343,4.343,0,0,1,99.817,303.8Zm0-1.691a2.073,2.073,0,0,0,1.179-.341,2.344,2.344,0,0,0,.822-.915,2.579,2.579,0,0,0,.295-1.3,2.612,2.612,0,0,0-.295-1.319,2.23,2.23,0,0,0-.822-.9,2.073,2.073,0,0,0-1.179-.341,2.235,2.235,0,0,0-2.032,1.257,3.028,3.028,0,0,0,0,2.606,2.344,2.344,0,0,0,.822.915A2.224,2.224,0,0,0,99.817,302.1Zm9.138,1.691a3.885,3.885,0,0,1-2.063-.558,4.007,4.007,0,0,1-1.443-1.52,4.735,4.735,0,0,1,0-4.344,4.007,4.007,0,0,1,1.443-1.52,3.885,3.885,0,0,1,2.063-.559,4.681,4.681,0,0,1,2,.419,3.305,3.305,0,0,1,1.4,1.164l-1.055,1.272a2.635,2.635,0,0,0-.59-.59,3.225,3.225,0,0,0-.76-.419,2.223,2.223,0,0,0-.807-.155,2.254,2.254,0,0,0-1.226.341,2.329,2.329,0,0,0-.838.915,2.892,2.892,0,0,0,0,2.606,2.548,2.548,0,0,0,.869.915,2.228,2.228,0,0,0,1.21.341,2.443,2.443,0,0,0,.776-.124,2.885,2.885,0,0,0,.729-.388,3.248,3.248,0,0,0,.636-.621l1.055,1.288a3.863,3.863,0,0,1-1.458,1.117A4.6,4.6,0,0,1,108.955,303.8Zm4-4.468-.605-1.474,4.034-1.784.636,1.443Zm.745,4.313V292.16h1.908v11.48Zm7.03.155a3.186,3.186,0,0,1-1.831-.558,4.032,4.032,0,0,1-1.319-1.52,5.067,5.067,0,0,1,0-4.375,3.809,3.809,0,0,1,1.35-1.5,3.511,3.511,0,0,1,1.924-.543,3.292,3.292,0,0,1,1.133.186,2.718,2.718,0,0,1,.9.5,2.9,2.9,0,0,1,.636.745,2.607,2.607,0,0,1,.357.9l-.419-.109v-2.048h1.924v8.176h-1.939v-1.955l.45-.078a2.427,2.427,0,0,1-.4.822,3.038,3.038,0,0,1-.714.7,3.859,3.859,0,0,1-.946.481A3.2,3.2,0,0,1,120.733,303.8Zm.527-1.691a2.117,2.117,0,0,0,1.97-1.226,2.972,2.972,0,0,0,.295-1.35,2.844,2.844,0,0,0-.295-1.319,2.227,2.227,0,0,0-3.149-.9,2.2,2.2,0,0,0-.776.9,2.979,2.979,0,0,0-.279,1.319,3.115,3.115,0,0,0,.279,1.35,2.2,2.2,0,0,0,.776.9A2.148,2.148,0,0,0,121.26,302.1Zm7.862,1.536-2.746-8.176,1.955-.016,1.831,5.833-.341-.031,1.986-4.561h1.148l2.032,4.561-.4.047,1.846-5.833h1.955l-2.761,8.176h-1.365l-2.094-4.9.295.031-1.986,4.871Z" transform="translate(-2.227 -8.802)" fill="#56ff8f"/>
      <line id="Line_1" data-name="Line 1" x1="26.861" y2="23.171" transform="translate(340.068 217.562)" fill="none" stroke="#9ff6bd" stroke-width="1"/>
      <path id="Path_3" data-name="Path 3" d="M351.762,252.531l-34.636,28.614" transform="translate(-9.607 -7.598)" fill="none" stroke="#9ff6bd" stroke-width="1"/>
      <line id="Line_2" data-name="Line 2" x1="41.555" y2="30.648" transform="translate(257.341 265.48)" fill="none" stroke="#9ff6bd" stroke-width="1"/>
      <path id="Path_4" data-name="Path 4" d="M308.582,272.975,317.7,282.1" transform="translate(-9.347 -8.219)" fill="none" stroke="#9ff6bd" stroke-width="1"/>
      <path id="Path_5" data-name="Path 5" d="M351.154,247.686l1.352,5.383" transform="translate(-10.641 -7.451)" fill="none" stroke="#9ff6bd" stroke-width="1"/>
      <g id="Group_1" data-name="Group 1" transform="translate(352.969 182.363)">
        <ellipse id="Ellipse_1" data-name="Ellipse 1" cx="30.1" cy="27.871" rx="30.1" ry="27.871" fill="#46ff86"/>
      </g>
      <line id="Line_3" data-name="Line 3" x2="1.91" y2="9.327" transform="translate(370.778 214.111)" fill="none" stroke="#9ff6bd" stroke-width="1"/>
      <line id="Line_4" data-name="Line 4" x2="6.519" y2="5.042" transform="translate(372.501 223.218)" fill="none" stroke="#9ff6bd" stroke-width="1"/>
      <line id="Line_5" data-name="Line 5" x2="4.663" y2="6.779" transform="translate(378.879 228.124)" fill="none" stroke="#9ff6bd" stroke-width="1"/>
      <path id="Path_6" data-name="Path 6" d="M411.168,301.3l-6.095,5.273" transform="translate(-12.279 -9.08)" fill="none" stroke="#9ff6bd" stroke-width="1"/>
      <line id="Line_6" data-name="Line 6" x2="6.719" y2="3.634" transform="translate(383.473 234.953)" fill="none" stroke="#9ff6bd" stroke-width="1"/>
      <line id="Line_7" data-name="Line 7" x1="7.291" y1="20.149" transform="translate(390.404 238.318)" fill="none" stroke="#9ff6bd" stroke-width="1"/>
      <line id="Line_8" data-name="Line 8" x2="1.124" y2="34.555" transform="translate(397.726 257.9)" fill="none" stroke="#9ff6bd" stroke-width="1"/>
      <path id="Path_7" data-name="Path 7" d="M404.98,306.471l5.162,94.157" transform="translate(-12.277 -9.237)" fill="none" stroke="#9ff6bd" stroke-width="1"/>
      <line id="Line_9" data-name="Line 9" x2="3.222" y2="5.642" transform="translate(388.438 202.149)" fill="none" stroke="#9ff6bd" stroke-width="1"/>
      <line id="Line_10" data-name="Line 10" x2="5.3" y2="1.883" transform="translate(391.541 207.712)" fill="none" stroke="#9ff6bd" stroke-width="1"/>
      <line id="Line_11" data-name="Line 11" x2="4.466" y2="3.404" transform="translate(396.701 209.529)" fill="none" stroke="#9ff6bd" stroke-width="1"/>
      <path id="Path_8" data-name="Path 8" d="M436.518,254.353l-2.831,4.716" transform="translate(-13.149 -7.654)" fill="none" stroke="#9ff6bd" stroke-width="1"/>
      <line id="Line_12" data-name="Line 12" x2="5.13" y2="0.928" transform="translate(401.162 212.991)" fill="none" stroke="#9ff6bd" stroke-width="1"/>
      <line id="Line_13" data-name="Line 13" x1="9.013" y1="11.516" transform="translate(406.481 213.415)" fill="none" stroke="#9ff6bd" stroke-width="1"/>
      <line id="Line_14" data-name="Line 14" x2="8.078" y2="22.17" transform="translate(415.469 224.675)" fill="none" stroke="#9ff6bd" stroke-width="1"/>
      <path id="Path_9" data-name="Path 9" d="M433.57,259.063l23.372,59.963" transform="translate(-13.145 -7.797)" fill="none" stroke="#9ff6bd" stroke-width="1"/>
      <line id="Line_15" data-name="Line 15" y1="1.14" x2="36.801" transform="translate(129.159 187.952)" fill="none" stroke="#9ff6bd" stroke-width="1"/>
      <path id="Path_10" data-name="Path 10" d="M170.525,193.552l16.969,7.66" transform="translate(-5.152 -5.806)" fill="none" stroke="#9ff6bd" stroke-width="1"/>
      <line id="Line_16" data-name="Line 16" y1="0.3" x2="48.628" transform="translate(182.156 195.308)" fill="none" stroke="#9ff6bd" stroke-width="1"/>
      <path id="Path_11" data-name="Path 11" d="M247.05,211.973l-9.723-11.049" transform="translate(-7.182 -6.03)" fill="none" stroke="#9ff6bd" stroke-width="1"/>
      <line id="Line_17" data-name="Line 17" x2="48.67" y2="3.297" transform="translate(239.325 206.305)" fill="none" stroke="#9ff6bd" stroke-width="1"/>
      <line id="Line_18" data-name="Line 18" y1="3.498" x2="80.412" transform="translate(287.081 206.118)" fill="none" stroke="#9ff6bd" stroke-width="1"/>
      <path id="Path_12" data-name="Path 12" d="M210,25.5l26.767,24.936" transform="translate(-6.351 -0.699)" fill="none" stroke="#9ff6bd" stroke-width="1"/>
      <line id="Line_19" data-name="Line 19" x2="4.668" y2="19.981" transform="translate(230.164 48.906)" fill="none" stroke="#9ff6bd" stroke-width="1"/>
      <line id="Line_20" data-name="Line 20" x2="8.153" y2="17.68" transform="translate(234.689 68.483)" fill="none" stroke="#9ff6bd" stroke-width="1"/>
      <line id="Line_21" data-name="Line 21" x2="2.441" y2="18.926" transform="translate(242.946 85.976)" fill="none" stroke="#9ff6bd" stroke-width="1"/>
      <line id="Line_22" data-name="Line 22" x1="27.245" y1="37.84" transform="translate(245.406 104.869)" fill="none" stroke="#9ff6bd" stroke-width="1"/>
      <line id="Line_23" data-name="Line 23" x2="41.966" y2="20.322" transform="translate(272.361 142.368)" fill="none" stroke="#9ff6bd" stroke-width="1"/>
      <line id="Line_24" data-name="Line 24" x1="23.916" y1="17.585" transform="translate(314.144 162.59)" fill="none" stroke="#9ff6bd" stroke-width="1"/>
      <line id="Line_25" data-name="Line 25" x1="39.832" y1="20.033" transform="translate(338.129 180.216)" fill="none" stroke="#9ff6bd" stroke-width="1"/>
      <line id="Line_26" data-name="Line 26" x1="1.737" y2="18.86" transform="translate(369.654 223.261)" fill="none" stroke="#9ff6bd" stroke-width="1"/>
      <line id="Line_27" data-name="Line 27" x1="11.945" y2="13.234" transform="translate(358.148 241.473)" fill="none" stroke="#9ff6bd" stroke-width="1"/>
      <line id="Line_28" data-name="Line 28" x1="7.832" y2="15.522" transform="translate(350.524 254.41)" fill="none" stroke="#9ff6bd" stroke-width="1"/>
      <line id="Line_29" data-name="Line 29" x1="12.662" y2="10.659" transform="translate(338.078 269.928)" fill="none" stroke="#9ff6bd" stroke-width="1"/>
      <path id="Path_13" data-name="Path 13" d="M338.229,332.12l10.191-42.749" transform="translate(-10.248 -8.718)" fill="none" stroke="#9ff6bd" stroke-width="1"/>
      <line id="Line_30" data-name="Line 30" x1="19.256" y2="47.722" transform="translate(310.712 330.765)" fill="none" stroke="#9ff6bd" stroke-width="1"/>
      <path id="Path_14" data-name="Path 14" d="M340.31,341.11l-2.156-8.167" transform="translate(-10.246 -10.042)" fill="none" stroke="#9ff6bd" stroke-width="1"/>
      <line id="Line_31" data-name="Line 31" y1="6.682" x2="14.475" transform="translate(138.575 303.397)" fill="none" stroke="#9ff6bd" stroke-width="1"/>
      <line id="Line_32" data-name="Line 32" y1="10.163" x2="2.969" transform="translate(152.77 293.651)" fill="none" stroke="#9ff6bd" stroke-width="1"/>
      <line id="Line_33" data-name="Line 33" y1="8.767" x2="7.622" transform="translate(155.639 285.081)" fill="none" stroke="#9ff6bd" stroke-width="1"/>
      <path id="Path_15" data-name="Path 15" d="M257.252,247.244l14.532,4.788" transform="translate(-7.787 -7.438)" fill="none" stroke="#9ff6bd" stroke-width="1"/>
      <line id="Line_34" data-name="Line 34" y1="9.737" x2="0.354" transform="translate(163.394 275.457)" fill="none" stroke="#9ff6bd" stroke-width="1"/>
      <line id="Line_35" data-name="Line 35" x1="28.469" y2="18.214" transform="translate(163.967 257.296)" fill="none" stroke="#9ff6bd" stroke-width="1"/>
      <line id="Line_36" data-name="Line 36" y1="17.65" x2="58.891" transform="translate(191.076 239.906)" fill="none" stroke="#9ff6bd" stroke-width="1"/>
      <path id="Path_16" data-name="Path 16" d="M271.854,251.4l102.81-32.374" transform="translate(-8.231 -6.58)" fill="none" stroke="#9ff6bd" stroke-width="1"/>
      <circle id="Ellipse_2" data-name="Ellipse 2" cx="20.624" cy="20.624" r="20.624" transform="translate(362.665 190.119)" fill="#fff"/>
      <g id="Group_2" data-name="Group 2" transform="translate(123.631 304.86)">
        <circle id="Ellipse_3" data-name="Ellipse 3" cx="6.689" cy="6.689" r="6.689" fill="#46ff86"/>
      </g>
      <g id="Group_3" data-name="Group 3" transform="translate(116.943 183.343)">
        <circle id="Ellipse_4" data-name="Ellipse 4" cx="6.689" cy="6.689" r="6.689" fill="#46ff86"/>
      </g>
      <g id="Group_4" data-name="Group 4" transform="translate(196.097 19.464)">
        <circle id="Ellipse_5" data-name="Ellipse 5" cx="6.689" cy="6.689" r="6.689" fill="#46ff86"/>
      </g>
      <g id="Group_5" data-name="Group 5" transform="translate(303.367 375.316)">
        <circle id="Ellipse_6" data-name="Ellipse 6" cx="6.689" cy="6.689" r="6.689" fill="#46ff86"/>
      </g>
      <g id="Group_6" data-name="Group 6" transform="translate(229.829 347.197)">
        <circle id="Ellipse_7" data-name="Ellipse 7" cx="6.689" cy="6.689" r="6.689" fill="#46ff86"/>
      </g>
      <g id="Group_7" data-name="Group 7" transform="translate(391.754 391.799)">
        <circle id="Ellipse_8" data-name="Ellipse 8" cx="6.689" cy="6.689" r="6.689" fill="#46ff86"/>
      </g>
      <g id="Group_8" data-name="Group 8" transform="translate(437.325 304.534)">
        <circle id="Ellipse_9" data-name="Ellipse 9" cx="6.689" cy="6.689" r="6.689" fill="#46ff86"/>
      </g>
      <path id="Path_17" data-name="Path 17" d="M165.1,374.377l-.31-2,5.585-5.616h2.529Zm-1.6,3.242V366.76h2.017v10.86Zm7.121,0-4.111-5.476,1.427-1.226,5.135,6.7Zm6.011.155a3.188,3.188,0,0,1-1.831-.558,4.041,4.041,0,0,1-1.319-1.52,5.068,5.068,0,0,1,0-4.375,3.823,3.823,0,0,1,1.35-1.5,3.511,3.511,0,0,1,1.924-.543,3.291,3.291,0,0,1,1.133.186,2.708,2.708,0,0,1,.9.5,2.879,2.879,0,0,1,.636.745,2.589,2.589,0,0,1,.357.9l-.419-.109v-2.048h1.924v8.176H179.35v-1.955l.45-.078a2.409,2.409,0,0,1-.4.822,3.039,3.039,0,0,1-.714.7,3.857,3.857,0,0,1-.946.481A3.2,3.2,0,0,1,176.635,377.775Zm.527-1.691a2.117,2.117,0,0,0,1.97-1.226,2.972,2.972,0,0,0,.295-1.35,2.843,2.843,0,0,0-.295-1.319,2.227,2.227,0,0,0-3.149-.9,2.2,2.2,0,0,0-.776.9,2.979,2.979,0,0,0-.279,1.319,3.115,3.115,0,0,0,.279,1.35,2.2,2.2,0,0,0,.776.9A2.15,2.15,0,0,0,177.163,376.084Zm6.913,1.536V367.365h1.908V377.62Zm-1.613-6.407v-1.769h5.306v1.769Zm10.112,6.562a4.374,4.374,0,0,1-2.187-.543,4.121,4.121,0,0,1-1.52-1.52,4.563,4.563,0,0,1,0-4.375,4,4,0,0,1,1.52-1.5,4.533,4.533,0,0,1,4.359,0,3.9,3.9,0,0,1,1.5,1.5,4.563,4.563,0,0,1,0,4.375,4.017,4.017,0,0,1-1.5,1.52A4.346,4.346,0,0,1,192.575,377.775Zm0-1.691a2.075,2.075,0,0,0,1.179-.341,2.352,2.352,0,0,0,.822-.915,2.589,2.589,0,0,0,.295-1.3,2.623,2.623,0,0,0-.295-1.319,2.237,2.237,0,0,0-.822-.9,2.075,2.075,0,0,0-1.179-.341,2.235,2.235,0,0,0-2.032,1.257,3.028,3.028,0,0,0,0,2.606,2.336,2.336,0,0,0,.822.915A2.223,2.223,0,0,0,192.575,376.084Zm7.252,1.536-2.746-8.176,1.955-.016,1.831,5.833-.341-.031,1.986-4.561h1.148l2.032,4.561-.4.047,1.846-5.833h1.955l-2.761,8.176h-1.365l-2.094-4.9.295.031-1.986,4.871Zm10.574,0v-8.176h1.908v8.176Zm.931-9.913a1.338,1.338,0,0,1-.9-.279,1.078,1.078,0,0,1-.31-.822,1.064,1.064,0,0,1,.326-.807,1.231,1.231,0,0,1,.884-.31,1.258,1.258,0,0,1,.9.295,1.024,1.024,0,0,1,.326.822,1.044,1.044,0,0,1-.326.791A1.254,1.254,0,0,1,211.331,367.706Zm6.592,10.068a3.885,3.885,0,0,1-2.063-.558,4.006,4.006,0,0,1-1.443-1.52,4.735,4.735,0,0,1,0-4.344,4.006,4.006,0,0,1,1.443-1.52,3.885,3.885,0,0,1,2.063-.559,4.681,4.681,0,0,1,2,.419,3.305,3.305,0,0,1,1.4,1.164l-1.055,1.272a2.635,2.635,0,0,0-.59-.59,3.223,3.223,0,0,0-.76-.419,2.223,2.223,0,0,0-.807-.155,2.254,2.254,0,0,0-1.226.341,2.329,2.329,0,0,0-.838.915,2.892,2.892,0,0,0,0,2.606,2.548,2.548,0,0,0,.869.915,2.228,2.228,0,0,0,1.21.341,2.442,2.442,0,0,0,.776-.124,2.885,2.885,0,0,0,.729-.388,3.249,3.249,0,0,0,.636-.621l1.055,1.288a3.863,3.863,0,0,1-1.458,1.117A4.6,4.6,0,0,1,217.923,377.775Zm8.378,0a4.682,4.682,0,0,1-2.281-.543,4.044,4.044,0,0,1-1.536-1.474,4.259,4.259,0,0,1-.543-2.156,4.772,4.772,0,0,1,.31-1.753,4.2,4.2,0,0,1,.853-1.365,3.749,3.749,0,0,1,1.319-.9,4.326,4.326,0,0,1,1.691-.326,3.667,3.667,0,0,1,1.5.31,3.722,3.722,0,0,1,1.21.853,3.454,3.454,0,0,1,.776,1.272,4.212,4.212,0,0,1,.264,1.6l-.016.667H223.23l-.357-1.3h5.383l-.248.264v-.341a1.639,1.639,0,0,0-.31-.838,1.755,1.755,0,0,0-.683-.574,1.869,1.869,0,0,0-.9-.217,2.6,2.6,0,0,0-1.288.295,1.892,1.892,0,0,0-.776.853,3.123,3.123,0,0,0-.264,1.365,2.808,2.808,0,0,0,.326,1.381,2.375,2.375,0,0,0,.946.915,3.193,3.193,0,0,0,1.443.31,2.9,2.9,0,0,0,1.055-.186,3.684,3.684,0,0,0,1.039-.667l.946,1.319a4.276,4.276,0,0,1-.962.667,5.788,5.788,0,0,1-1.117.419A4.54,4.54,0,0,1,226.3,377.775Z" transform="translate(-4.938 -11.031)" fill="#56ff8f"/>
      <path id="Path_18" data-name="Path 18" d="M275.1,424.374l-.31-2,5.585-5.616h2.529Zm-1.6,3.242v-10.86h2.017v10.86Zm7.121,0-4.111-5.476,1.427-1.226,5.135,6.7Zm3.5,0v-8.176H286l.031,2.606-.264-.59a2.9,2.9,0,0,1,.589-1.117,3.13,3.13,0,0,1,.962-.776,2.457,2.457,0,0,1,1.164-.295,2.531,2.531,0,0,1,.5.047,2.179,2.179,0,0,1,.4.109l-.512,2.094a1.781,1.781,0,0,0-.419-.155,2.025,2.025,0,0,0-.5-.062,1.956,1.956,0,0,0-1.35.558,2,2,0,0,0-.419.621,2.034,2.034,0,0,0-.14.776v4.359Zm8.958.155a3.186,3.186,0,0,1-1.831-.559,4.032,4.032,0,0,1-1.319-1.52,5.067,5.067,0,0,1,0-4.375,3.809,3.809,0,0,1,1.35-1.5,3.511,3.511,0,0,1,1.924-.543,3.291,3.291,0,0,1,1.133.186,2.718,2.718,0,0,1,.9.5,2.9,2.9,0,0,1,.636.745,2.607,2.607,0,0,1,.357.9l-.419-.109v-2.048h1.924v8.176H295.8v-1.955l.45-.078a2.426,2.426,0,0,1-.4.822,3.039,3.039,0,0,1-.714.7,3.858,3.858,0,0,1-.946.481A3.2,3.2,0,0,1,293.082,427.772Zm.527-1.691a2.117,2.117,0,0,0,1.97-1.226,2.972,2.972,0,0,0,.295-1.35,2.843,2.843,0,0,0-.295-1.319,2.227,2.227,0,0,0-3.149-.9,2.2,2.2,0,0,0-.776.9,2.979,2.979,0,0,0-.279,1.319,3.115,3.115,0,0,0,.279,1.35,2.2,2.2,0,0,0,.776.9A2.148,2.148,0,0,0,293.61,426.08Zm7.813-.962-.372-1.784,3.878-3.894h2.544Zm-1.784,2.5v-11.48h1.908v11.48Zm5.523,0-3.01-3.646,1.35-1.148,4.018,4.794Zm6.692.155a4.373,4.373,0,0,1-2.187-.543,4.128,4.128,0,0,1-1.52-1.52,4.563,4.563,0,0,1,0-4.375,4.01,4.01,0,0,1,1.52-1.5,4.533,4.533,0,0,1,4.359,0,3.9,3.9,0,0,1,1.5,1.5,4.563,4.563,0,0,1,0,4.375,4.01,4.01,0,0,1-1.5,1.52A4.343,4.343,0,0,1,311.854,427.772Zm0-1.691a2.073,2.073,0,0,0,1.179-.341,2.344,2.344,0,0,0,.822-.915,2.579,2.579,0,0,0,.295-1.3,2.613,2.613,0,0,0-.295-1.319,2.23,2.23,0,0,0-.822-.9,2.073,2.073,0,0,0-1.179-.341,2.235,2.235,0,0,0-2.032,1.257,3.028,3.028,0,0,0,0,2.606,2.344,2.344,0,0,0,.822.915A2.223,2.223,0,0,0,311.854,426.08Zm-1.148-7.772-.605-.915,2.42-2.017,1.055,1.381Zm8.4,9.308-2.746-8.176,1.955-.016,1.831,5.833-.341-.031,1.986-4.561h1.148l2.032,4.561-.4.047,1.846-5.833h1.955l-2.761,8.176h-1.365l-2.094-4.9.295.031-1.986,4.871Z" transform="translate(-8.281 -12.547)" fill="#56ff8f"/>
      <path id="Path_19" data-name="Path 19" d="M387.5,439.616v-10.86h4.716a3.507,3.507,0,0,1,1.784.465,3.327,3.327,0,0,1,1.272,1.241,3.379,3.379,0,0,1,0,3.475A3.487,3.487,0,0,1,394,435.179a3.547,3.547,0,0,1-1.784.45h-2.746v3.987Zm6.3,0-2.761-4.9,2.079-.388,3.072,5.306Zm-4.328-5.74h2.761a1.377,1.377,0,0,0,1.3-.791,1.814,1.814,0,0,0,.186-.822,1.573,1.573,0,0,0-.884-1.474,2.065,2.065,0,0,0-.962-.217h-2.4Zm7.854,5.74v-1.365l4.266-5.616v.4h-4.266v-1.6h6.252v1.365l-4.142,5.507-.062-.295h4.313v1.6Zm11.574.155a4.681,4.681,0,0,1-2.281-.543,4.045,4.045,0,0,1-1.536-1.474,4.259,4.259,0,0,1-.543-2.156,4.771,4.771,0,0,1,.31-1.753,4.2,4.2,0,0,1,.853-1.365,3.749,3.749,0,0,1,1.319-.9,4.327,4.327,0,0,1,1.691-.326,3.667,3.667,0,0,1,1.5.31,3.723,3.723,0,0,1,1.21.853,3.454,3.454,0,0,1,.776,1.272,4.212,4.212,0,0,1,.264,1.6l-.016.667h-6.624l-.357-1.3h5.383l-.248.264v-.341a1.64,1.64,0,0,0-.31-.838,1.755,1.755,0,0,0-.683-.574,1.868,1.868,0,0,0-.9-.217,2.6,2.6,0,0,0-1.288.295,1.891,1.891,0,0,0-.776.853,3.124,3.124,0,0,0-.264,1.365,2.808,2.808,0,0,0,.326,1.381,2.375,2.375,0,0,0,.946.915,3.193,3.193,0,0,0,1.443.31,2.9,2.9,0,0,0,1.055-.186,3.682,3.682,0,0,0,1.039-.667l.946,1.319a4.275,4.275,0,0,1-.962.667,5.79,5.79,0,0,1-1.117.419A4.542,4.542,0,0,1,408.9,439.772Zm7.678,0a5.114,5.114,0,0,1-1.955-.357,3.589,3.589,0,0,1-1.4-1.055l1.241-1.07a2.782,2.782,0,0,0,1.039.76,3.192,3.192,0,0,0,1.21.233,1.568,1.568,0,0,0,.465-.062,1.05,1.05,0,0,0,.372-.186.827.827,0,0,0,.233-.279.764.764,0,0,0,.093-.372.707.707,0,0,0-.279-.59,2.214,2.214,0,0,0-.5-.233,6.919,6.919,0,0,0-.853-.248,7.172,7.172,0,0,1-1.4-.5,3,3,0,0,1-.869-.652,2.1,2.1,0,0,1-.4-.667,2.543,2.543,0,0,1-.124-.807,2.038,2.038,0,0,1,.233-.977,2.522,2.522,0,0,1,.667-.776,3,3,0,0,1,.977-.5,3.97,3.97,0,0,1,1.164-.171,4.541,4.541,0,0,1,1.195.155,4.2,4.2,0,0,1,1.086.45,3.18,3.18,0,0,1,.869.683l-1.055,1.164a3.8,3.8,0,0,0-.652-.5,3.32,3.32,0,0,0-.7-.341,1.834,1.834,0,0,0-.667-.14,2.041,2.041,0,0,0-.527.062,1.013,1.013,0,0,0-.388.155.819.819,0,0,0-.248.279.831.831,0,0,0-.078.372,1.085,1.085,0,0,0,.093.357.868.868,0,0,0,.248.264,3.434,3.434,0,0,0,.512.248,5.805,5.805,0,0,0,.884.264,7.153,7.153,0,0,1,1.272.45,2.6,2.6,0,0,1,.807.574,1.565,1.565,0,0,1,.419.652,2.572,2.572,0,0,1,.124.822,2.156,2.156,0,0,1-.419,1.3,2.691,2.691,0,0,1-1.117.9A3.7,3.7,0,0,1,416.581,439.772Zm4.148-.155v-1.365l4.266-5.616v.4h-4.266v-1.6h6.252v1.365l-4.142,5.507-.062-.295h4.313v1.6Zm11.481.155a4.373,4.373,0,0,1-2.187-.543,4.128,4.128,0,0,1-1.52-1.52,4.563,4.563,0,0,1,0-4.375,4.01,4.01,0,0,1,1.52-1.5,4.533,4.533,0,0,1,4.359,0,3.9,3.9,0,0,1,1.5,1.5,4.563,4.563,0,0,1,0,4.375,4.01,4.01,0,0,1-1.5,1.52A4.343,4.343,0,0,1,432.21,439.772Zm0-1.691a2.073,2.073,0,0,0,1.179-.341,2.344,2.344,0,0,0,.822-.915,2.579,2.579,0,0,0,.295-1.3,2.613,2.613,0,0,0-.295-1.319,2.23,2.23,0,0,0-.822-.9,2.073,2.073,0,0,0-1.179-.341,2.235,2.235,0,0,0-2.032,1.257,3.028,3.028,0,0,0,0,2.606,2.344,2.344,0,0,0,.822.915A2.223,2.223,0,0,0,432.21,438.081Zm-1.148-7.772-.605-.915,2.42-2.017,1.055,1.381Zm8.4,9.308-2.746-8.176,1.955-.016,1.831,5.833-.341-.031,1.986-4.561h1.148l2.032,4.561-.4.047,1.846-5.833h1.955l-2.761,8.176H444.6l-2.094-4.9.295.031-1.986,4.871Z" transform="translate(-11.746 -12.912)" fill="#56ff8f"/>
      <path id="Path_20" data-name="Path 20" d="M442.5,346.62V335.76h2.017v9h5.011v1.862Zm11.52.155a2.944,2.944,0,0,1-1.536-.388,2.589,2.589,0,0,1-.993-1.133,4.21,4.21,0,0,1-.341-1.769v-5.042h1.908v4.639a2.793,2.793,0,0,0,.2,1.117,1.569,1.569,0,0,0,.59.7,1.689,1.689,0,0,0,.931.248,2.043,2.043,0,0,0,.729-.124,1.907,1.907,0,0,0,.59-.372,1.812,1.812,0,0,0,.388-.574,1.907,1.907,0,0,0,.14-.729v-4.9h1.908v8.176h-1.862l-.031-1.707.341-.186a2.658,2.658,0,0,1-.636,1.055,3.428,3.428,0,0,1-1.039.729A3.194,3.194,0,0,1,454.024,346.775Zm10.956,0a3.758,3.758,0,0,1-1.07-.155,3.87,3.87,0,0,1-.931-.45,3.142,3.142,0,0,1-.7-.621,1.978,1.978,0,0,1-.372-.714l.45-.2-.047,1.955h-1.846V335.14h1.908v5.2l-.341-.155a1.62,1.62,0,0,1,.341-.7,2.95,2.95,0,0,1,.683-.605,3.352,3.352,0,0,1,.884-.434,2.906,2.906,0,0,1,.977-.171,3.489,3.489,0,0,1,1.939.543,3.71,3.71,0,0,1,1.334,1.5,4.7,4.7,0,0,1,.5,2.187,4.87,4.87,0,0,1-.481,2.2,3.824,3.824,0,0,1-1.334,1.52A3.407,3.407,0,0,1,464.98,346.775Zm-.4-1.676a2.121,2.121,0,0,0,1.164-.326,2.391,2.391,0,0,0,.807-.915,2.985,2.985,0,0,0,.295-1.35,2.855,2.855,0,0,0-.295-1.319,2.227,2.227,0,0,0-3.149-.9,2.264,2.264,0,0,0-.807.9,2.844,2.844,0,0,0-.295,1.319,2.973,2.973,0,0,0,.295,1.35,2.384,2.384,0,0,0,.807.915A2.148,2.148,0,0,0,464.576,345.1Zm5.517,1.52V335.14h1.924v11.48Zm4.073,0v-8.176h1.908v8.176Zm.931-9.913a1.338,1.338,0,0,1-.9-.279,1.077,1.077,0,0,1-.31-.822,1.064,1.064,0,0,1,.326-.807,1.231,1.231,0,0,1,.884-.31,1.258,1.258,0,0,1,.9.295,1.024,1.024,0,0,1,.326.822,1.044,1.044,0,0,1-.326.791A1.254,1.254,0,0,1,475.1,336.706Zm3.086,9.913v-8.176h1.862l.031,1.676-.357.186a2.282,2.282,0,0,1,.605-1.008,3.42,3.42,0,0,1,1.07-.745,3.071,3.071,0,0,1,1.272-.279,2.972,2.972,0,0,1,1.551.372,2.25,2.25,0,0,1,.946,1.117,4.655,4.655,0,0,1,.326,1.862v5h-1.908v-4.856a2.649,2.649,0,0,0-.171-1.024,1.134,1.134,0,0,0-.527-.605,1.63,1.63,0,0,0-.869-.186,2.109,2.109,0,0,0-.776.14,1.727,1.727,0,0,0-.605.372,1.911,1.911,0,0,0-.4.543,1.643,1.643,0,0,0-.14.683v4.933h-1.908Z" transform="translate(-13.417 -10.089)" fill="#56ff8f"/>
      <path id="Path_21" data-name="Path 21" d="M158.414,61.772a6,6,0,0,1-2.265-.419,5.7,5.7,0,0,1-1.815-1.195,5.4,5.4,0,0,1-1.179-1.769,5.8,5.8,0,0,1-.419-2.218,5.645,5.645,0,0,1,.419-2.187,5.29,5.29,0,0,1,1.21-1.769,5.5,5.5,0,0,1,1.815-1.179,6.08,6.08,0,0,1,2.265-.419,5.8,5.8,0,0,1,1.644.233,5.288,5.288,0,0,1,1.427.652,4.476,4.476,0,0,1,1.055.946L161.3,53.782a5.038,5.038,0,0,0-.9-.7,4.119,4.119,0,0,0-.946-.434,3.409,3.409,0,0,0-1.024-.155,3.7,3.7,0,0,0-1.443.279,3.627,3.627,0,0,0-1.148.776,3.713,3.713,0,0,0-1.039,2.622,3.638,3.638,0,0,0,1.086,2.637,3.854,3.854,0,0,0,1.179.807,3.771,3.771,0,0,0,1.443.279,3.27,3.27,0,0,0,1.07-.171,3.139,3.139,0,0,0,.884-.465,2.136,2.136,0,0,0,.59-.714,1.808,1.808,0,0,0,.217-.869v-.341l.279.326h-3.211v-1.8h4.918a3.8,3.8,0,0,1,.047.388c.011.134.016.269.016.4s.016.233.016.326a4.988,4.988,0,0,1-.372,1.955,4.409,4.409,0,0,1-1.055,1.5,4.818,4.818,0,0,1-1.567.993A5.3,5.3,0,0,1,158.414,61.772Zm9.673,0a3.611,3.611,0,0,1-1.955-.543,4.081,4.081,0,0,1-1.365-1.5,5.1,5.1,0,0,1,0-4.39,3.809,3.809,0,0,1,1.35-1.5,3.536,3.536,0,0,1,1.955-.558,3.631,3.631,0,0,1,2.125.7,2.578,2.578,0,0,1,.683.7,1.646,1.646,0,0,1,.295.807l-.512.062v-5.4h1.908v11.48h-1.846l-.047-1.924.372.031a1.333,1.333,0,0,1-.279.745,2.794,2.794,0,0,1-.652.652,3.549,3.549,0,0,1-.946.481A3.509,3.509,0,0,1,168.087,61.772Zm.372-1.613a2.077,2.077,0,0,0,1.179-.341,2.249,2.249,0,0,0,.791-.931,3.023,3.023,0,0,0,.295-1.365,2.987,2.987,0,0,0-.295-1.35,2.127,2.127,0,0,0-.791-.931,2.207,2.207,0,0,0-2.358,0,2.223,2.223,0,0,0-.807.931,3.117,3.117,0,0,0-.279,1.35,3.156,3.156,0,0,0,.279,1.365,2.358,2.358,0,0,0,.807.931A2.075,2.075,0,0,0,168.459,60.158Zm9.054,1.613a3.184,3.184,0,0,1-1.831-.558,4.022,4.022,0,0,1-1.319-1.52,5.067,5.067,0,0,1,0-4.375,3.809,3.809,0,0,1,1.35-1.5,3.506,3.506,0,0,1,1.924-.543,3.3,3.3,0,0,1,1.133.186,2.724,2.724,0,0,1,.9.5,2.918,2.918,0,0,1,.636.745,2.61,2.61,0,0,1,.357.9l-.419-.109V53.441h1.924v8.176h-1.939V59.662l.45-.078a2.447,2.447,0,0,1-.4.822,3.069,3.069,0,0,1-.714.7,3.885,3.885,0,0,1-.946.481A3.2,3.2,0,0,1,177.513,61.772Zm.527-1.691a2.117,2.117,0,0,0,1.97-1.226,2.987,2.987,0,0,0,.295-1.35,2.855,2.855,0,0,0-.295-1.319,2.227,2.227,0,0,0-3.149-.9,2.2,2.2,0,0,0-.776.9,2.978,2.978,0,0,0-.279,1.319,3.117,3.117,0,0,0,.279,1.35,2.2,2.2,0,0,0,.776.9A2.148,2.148,0,0,0,178.041,60.081Zm6.028,1.536V53.441h1.862l.031,1.675-.357.186a2.283,2.283,0,0,1,.605-1.008,3.443,3.443,0,0,1,1.07-.745,3.071,3.071,0,0,1,1.272-.279,2.969,2.969,0,0,1,1.551.372,2.246,2.246,0,0,1,.946,1.117,4.655,4.655,0,0,1,.326,1.862v5h-1.908V56.761a2.633,2.633,0,0,0-.171-1.024,1.13,1.13,0,0,0-.527-.605,1.636,1.636,0,0,0-.869-.186,2.113,2.113,0,0,0-.776.14,1.753,1.753,0,0,0-.605.372,1.925,1.925,0,0,0-.4.543,1.644,1.644,0,0,0-.14.683v4.933h-1.908Zm2.948-9.308-.605-.915,2.42-2.017,1.055,1.381Zm8.926,9.463a5.109,5.109,0,0,1-1.955-.357,3.586,3.586,0,0,1-1.4-1.055l1.241-1.07a2.785,2.785,0,0,0,1.039.76,3.193,3.193,0,0,0,1.21.233,1.578,1.578,0,0,0,.465-.062,1.04,1.04,0,0,0,.372-.186.832.832,0,0,0,.233-.279.765.765,0,0,0,.093-.372.707.707,0,0,0-.279-.59,2.238,2.238,0,0,0-.5-.233,6.915,6.915,0,0,0-.853-.248,7.192,7.192,0,0,1-1.4-.5,2.988,2.988,0,0,1-.869-.652,2.1,2.1,0,0,1-.4-.667,2.545,2.545,0,0,1-.124-.807,2.037,2.037,0,0,1,.233-.977,2.519,2.519,0,0,1,.667-.776,3,3,0,0,1,.977-.5,3.96,3.96,0,0,1,1.164-.171,4.552,4.552,0,0,1,1.195.155,4.2,4.2,0,0,1,1.086.45,3.174,3.174,0,0,1,.869.683l-1.055,1.164a3.815,3.815,0,0,0-.652-.5,3.318,3.318,0,0,0-.7-.341,1.833,1.833,0,0,0-.667-.14,2.053,2.053,0,0,0-.527.062,1.019,1.019,0,0,0-.388.155.815.815,0,0,0-.248.279.829.829,0,0,0-.078.372,1.086,1.086,0,0,0,.093.357.868.868,0,0,0,.248.264,3.47,3.47,0,0,0,.512.248,5.839,5.839,0,0,0,.884.264,7.149,7.149,0,0,1,1.272.45,2.6,2.6,0,0,1,.807.574,1.565,1.565,0,0,1,.419.652,2.57,2.57,0,0,1,.124.822,2.155,2.155,0,0,1-.419,1.3,2.693,2.693,0,0,1-1.117.9A3.7,3.7,0,0,1,195.943,61.772Zm6.273-2.653-.372-1.784,3.878-3.894h2.544Zm-1.784,2.5V50.136h1.908v11.48Zm5.523,0-3.01-3.646,1.35-1.148,4.018,4.794Z" transform="translate(-4.611 -1.425)" fill="#56ff8f"/>
      <path id="Path_22" data-name="Path 22" d="M375.568,157.575,371.34,144h2.637l2.4,8.009q.116.368.213.814c.065.3.123.594.175.892s.1.55.136.8.078.453.116.621l-.524-.019q.233-.912.368-1.474t.233-.931c.078-.259.155-.5.233-.717l2.288-5.856h2.153L384,151.99q.193.542.349,1.047a8.918,8.918,0,0,1,.252.97q.116.465.213.97l-.465.1q.077-.465.116-.756c.026-.194.051-.368.078-.524s.051-.3.078-.446.065-.336.116-.543.143-.5.233-.834l2.385-7.97h2.618l-4.247,13.575h-1.823l-3.452-8.261.233.078-3.277,8.184Zm19.116.194a3.98,3.98,0,0,1-2.288-.7,5.026,5.026,0,0,1-1.648-1.9,6.334,6.334,0,0,1,0-5.469,4.757,4.757,0,0,1,1.687-1.881,4.38,4.38,0,0,1,2.4-.679,4.118,4.118,0,0,1,1.416.233,3.414,3.414,0,0,1,1.125.621,3.643,3.643,0,0,1,.8.931,3.27,3.27,0,0,1,.446,1.125l-.524-.136v-2.56h2.4v10.22h-2.424v-2.443l.562-.1a3.057,3.057,0,0,1-.5,1.028,3.842,3.842,0,0,1-.892.873,4.861,4.861,0,0,1-1.183.6A4,4,0,0,1,394.683,157.768Zm.659-2.114a2.647,2.647,0,0,0,2.463-1.532,3.729,3.729,0,0,0,.368-1.687,3.561,3.561,0,0,0-.368-1.648,2.784,2.784,0,0,0-3.937-1.125,2.751,2.751,0,0,0-.97,1.125,3.721,3.721,0,0,0-.349,1.648,3.9,3.9,0,0,0,.349,1.687,2.751,2.751,0,0,0,.97,1.125A2.684,2.684,0,0,0,395.343,155.655Zm7.536,1.92v-10.22h2.346l.039,3.258-.33-.737a3.632,3.632,0,0,1,.737-1.4,3.893,3.893,0,0,1,1.2-.97,3.08,3.08,0,0,1,1.454-.368,3.166,3.166,0,0,1,.621.058,2.809,2.809,0,0,1,.5.136l-.64,2.618a2.219,2.219,0,0,0-.524-.194,2.572,2.572,0,0,0-.621-.078,2.312,2.312,0,0,0-.931.194,2.264,2.264,0,0,0-.756.5,2.476,2.476,0,0,0-.524.776,2.542,2.542,0,0,0-.175.97v5.449Zm11.187.194a6.369,6.369,0,0,1-2.443-.446A4.458,4.458,0,0,1,409.877,156l1.551-1.338a3.473,3.473,0,0,0,1.3.95,3.985,3.985,0,0,0,1.513.291,2,2,0,0,0,.582-.078,1.312,1.312,0,0,0,.465-.233,1.065,1.065,0,0,0,.291-.349.958.958,0,0,0,.116-.465.884.884,0,0,0-.349-.737,2.883,2.883,0,0,0-.621-.291,8.683,8.683,0,0,0-1.067-.31,9.015,9.015,0,0,1-1.745-.621,3.7,3.7,0,0,1-1.086-.814,2.609,2.609,0,0,1-.5-.834,3.162,3.162,0,0,1-.155-1.008,2.544,2.544,0,0,1,.291-1.222,3.135,3.135,0,0,1,.834-.97,3.762,3.762,0,0,1,1.222-.621,4.939,4.939,0,0,1,1.454-.213,5.717,5.717,0,0,1,1.493.194,5.285,5.285,0,0,1,1.357.562,3.971,3.971,0,0,1,1.086.853l-1.319,1.454a4.905,4.905,0,0,0-.814-.621,4.217,4.217,0,0,0-.873-.427,2.3,2.3,0,0,0-.834-.175,2.575,2.575,0,0,0-.659.078,1.274,1.274,0,0,0-.485.194,1,1,0,0,0-.31.349,1.024,1.024,0,0,0-.1.465,1.326,1.326,0,0,0,.116.446,1.068,1.068,0,0,0,.31.33,4.231,4.231,0,0,0,.64.31,7.287,7.287,0,0,0,1.105.33,8.957,8.957,0,0,1,1.59.562,3.257,3.257,0,0,1,1.008.717,1.971,1.971,0,0,1,.524.814,3.252,3.252,0,0,1,.155,1.028,2.693,2.693,0,0,1-.524,1.629,3.379,3.379,0,0,1-1.4,1.125A4.624,4.624,0,0,1,414.066,157.768Zm9.47,0a3.98,3.98,0,0,1-2.288-.7,5.026,5.026,0,0,1-1.648-1.9,6.334,6.334,0,0,1,0-5.469,4.757,4.757,0,0,1,1.687-1.881,4.38,4.38,0,0,1,2.4-.679,4.118,4.118,0,0,1,1.416.233,3.413,3.413,0,0,1,1.125.621,3.642,3.642,0,0,1,.8.931,3.27,3.27,0,0,1,.446,1.125l-.524-.136v-2.56h2.4v10.22H426.93v-2.443l.562-.1a3.058,3.058,0,0,1-.5,1.028,3.841,3.841,0,0,1-.892.873,4.861,4.861,0,0,1-1.183.6A4,4,0,0,1,423.536,157.768Zm.659-2.114a2.647,2.647,0,0,0,2.463-1.532,3.729,3.729,0,0,0,.368-1.687,3.561,3.561,0,0,0-.368-1.648,2.784,2.784,0,0,0-3.937-1.125,2.751,2.751,0,0,0-.97,1.125,3.722,3.722,0,0,0-.349,1.648,3.9,3.9,0,0,0,.349,1.687,2.751,2.751,0,0,0,.97,1.125A2.684,2.684,0,0,0,424.2,155.655Zm9.826,1.92-3.432-10.22,2.443-.019,2.288,7.291-.427-.039,2.482-5.7h1.435l2.54,5.7-.5.058,2.308-7.291H445.6l-3.452,10.22H440.44l-2.618-6.128.368.039-2.482,6.089Z" transform="translate(-11.254 -4.3)" fill="#d7fbe3"/>
      <line id="Line_37" data-name="Line 37" x1="19.392" y2="53.324" transform="translate(238.041 295.973)" fill="none" stroke="#8ee9a6" stroke-width="1"/>
      <path id="Path_23" data-name="Path 23" d="M243.888,18.5V14.182a.969.969,0,0,0-.448-.817L226.435,2.5m0,0V17.529a.97.97,0,0,0,.97.97h3.878a.97.97,0,0,1,.97.97v7.948a.966.966,0,0,0,.163.538l4.578,6.866a.964.964,0,0,0,.269.269l2.748,1.832,3.674,1.837a.969.969,0,0,0,.433.1h20.133M226.435,2.5H173.829a.968.968,0,0,0-.45.111l-9.887,5.179a1,1,0,0,0-.155.1l-7.087,5.669A.965.965,0,0,1,156,13.7l-11.813,4.725a.97.97,0,0,1-.361.069h-9.513a.969.969,0,0,0-.772.383L117.128,40.459a.971.971,0,0,1-.686.379l-15.733,1.388a.97.97,0,0,0-.565.247l-9.662,8.742a.97.97,0,0,1-.651.251H55.162a.97.97,0,0,0-.618.222L43.932,60.455a.97.97,0,0,1-.618.222H30.52A.97.97,0,0,0,29.8,61l-8.149,9.054a.97.97,0,0,1-.721.321H14.09a.97.97,0,0,0-.97.97v32.188a.969.969,0,0,0,.163.538l6.462,9.692a.969.969,0,0,1,.163.538v10.648a.966.966,0,0,1-.086.4l-6.5,14.385a.969.969,0,0,1-.694.552l-10.852,2.17A.97.97,0,0,0,1,143.4v15.18a.97.97,0,0,0,.418.8L19.7,172.04a.975.975,0,0,1,.315.364l3.6,7.2a.97.97,0,0,1,.067.691l-3.745,13.574a.977.977,0,0,0-.035.258v6.428a.969.969,0,0,0,.1.433l3.623,7.245a.965.965,0,0,0,.466.449l4.277,1.945a.969.969,0,0,1,.537,1.127L26.35,221.58a.969.969,0,0,0,.253.93l2.232,2.232a.971.971,0,0,1,.284.686v4.684a.972.972,0,0,1-.118.464l-2.79,5.116-2.134,2.987a.969.969,0,0,1-.789.406h-2.41a.97.97,0,0,0-.97.97v4.04a.97.97,0,0,0,.194.582l1.219,1.625a.912.912,0,0,0,.09.1l2.2,2.2a.971.971,0,0,1,.247.419l.9,3.152,1.362,5.446a.969.969,0,0,1-.093.706L23.95,262.06a.968.968,0,0,0-.109.63l.852,5.11a.971.971,0,0,0,.361.606l3.8,2.956a.967.967,0,0,0,.6.2h2.175a.968.968,0,0,1,.686.284l2.826,2.825a.971.971,0,0,1,.284.686V303.82a.969.969,0,0,1-.1.433l-1.837,3.674-1.315,3.067a.969.969,0,0,1-.458.486l-2.591,1.3-2.829,1.886a.968.968,0,0,0-.148.121l-1.209,1.209a.971.971,0,0,0-.247.419l-.772,2.7a.97.97,0,0,0,.143.83l1.862,2.607a.969.969,0,0,0,.789.406h6.21a.969.969,0,0,0,.842-.489l1.532-2.681a.975.975,0,0,0,.128-.482v-5.56a.97.97,0,0,1,.97-.97h3.621a.964.964,0,0,1,.481.128l2.946,1.683a.964.964,0,0,0,.481.128h4.106a.97.97,0,0,1,.97.97v3.631a.972.972,0,0,0,.118.464l2.672,4.9a.972.972,0,0,1,.118.464v4.116a.97.97,0,0,0,.97.97H54.49a.969.969,0,0,1,.582.194l3.361,2.521a.969.969,0,0,0,.582.194h3.223a.967.967,0,0,1,.6.2l3.838,2.984a.967.967,0,0,0,.6.2H76.64a.968.968,0,0,1,.765.374l2.811,3.615a.969.969,0,0,0,.765.374h8.252a.97.97,0,0,1,.97.97v5.818a.97.97,0,0,0,1.551.776l3.878-2.909a.969.969,0,0,0,.388-.776v-2.909a.97.97,0,0,1,.97-.97h3.153a.97.97,0,0,1,.453.112l7.874,4.169a.949.949,0,0,1,.271.212l3.189,3.589a.968.968,0,0,1,0,1.288l-3.06,3.444a.967.967,0,0,0-.245.644v2.3a.991.991,0,0,1-.69.94c-3.014.98-8.691,3.349-11.915,6.573-3.011,3.012.256,2.631,3.077,1.847a1.008,1.008,0,0,1,1.287.952v.574a.972.972,0,0,0,.413.8l4.3,3.011a.972.972,0,0,0,.29.138l3.029.865a.98.98,0,0,1,.371.2l3.441,3.012a.971.971,0,0,0,.639.24H115.9a.97.97,0,0,1,.97.97v9.816a.975.975,0,0,0,.239.639l2.864,3.273a.969.969,0,0,0,.73.331h3.037a.969.969,0,0,0,.686-.284l3.31-3.31a.969.969,0,0,0,.284-.686v-1.538a.97.97,0,0,1,.97-.97h4.6a.973.973,0,0,0,.464-.118l4.611-2.515a.97.97,0,0,0,.505-.851v-7.41a.97.97,0,0,0-.715-.936l-3.9-1.065a.97.97,0,0,1-.715-.936v-4.64a.969.969,0,0,1,1.315-.906l8.866,3.377,7.1,2.839a.955.955,0,0,0,.361.07h4.162a.97.97,0,0,1,.789.406l6.692,9.368a.97.97,0,0,0,.789.406h3.6A.969.969,0,0,0,168,381l5.365-3.13a.972.972,0,0,1,.489-.132h2.826a.966.966,0,0,1,.556.176l4.184,2.928a.97.97,0,0,1,.414.8v4.7a.97.97,0,0,1-.557.878l-5.347,2.517a.969.969,0,0,0,.146,1.809l.644.184a.964.964,0,0,1,.451.28l4.573,5.029a.981.981,0,0,1,.15.218l3.477,6.955a.969.969,0,0,0,1.085.511l5.559-1.283,5-1.819a.974.974,0,0,1,.663,0l4.84,1.761a.971.971,0,0,0,.332.058h4.677a.97.97,0,0,1,.97.97v3.878a.97.97,0,0,0,.97.97H220.3a.972.972,0,0,1,.57.185l4.678,3.4a.971.971,0,0,1,.4.784v2.743a.97.97,0,0,0,.049.306l3.651,10.952a.972.972,0,0,0,.73.645l4.008.8a.961.961,0,0,1,.5.265l3.387,3.387a.969.969,0,0,1,.284.686v5.5a.969.969,0,0,0,.284.686l1.655,1.655,1.454,1.454,2.625,2.625a.969.969,0,0,1,.284.686v3.477a.97.97,0,0,0,.97.97h.906a.967.967,0,0,1,.831.471l.89,1.482a.967.967,0,0,0,.831.471h5.269a.97.97,0,0,0,.97-.97v-.892a.968.968,0,0,1,.489-.842l2.416-1.381a.968.968,0,0,0,.489-.842v-.72a.968.968,0,0,1,.61-.9l1.2-.483a.968.968,0,0,0,.61-.9v-1.995a.969.969,0,0,1,.128-.482L263,439.8a.968.968,0,0,1,.842-.489h2.831a.969.969,0,0,0,.776-.388l1.164-1.551,1.164-1.551a.969.969,0,0,1,.776-.388h2.424a.97.97,0,0,1,.97.97v.794a.971.971,0,0,0,.062.34l1.293,3.448a.965.965,0,0,0,.327.435l1.324.994a.969.969,0,0,1,.388.776v1.825a1.177,1.177,0,0,0,.506.918,3.339,3.339,0,0,1,1.433,2.59v.97a.969.969,0,0,0,.97.97h.619a.969.969,0,0,1,.621.225l2.37,1.974a.969.969,0,0,0,.621.225h1.867a.966.966,0,0,1,.394.083l3.6,1.6a.971.971,0,0,1,.576.886V458.3a.969.969,0,0,1-.284.686l-1.911,1.911a.955.955,0,0,0-.273.548c-.317,2.342-.7,6.468.045,6.468a5.159,5.159,0,0,1,2.176.813,1.06,1.06,0,0,0,.542.156h2.445a.654.654,0,0,0,.654-.654h0a.655.655,0,0,1,.245-.512l1.913-1.53a.966.966,0,0,1,.605-.212h3.539c1.036,0,1.894,1.54,2.3,2.562a1.05,1.05,0,0,0,.449.531l1.863,1.065a.9.9,0,0,0,1.37-.691,11.833,11.833,0,0,0-.161-3.466c-.187-.748.069-.925.474-.836a1.493,1.493,0,0,0,1.824-.822,7.7,7.7,0,0,1,1.58-3.19,3.011,3.011,0,0,0,.271-.308c.439-.579,1.427-2.116,2.154-2.116H318a.967.967,0,0,0,.831-.471L320,456.278l2.177-3.047a.954.954,0,0,1,.667-.4c2.726-.316,7.8-.686,9.276.05a2.061,2.061,0,0,0,2.8-.771,1.28,1.28,0,0,1,.3-.336l1.5-1.123a.969.969,0,0,1,.582-.194h2.1c.845,0,2.026-.388,0-1.939,1.88,1.41,5.947,4.551,7.608,6.155a.943.943,0,0,1,.223.344l1.145,3.052a.969.969,0,0,0,.908.629h5.631a.97.97,0,0,0,.97-.97v-1.939a.97.97,0,0,1,.97-.97h1.939a.9.9,0,0,0,.8-1.3l-.6-1.205a.971.971,0,0,1-.023-.815l1.025-2.393a.969.969,0,0,1,.891-.588h6.065a.568.568,0,0,1,.568.568h0a.568.568,0,0,0,.97.4l.686-.686a.969.969,0,0,0,.284-.686v-1.538a.97.97,0,0,1,.97-.97h2.773a.881.881,0,0,1,.266.039c1.172.362,3.375,1.376,3.749,2.87.288,1.151.772.95,1.133.505a1.226,1.226,0,0,1,.92-.505h1.082a.963.963,0,0,1,.481.128L383.187,450a.97.97,0,0,0,1.3-.328l1.645-2.632a.971.971,0,0,1,.822-.456h4.129a.97.97,0,0,1,.85.5l.753,1.375a.866.866,0,0,0,.075.115l1.122,1.5a.969.969,0,0,0,.776.388h.485a.97.97,0,0,1,.97.97v.114a.9.9,0,0,0,.262.632h0a.894.894,0,0,0,1.332-.074l1.1-1.377a.969.969,0,0,0,.212-.606v-.629a.777.777,0,0,1,.955-.822,1.847,1.847,0,0,1,1.469,1.792,2.5,2.5,0,0,0,1.309,2.365.7.7,0,0,0,.3.059h4.206a.97.97,0,0,1,.97.97v1.454a.97.97,0,0,0,.97.97h1.454a.97.97,0,0,1,.97.97v5.818a1.132,1.132,0,0,0,.963,1.065,3.96,3.96,0,0,1,2.916,1.844c.492.983.878.98,1.138.682a1.539,1.539,0,0,1,1.073-.682h3.266a.969.969,0,0,1,.606.212l2.158,1.727.686.686a1.045,1.045,0,0,0,.685.3,18.814,18.814,0,0,1,6.666,1.826,1,1,0,0,0,.434.1h1.37a.969.969,0,0,1,.606.212l2.078,1.663a.945.945,0,0,0,.173.11l2.612,1.306a1.068,1.068,0,0,0,.433.109,18.678,18.678,0,0,1,7.528,2.418l3.17,1.811a.963.963,0,0,0,.481.128h3.22a.969.969,0,0,1,.686.284l1.371,1.371a.969.969,0,0,0,.686.284h4.931a.97.97,0,0,0,.97-.97v-2.631a.971.971,0,0,0-.147-.514l-2.166-3.465a.952.952,0,0,0-.284-.293l-2.3-1.536a.971.971,0,0,1-.431-.807v-.451a.97.97,0,0,0-.97-.97h-.97a.97.97,0,0,1-.97-.97v-1.34a.968.968,0,0,0-.536-.867l-2.806-1.4a.968.968,0,0,1-.536-.867V453.225a.969.969,0,0,0-.212-.606l-1.339-1.674a.97.97,0,0,1-.111-1.039l.59-1.18a.963.963,0,0,0,.1-.433v-1.309a.969.969,0,0,0-.284-.686l-.574-.574a.973.973,0,0,1-.182-.252l-1.282-2.564a1.236,1.236,0,0,1-.113-.432,3.827,3.827,0,0,0-2.412-3.166c-1.331-.532-1.216-.943-.75-1.2a1.273,1.273,0,0,0,.75-1.049v-2.6a.97.97,0,0,1,.97-.97h.906a.968.968,0,0,0,.831-.471l1.111-1.85a.941.941,0,0,1,.145-.187l1.855-1.855.686-.686a.969.969,0,0,0,.284-.686v-.652a.969.969,0,0,1,.284-.686l.4-.4a.969.969,0,0,1,.686-.284h.568a.97.97,0,0,0,.97-.97v-.97a.97.97,0,0,1,.97-.97h.568a.969.969,0,0,0,.686-.284l.4-.4a.969.969,0,0,0,.284-.686v-2.023a.97.97,0,0,1,.97-.97h0a.969.969,0,0,0,.776-.388l1.122-1.5a1.032,1.032,0,0,1,.09-.1l2.376-2.376.686-.686a.969.969,0,0,0,.284-.686v-1.053a.97.97,0,0,1,.97-.97h.485a.97.97,0,0,0,.97-.97v-2.424a.97.97,0,0,1,.97-.97h.216a.961.961,0,0,0,.5-.139l1.743-1.045a.93.93,0,0,0,.451-.8v-.2a.727.727,0,0,1,.727-.727h0a.727.727,0,0,0,.727-.727V401.9a.969.969,0,0,1,.284-.686l1.1-1.1a1.1,1.1,0,0,0,.121-.147l1.886-2.829,3.878-5.333,2.424-2.909,1.655-1.655a.969.969,0,0,0,.284-.686v-1.538a.97.97,0,0,1,.97-.97h0a.97.97,0,0,0,.97-.97v-.97a.97.97,0,0,1,.97-.97h.485a.97.97,0,0,0,.97-.97v-1.454a.97.97,0,0,1,.97-.97h.485a.97.97,0,0,0,.97-.97v-.712a.969.969,0,0,1,.128-.482l1.532-2.681a.968.968,0,0,1,.842-.489h.858a.971.971,0,0,0,.807-.431l.628-.943a1.033,1.033,0,0,1,.121-.147l.853-.853a1.032,1.032,0,0,0,.09-.1l1.219-1.625a.969.969,0,0,0,.194-.582V366.1a.969.969,0,0,1,.388-.776l1.551-1.164,2.424-1.939,3.643-2.277a.971.971,0,0,1,.514-.147h8.933a.97.97,0,0,0,.97-.97v-.485a.97.97,0,0,1,.97-.97h0a.97.97,0,0,0,.97-.97v-1.7a.727.727,0,0,1,.727-.727h0a.727.727,0,0,0,.727-.727V341.621a.727.727,0,0,1,.727-.727h0a.727.727,0,0,0,.727-.727v-4.006a.968.968,0,0,0-.536-.867l-1.836-.919a.968.968,0,0,1-.536-.867v-.37a.97.97,0,0,0-.97-.97h0a.97.97,0,0,1-.97-.97v-7.757a.97.97,0,0,1,.97-.97h.741a.963.963,0,0,0,.433-.1l2.168-1.084a.968.968,0,0,0,.536-.867v-1.34a.97.97,0,0,0-.97-.97h-1.616a.969.969,0,0,1-.582-.194l-1.421-1.067a.972.972,0,0,0-.582-.194H511.5a.97.97,0,0,1-.97-.97V305.5a.97.97,0,0,0-.97-.97h0a.97.97,0,0,1-.97-.97V303a.969.969,0,0,0-.284-.686l-.886-.886a.968.968,0,0,1-.284-.686v-2.023a.97.97,0,0,0-.97-.97h0a.97.97,0,0,1-.97-.97v-1.939a.97.97,0,0,0-.97-.97h-4.814a.97.97,0,0,1-.807-.431l-1.488-2.233a.965.965,0,0,1-.163-.538V288.8a.967.967,0,0,0-.139-.5l-1.255-2.09a.941.941,0,0,0-.145-.187l-1.571-1.571a.969.969,0,0,1-.284-.686v-3.323a.969.969,0,0,1,.588-.891l2.03-.87a.97.97,0,0,0,.554-1.146l-1.145-4.2a.967.967,0,0,0-.354-.521l-1.285-.964a.969.969,0,0,1-.388-.776v-1.377a.968.968,0,0,0-.489-.842l-2.416-1.381a.968.968,0,0,1-.489-.842v-.778a.968.968,0,0,0-.536-.867l-4.745-2.374a.968.968,0,0,1-.536-.867V249.938a.968.968,0,0,1,.629-.908l3.119-1.17a.959.959,0,0,0,.241-.132l1.772-1.329a1.029,1.029,0,0,0,.1-.09l1.122-1.122a.969.969,0,0,0,.284-.686v-.73a.969.969,0,0,0-.194-.582l-1.219-1.625a1.028,1.028,0,0,0-.09-.1l-1.42-1.42a.97.97,0,0,1-.2-1.08l1.585-3.566a.966.966,0,0,0,.083-.394v-1.817a.969.969,0,0,1,.284-.686l1.17-1.17,1.939-1.939,1.727-2.158a.969.969,0,0,0,.212-.606v-1.79a.972.972,0,0,0-.163-.538l-1.677-2.516a1,1,0,0,0-.243-.252l-3.1-2.217a.97.97,0,0,1-.243-.252l-1.748-2.622a.957.957,0,0,0-.225-.239l-3.487-2.615a.971.971,0,0,0-.582-.194h-2.669a.969.969,0,0,1-.686-.284l-1.856-1.856a.969.969,0,0,0-.686-.284H467.447a.967.967,0,0,1-.831-.471l-1.035-1.722a.975.975,0,0,1-.138-.5v-6.519a.97.97,0,0,1,.97-.97h.083a.969.969,0,0,0,.686-.284l2.341-2.341a.969.969,0,0,0,.284-.686V194.6a.968.968,0,0,1,.536-.867l2.806-1.4a.968.968,0,0,0,.536-.867v-1.34a.969.969,0,0,1,.388-.776l1.164-.873a.969.969,0,0,0,.388-.776v-1.1a.966.966,0,0,1,.234-.631l2.675-3.121,2.345-2.813a.937.937,0,0,1,.181-.169l3.292-2.351,3.815-2.384a.945.945,0,0,1,.132-.069l3.325-1.425,3.714-1.392a.971.971,0,0,1,.34-.062h.309a.97.97,0,0,0,.97-.97v-.97a.97.97,0,0,1,.97-.97h1.939a.97.97,0,0,0,.97-.97V143.049a.97.97,0,0,0-.332-.73l-3.216-2.814a.969.969,0,0,1-.331-.73V128.748a.98.98,0,0,0-.079-.382l-1.124-2.623a.969.969,0,0,0-.891-.588h-.331a.97.97,0,0,1-.97-.97v-1.939a.97.97,0,0,0-.97-.97h-.331a.969.969,0,0,1-.891-.588l-1.2-2.806-1.837-3.674a.975.975,0,0,1-.1-.433v-5.8a.971.971,0,0,0-.147-.514l-2.225-3.56a.961.961,0,0,1-.085-.174l-1.421-3.787-1.9-3.8a.991.991,0,0,1-.062-.155l-1.36-4.534a.963.963,0,0,0-.242-.407l-1.967-1.967a.968.968,0,0,1-.284-.686V83.22a.727.727,0,0,0-.727-.727h0a.727.727,0,0,1-.727-.727V75.948a.727.727,0,0,0-.727-.727h0a.727.727,0,0,1-.727-.727V71.342a.97.97,0,0,0-.97-.97h0a.97.97,0,0,1-.97-.97V52.435a.97.97,0,0,0-.97-.97h-.485a.97.97,0,0,1-.97-.97V49.041a.97.97,0,0,0-.97-.97h-.568a.971.971,0,0,1-.686-.284L466.7,45.447a.968.968,0,0,1-.284-.686V43.708a.97.97,0,0,0-.97-.97h-.485a.97.97,0,0,1-.97-.97v-.253a.969.969,0,0,0-.685-.927l-5.316-1.636a.971.971,0,0,1-.491-.345l-.974-1.3a.969.969,0,0,0-.776-.388H454.1a.969.969,0,0,1-.538-.163l-2.42-1.614a.969.969,0,0,0-.538-.163H448.96a.97.97,0,0,1-.97-.97V32.96a.968.968,0,0,0-.284-.686l-1.086-1.086a.957.957,0,0,1-.145-.187l-1.111-1.851a.969.969,0,0,0-.831-.471H438.7a.971.971,0,0,0-.686.284l-.97.97a.684.684,0,0,0-.2.485h0a.686.686,0,0,1-.686.686h-1.22a.971.971,0,0,0-.807.432l-.394.591a.971.971,0,0,1-.807.432h-2.39a.97.97,0,0,0-.97.97v.485a.97.97,0,0,1-.97.97H416.287a.969.969,0,0,0-.538.163l-2.42,1.614a.969.969,0,0,1-.538.163H402.419a.969.969,0,0,0-.776.388l-.873,1.164a.969.969,0,0,1-.776.388H350.946a.971.971,0,0,1-.686-.284l-1.371-1.371a.971.971,0,0,0-.686-.284H332.122a.97.97,0,0,1-.97-.97h0a.97.97,0,0,0-.97-.97H318.548a.969.969,0,0,1-.776-.388l-.873-1.164a.969.969,0,0,0-.776-.388H305.687a.969.969,0,0,1-.433-.1l-.56-.28a.969.969,0,0,0-.433-.1H292.73a.969.969,0,0,0-.635.237l-6.725,5.829a.971.971,0,0,1-.635.237h-4.817a.97.97,0,0,0-.891.588l-.95,2.218a.97.97,0,0,1-.891.588h-4.022a.97.97,0,0,0-.361.069l-4.27,1.708a.971.971,0,0,1-.794-.033l-2.952-1.477a.969.969,0,0,1-.536-.867V38.86m0,0,5.668-1.889a.97.97,0,0,1,.306-.05h4.835a.97.97,0,0,0,.606-.212l2.158-1.727m0,0,2.909-2.424,2.909-2.424Z" fill="none" stroke="#c2ffd7" stroke-width="1"/>
    </g>
  </g>
</svg>
