<svg width="759" height="803" viewBox="0 0 759 803" fill="none" xmlns="http://www.w3.org/2000/svg">
<path d="M322.333 152.198V138.198H331.493V140.558H324.893V149.838H331.573V152.198H322.333ZM323.533 146.198V143.878H330.473V146.198H323.533ZM333.993 152.198V141.658H336.393L336.433 143.818L335.973 144.058C336.106 143.578 336.366 143.144 336.753 142.758C337.14 142.358 337.6 142.038 338.133 141.798C338.666 141.558 339.213 141.438 339.773 141.438C340.573 141.438 341.24 141.598 341.773 141.918C342.32 142.238 342.726 142.718 342.993 143.358C343.273 143.998 343.413 144.798 343.413 145.758V152.198H340.953V145.938C340.953 145.404 340.88 144.964 340.733 144.618C340.586 144.258 340.36 143.998 340.053 143.838C339.746 143.664 339.373 143.584 338.933 143.598C338.573 143.598 338.24 143.658 337.933 143.778C337.64 143.884 337.38 144.044 337.153 144.258C336.94 144.458 336.766 144.691 336.633 144.958C336.513 145.224 336.453 145.518 336.453 145.838V152.198H335.233C334.993 152.198 334.766 152.198 334.553 152.198C334.353 152.198 334.166 152.198 333.993 152.198ZM346.921 152.198V138.978H349.381V152.198H346.921ZM344.841 143.938V141.658H351.681V143.938H344.841ZM356.814 152.398C356.054 152.398 355.394 152.231 354.834 151.898C354.274 151.551 353.847 151.064 353.554 150.438C353.261 149.798 353.114 149.038 353.114 148.158V141.658H355.574V147.638C355.574 148.198 355.661 148.678 355.834 149.078C356.007 149.464 356.261 149.764 356.594 149.978C356.927 150.191 357.327 150.298 357.794 150.298C358.141 150.298 358.454 150.244 358.734 150.138C359.027 150.018 359.281 149.858 359.494 149.658C359.707 149.444 359.874 149.198 359.994 148.918C360.114 148.624 360.174 148.311 360.174 147.978V141.658H362.634V152.198H360.234L360.194 149.998L360.634 149.758C360.474 150.264 360.201 150.718 359.814 151.118C359.441 151.504 358.994 151.818 358.474 152.058C357.954 152.284 357.401 152.398 356.814 152.398ZM364.677 152.198V150.438L370.177 143.198V143.718H364.677V141.658H372.737V143.418L367.397 150.518L367.317 150.138H372.877V152.198H364.677ZM373.694 156.218L372.754 154.338C373.314 154.338 373.761 154.251 374.094 154.078C374.441 153.904 374.694 153.638 374.854 153.278C375.027 152.918 375.114 152.458 375.114 151.898V141.658H377.574V152.478C377.574 153.264 377.414 153.938 377.094 154.498C376.787 155.058 376.341 155.484 375.754 155.778C375.181 156.071 374.494 156.218 373.694 156.218ZM376.394 139.418C375.887 139.418 375.494 139.298 375.214 139.058C374.947 138.804 374.814 138.451 374.814 137.998C374.814 137.571 374.954 137.224 375.234 136.958C375.514 136.691 375.901 136.558 376.394 136.558C376.887 136.558 377.267 136.684 377.534 136.938C377.814 137.178 377.954 137.531 377.954 137.998C377.954 138.411 377.814 138.751 377.534 139.018C377.254 139.284 376.874 139.418 376.394 139.418ZM384.098 152.398C383.231 152.398 382.445 152.158 381.738 151.678C381.031 151.198 380.465 150.544 380.038 149.718C379.611 148.891 379.398 147.951 379.398 146.898C379.398 145.844 379.611 144.904 380.038 144.078C380.465 143.251 381.045 142.604 381.778 142.138C382.511 141.671 383.338 141.438 384.258 141.438C384.791 141.438 385.278 141.518 385.718 141.678C386.158 141.824 386.545 142.038 386.878 142.318C387.211 142.598 387.485 142.918 387.698 143.278C387.925 143.638 388.078 144.024 388.158 144.438L387.618 144.298V141.658H390.098V152.198H387.598V149.678L388.178 149.578C388.085 149.938 387.911 150.291 387.658 150.638C387.418 150.971 387.111 151.271 386.738 151.538C386.378 151.791 385.971 151.998 385.518 152.158C385.078 152.318 384.605 152.398 384.098 152.398ZM384.778 150.218C385.351 150.218 385.858 150.078 386.298 149.798C386.738 149.518 387.078 149.131 387.318 148.638C387.571 148.131 387.698 147.551 387.698 146.898C387.698 146.258 387.571 145.691 387.318 145.198C387.078 144.704 386.738 144.318 386.298 144.038C385.858 143.758 385.351 143.618 384.778 143.618C384.205 143.618 383.698 143.758 383.258 144.038C382.831 144.318 382.498 144.704 382.258 145.198C382.018 145.691 381.898 146.258 381.898 146.898C381.898 147.551 382.018 148.131 382.258 148.638C382.498 149.131 382.831 149.518 383.258 149.798C383.698 150.078 384.205 150.218 384.778 150.218ZM396.07 152.398C395.137 152.398 394.297 152.244 393.55 151.938C392.817 151.618 392.217 151.164 391.75 150.578L393.35 149.198C393.75 149.651 394.197 149.978 394.69 150.178C395.183 150.378 395.703 150.478 396.25 150.478C396.477 150.478 396.677 150.451 396.85 150.398C397.037 150.344 397.197 150.264 397.33 150.158C397.463 150.051 397.563 149.931 397.63 149.798C397.71 149.651 397.75 149.491 397.75 149.318C397.75 148.998 397.63 148.744 397.39 148.558C397.257 148.464 397.043 148.364 396.75 148.258C396.47 148.151 396.103 148.044 395.65 147.938C394.93 147.751 394.33 147.538 393.85 147.298C393.37 147.044 392.997 146.764 392.73 146.458C392.503 146.204 392.33 145.918 392.21 145.598C392.103 145.278 392.05 144.931 392.05 144.558C392.05 144.091 392.15 143.671 392.35 143.298C392.563 142.911 392.85 142.578 393.21 142.298C393.57 142.018 393.99 141.804 394.47 141.658C394.95 141.511 395.45 141.438 395.97 141.438C396.503 141.438 397.017 141.504 397.51 141.638C398.017 141.771 398.483 141.964 398.91 142.218C399.35 142.458 399.723 142.751 400.03 143.098L398.67 144.598C398.417 144.358 398.137 144.144 397.83 143.958C397.537 143.771 397.237 143.624 396.93 143.518C396.623 143.398 396.337 143.338 396.07 143.338C395.817 143.338 395.59 143.364 395.39 143.418C395.19 143.458 395.023 143.524 394.89 143.618C394.757 143.711 394.65 143.831 394.57 143.978C394.503 144.111 394.47 144.271 394.47 144.458C394.483 144.618 394.523 144.771 394.59 144.918C394.67 145.051 394.777 145.164 394.91 145.258C395.057 145.351 395.277 145.458 395.57 145.578C395.863 145.698 396.243 145.811 396.71 145.918C397.363 146.091 397.91 146.284 398.35 146.498C398.79 146.711 399.137 146.958 399.39 147.238C399.643 147.478 399.823 147.758 399.93 148.078C400.037 148.398 400.09 148.751 400.09 149.138C400.09 149.764 399.91 150.324 399.55 150.818C399.203 151.311 398.723 151.698 398.11 151.978C397.51 152.258 396.83 152.398 396.07 152.398ZM394.51 140.198L393.73 139.018L396.85 136.418L398.21 138.198L394.51 140.198ZM406.377 152.398C405.391 152.398 404.504 152.158 403.717 151.678C402.931 151.198 402.311 150.544 401.857 149.718C401.404 148.891 401.177 147.958 401.177 146.918C401.177 145.878 401.404 144.944 401.857 144.118C402.311 143.291 402.931 142.638 403.717 142.158C404.504 141.678 405.391 141.438 406.377 141.438C407.324 141.438 408.184 141.618 408.957 141.978C409.731 142.338 410.331 142.838 410.757 143.478L409.397 145.118C409.197 144.838 408.944 144.584 408.637 144.358C408.331 144.131 408.004 143.951 407.657 143.818C407.311 143.684 406.964 143.618 406.617 143.618C406.031 143.618 405.504 143.764 405.037 144.058C404.584 144.338 404.224 144.731 403.957 145.238C403.691 145.731 403.557 146.291 403.557 146.918C403.557 147.544 403.691 148.104 403.957 148.598C404.237 149.091 404.611 149.484 405.077 149.778C405.544 150.071 406.064 150.218 406.637 150.218C406.984 150.218 407.317 150.164 407.637 150.058C407.971 149.938 408.284 149.771 408.577 149.558C408.871 149.344 409.144 149.078 409.397 148.758L410.757 150.418C410.304 151.004 409.677 151.484 408.877 151.858C408.091 152.218 407.257 152.398 406.377 152.398ZM412.518 152.198V141.658H414.978V152.198H412.518ZM413.718 139.418C413.225 139.418 412.838 139.298 412.558 139.058C412.292 138.804 412.158 138.451 412.158 137.998C412.158 137.571 412.298 137.224 412.578 136.958C412.858 136.691 413.238 136.558 413.718 136.558C414.225 136.558 414.612 136.684 414.878 136.938C415.158 137.178 415.298 137.531 415.298 137.998C415.298 138.411 415.158 138.751 414.878 139.018C414.598 139.284 414.212 139.418 413.718 139.418ZM422.057 152.198L427.517 138.198H429.957L435.377 152.198H432.677L429.677 144.238C429.61 144.078 429.517 143.824 429.397 143.478C429.29 143.131 429.17 142.758 429.037 142.358C428.903 141.944 428.783 141.564 428.677 141.218C428.57 140.858 428.49 140.598 428.437 140.438L428.937 140.418C428.857 140.684 428.763 140.984 428.657 141.318C428.55 141.651 428.437 141.998 428.317 142.358C428.197 142.718 428.077 143.064 427.957 143.398C427.85 143.731 427.75 144.031 427.657 144.298L424.657 152.198H422.057ZM424.537 148.998L425.437 146.738H431.817L432.777 148.998H424.537ZM436.762 152.198V149.898H439.062V140.498H436.762V138.198H443.962V140.498H441.662V149.898H443.962V152.198H436.762Z" fill="#D7D7D7"/>
<path d="M277.322 285.659V271.659H279.662L287.782 282.599L287.342 282.679C287.289 282.306 287.242 281.926 287.202 281.539C287.162 281.139 287.122 280.726 287.082 280.299C287.056 279.872 287.029 279.426 287.002 278.959C286.989 278.492 286.976 278.006 286.962 277.499C286.949 276.979 286.942 276.432 286.942 275.859V271.659H289.522V285.659H287.142L278.982 274.879L279.502 274.739C279.569 275.486 279.622 276.126 279.662 276.659C279.716 277.179 279.756 277.632 279.782 278.019C279.809 278.392 279.829 278.706 279.842 278.959C279.869 279.212 279.882 279.446 279.882 279.659C279.896 279.859 279.902 280.052 279.902 280.239V285.659H277.322ZM296.419 285.859C295.553 285.859 294.766 285.619 294.059 285.139C293.353 284.659 292.786 284.006 292.359 283.179C291.933 282.352 291.719 281.412 291.719 280.359C291.719 279.306 291.933 278.366 292.359 277.539C292.786 276.712 293.366 276.066 294.099 275.599C294.833 275.132 295.659 274.899 296.579 274.899C297.113 274.899 297.599 274.979 298.039 275.139C298.479 275.286 298.866 275.499 299.199 275.779C299.533 276.059 299.806 276.379 300.019 276.739C300.246 277.099 300.399 277.486 300.479 277.899L299.939 277.759V275.119H302.419V285.659H299.919V283.139L300.499 283.039C300.406 283.399 300.233 283.752 299.979 284.099C299.739 284.432 299.433 284.732 299.059 284.999C298.699 285.252 298.293 285.459 297.839 285.619C297.399 285.779 296.926 285.859 296.419 285.859ZM297.099 283.679C297.673 283.679 298.179 283.539 298.619 283.259C299.059 282.979 299.399 282.592 299.639 282.099C299.893 281.592 300.019 281.012 300.019 280.359C300.019 279.719 299.893 279.152 299.639 278.659C299.399 278.166 299.059 277.779 298.619 277.499C298.179 277.219 297.673 277.079 297.099 277.079C296.526 277.079 296.019 277.219 295.579 277.499C295.153 277.779 294.819 278.166 294.579 278.659C294.339 279.152 294.219 279.719 294.219 280.359C294.219 281.012 294.339 281.592 294.579 282.099C294.819 282.592 295.153 282.979 295.579 283.259C296.019 283.539 296.526 283.679 297.099 283.679ZM308.336 285.859C307.576 285.859 306.916 285.692 306.356 285.359C305.796 285.012 305.369 284.526 305.076 283.899C304.783 283.259 304.636 282.499 304.636 281.619V275.119H307.096V281.099C307.096 281.659 307.183 282.139 307.356 282.539C307.529 282.926 307.783 283.226 308.116 283.439C308.449 283.652 308.849 283.759 309.316 283.759C309.663 283.759 309.976 283.706 310.256 283.599C310.549 283.479 310.803 283.319 311.016 283.119C311.229 282.906 311.396 282.659 311.516 282.379C311.636 282.086 311.696 281.772 311.696 281.439V275.119H314.156V285.659H311.756L311.716 283.459L312.156 283.219C311.996 283.726 311.723 284.179 311.336 284.579C310.963 284.966 310.516 285.279 309.996 285.519C309.476 285.746 308.923 285.859 308.336 285.859ZM318.939 282.439L318.459 280.139L323.459 275.119H326.739L318.939 282.439ZM316.639 285.659V270.859H319.099V285.659H316.639ZM323.759 285.659L319.879 280.959L321.619 279.479L326.799 285.659H323.759ZM332.388 285.859C331.334 285.859 330.394 285.626 329.568 285.159C328.741 284.679 328.088 284.026 327.608 283.199C327.128 282.372 326.888 281.432 326.888 280.379C326.888 279.326 327.128 278.386 327.608 277.559C328.088 276.732 328.741 276.086 329.568 275.619C330.394 275.139 331.334 274.899 332.388 274.899C333.428 274.899 334.361 275.139 335.188 275.619C336.014 276.086 336.661 276.732 337.128 277.559C337.608 278.386 337.848 279.326 337.848 280.379C337.848 281.432 337.608 282.372 337.128 283.199C336.661 284.026 336.014 284.679 335.188 285.159C334.361 285.626 333.428 285.859 332.388 285.859ZM332.388 283.679C332.961 283.679 333.468 283.532 333.908 283.239C334.361 282.946 334.714 282.552 334.968 282.059C335.234 281.566 335.361 281.006 335.348 280.379C335.361 279.739 335.234 279.172 334.968 278.679C334.714 278.186 334.361 277.799 333.908 277.519C333.468 277.226 332.961 277.079 332.388 277.079C331.814 277.079 331.294 277.226 330.828 277.519C330.374 277.799 330.021 278.192 329.768 278.699C329.514 279.192 329.388 279.752 329.388 280.379C329.388 281.006 329.514 281.566 329.768 282.059C330.021 282.552 330.374 282.946 330.828 283.239C331.294 283.532 331.814 283.679 332.388 283.679ZM341.737 285.659L338.197 275.119L340.717 275.099L343.077 282.619L342.637 282.579L345.197 276.699H346.677L349.297 282.579L348.777 282.639L351.157 275.119H353.677L350.117 285.659H348.357L345.657 279.339L346.037 279.379L343.477 285.659H341.737ZM359.315 285.859C358.328 285.859 357.442 285.619 356.655 285.139C355.868 284.659 355.248 284.006 354.795 283.179C354.342 282.352 354.115 281.419 354.115 280.379C354.115 279.339 354.342 278.406 354.795 277.579C355.248 276.752 355.868 276.099 356.655 275.619C357.442 275.139 358.328 274.899 359.315 274.899C360.262 274.899 361.122 275.079 361.895 275.439C362.668 275.799 363.268 276.299 363.695 276.939L362.335 278.579C362.135 278.299 361.882 278.046 361.575 277.819C361.268 277.592 360.942 277.412 360.595 277.279C360.248 277.146 359.902 277.079 359.555 277.079C358.968 277.079 358.442 277.226 357.975 277.519C357.522 277.799 357.162 278.192 356.895 278.699C356.628 279.192 356.495 279.752 356.495 280.379C356.495 281.006 356.628 281.566 356.895 282.059C357.175 282.552 357.548 282.946 358.015 283.239C358.482 283.532 359.002 283.679 359.575 283.679C359.922 283.679 360.255 283.626 360.575 283.519C360.908 283.399 361.222 283.232 361.515 283.019C361.808 282.806 362.082 282.539 362.335 282.219L363.695 283.879C363.242 284.466 362.615 284.946 361.815 285.319C361.028 285.679 360.195 285.859 359.315 285.859ZM366.483 290.259L368.723 285.079L368.743 286.719L363.543 275.119H366.383L369.283 281.999C369.376 282.172 369.47 282.406 369.563 282.699C369.656 282.979 369.736 283.259 369.803 283.539L369.303 283.699C369.396 283.446 369.496 283.179 369.603 282.899C369.71 282.606 369.81 282.306 369.903 281.999L372.383 275.119H375.243L370.843 285.659L369.043 290.259H366.483ZM382.137 285.659V275.119H384.597V285.659H382.137ZM383.337 272.879C382.843 272.879 382.457 272.759 382.177 272.519C381.91 272.266 381.777 271.912 381.777 271.459C381.777 271.032 381.917 270.686 382.197 270.419C382.477 270.152 382.857 270.019 383.337 270.019C383.843 270.019 384.23 270.146 384.497 270.399C384.777 270.639 384.917 270.992 384.917 271.459C384.917 271.872 384.777 272.212 384.497 272.479C384.217 272.746 383.83 272.879 383.337 272.879ZM396.315 285.859C395.382 285.859 394.542 285.706 393.795 285.399C393.062 285.079 392.462 284.626 391.995 284.039L393.595 282.659C393.995 283.112 394.442 283.439 394.935 283.639C395.428 283.839 395.948 283.939 396.495 283.939C396.722 283.939 396.922 283.912 397.095 283.859C397.282 283.806 397.442 283.726 397.575 283.619C397.708 283.512 397.808 283.392 397.875 283.259C397.955 283.112 397.995 282.952 397.995 282.779C397.995 282.459 397.875 282.206 397.635 282.019C397.502 281.926 397.288 281.826 396.995 281.719C396.715 281.612 396.348 281.506 395.895 281.399C395.175 281.212 394.575 280.999 394.095 280.759C393.615 280.506 393.242 280.226 392.975 279.919C392.748 279.666 392.575 279.379 392.455 279.059C392.348 278.739 392.295 278.392 392.295 278.019C392.295 277.552 392.395 277.132 392.595 276.759C392.808 276.372 393.095 276.039 393.455 275.759C393.815 275.479 394.235 275.266 394.715 275.119C395.195 274.972 395.695 274.899 396.215 274.899C396.748 274.899 397.262 274.966 397.755 275.099C398.262 275.232 398.728 275.426 399.155 275.679C399.595 275.919 399.968 276.212 400.275 276.559L398.915 278.059C398.662 277.819 398.382 277.606 398.075 277.419C397.782 277.232 397.482 277.086 397.175 276.979C396.868 276.859 396.582 276.799 396.315 276.799C396.062 276.799 395.835 276.826 395.635 276.879C395.435 276.919 395.268 276.986 395.135 277.079C395.002 277.172 394.895 277.292 394.815 277.439C394.748 277.572 394.715 277.732 394.715 277.919C394.728 278.079 394.768 278.232 394.835 278.379C394.915 278.512 395.022 278.626 395.155 278.719C395.302 278.812 395.522 278.919 395.815 279.039C396.108 279.159 396.488 279.272 396.955 279.379C397.608 279.552 398.155 279.746 398.595 279.959C399.035 280.172 399.382 280.419 399.635 280.699C399.888 280.939 400.068 281.219 400.175 281.539C400.282 281.859 400.335 282.212 400.335 282.599C400.335 283.226 400.155 283.786 399.795 284.279C399.448 284.772 398.968 285.159 398.355 285.439C397.755 285.719 397.075 285.859 396.315 285.859ZM402.102 290.059V275.119H404.522L404.562 277.519L404.142 277.339C404.222 276.926 404.449 276.539 404.822 276.179C405.195 275.806 405.649 275.506 406.182 275.279C406.729 275.052 407.295 274.939 407.882 274.939C408.815 274.939 409.642 275.172 410.362 275.639C411.095 276.106 411.669 276.746 412.082 277.559C412.509 278.372 412.722 279.312 412.722 280.379C412.722 281.432 412.509 282.372 412.082 283.199C411.669 284.012 411.095 284.659 410.362 285.139C409.642 285.606 408.829 285.839 407.922 285.839C407.309 285.839 406.715 285.719 406.142 285.479C405.582 285.239 405.102 284.926 404.702 284.539C404.315 284.152 404.075 283.746 403.982 283.319L404.582 283.039V290.059H402.102ZM407.422 283.659C407.982 283.659 408.482 283.519 408.922 283.239C409.362 282.959 409.702 282.572 409.942 282.079C410.195 281.586 410.322 281.019 410.322 280.379C410.322 279.739 410.202 279.179 409.962 278.699C409.722 278.206 409.382 277.819 408.942 277.539C408.502 277.259 407.995 277.119 407.422 277.119C406.835 277.119 406.322 277.259 405.882 277.539C405.455 277.806 405.115 278.186 404.862 278.679C404.609 279.172 404.482 279.739 404.482 280.379C404.482 281.019 404.609 281.586 404.862 282.079C405.115 282.572 405.455 282.959 405.882 283.239C406.322 283.519 406.835 283.659 407.422 283.659ZM419.454 285.859C418.348 285.859 417.368 285.626 416.514 285.159C415.674 284.692 415.014 284.059 414.534 283.259C414.068 282.446 413.834 281.519 413.834 280.479C413.834 279.652 413.968 278.899 414.234 278.219C414.501 277.539 414.868 276.952 415.334 276.459C415.814 275.952 416.381 275.566 417.034 275.299C417.701 275.019 418.428 274.879 419.214 274.879C419.908 274.879 420.554 275.012 421.154 275.279C421.754 275.546 422.274 275.912 422.714 276.379C423.154 276.832 423.488 277.379 423.714 278.019C423.954 278.646 424.068 279.332 424.054 280.079L424.034 280.939H415.494L415.034 279.259H421.974L421.654 279.599V279.159C421.614 278.746 421.481 278.386 421.254 278.079C421.028 277.759 420.734 277.512 420.374 277.339C420.028 277.152 419.641 277.059 419.214 277.059C418.561 277.059 418.008 277.186 417.554 277.439C417.114 277.692 416.781 278.059 416.554 278.539C416.328 279.006 416.214 279.592 416.214 280.299C416.214 280.979 416.354 281.572 416.634 282.079C416.928 282.586 417.334 282.979 417.854 283.259C418.388 283.526 419.008 283.659 419.714 283.659C420.208 283.659 420.661 283.579 421.074 283.419C421.488 283.259 421.934 282.972 422.414 282.559L423.634 284.259C423.274 284.592 422.861 284.879 422.394 285.119C421.941 285.346 421.461 285.526 420.954 285.659C420.448 285.792 419.948 285.859 419.454 285.859ZM430.353 285.859C429.366 285.859 428.48 285.619 427.693 285.139C426.906 284.659 426.286 284.006 425.833 283.179C425.38 282.352 425.153 281.419 425.153 280.379C425.153 279.339 425.38 278.406 425.833 277.579C426.286 276.752 426.906 276.099 427.693 275.619C428.48 275.139 429.366 274.899 430.353 274.899C431.3 274.899 432.16 275.079 432.933 275.439C433.706 275.799 434.306 276.299 434.733 276.939L433.373 278.579C433.173 278.299 432.92 278.046 432.613 277.819C432.306 277.592 431.98 277.412 431.633 277.279C431.286 277.146 430.94 277.079 430.593 277.079C430.006 277.079 429.48 277.226 429.013 277.519C428.56 277.799 428.2 278.192 427.933 278.699C427.666 279.192 427.533 279.752 427.533 280.379C427.533 281.006 427.666 281.566 427.933 282.059C428.213 282.552 428.586 282.946 429.053 283.239C429.52 283.532 430.04 283.679 430.613 283.679C430.96 283.679 431.293 283.626 431.613 283.519C431.946 283.399 432.26 283.232 432.553 283.019C432.846 282.806 433.12 282.539 433.373 282.219L434.733 283.879C434.28 284.466 433.653 284.946 432.853 285.319C432.066 285.679 431.233 285.859 430.353 285.859ZM435.054 289.679L434.114 287.799C434.674 287.799 435.121 287.712 435.454 287.539C435.801 287.366 436.054 287.099 436.214 286.739C436.388 286.379 436.474 285.919 436.474 285.359V275.119H438.934V285.939C438.934 286.726 438.774 287.399 438.454 287.959C438.148 288.519 437.701 288.946 437.114 289.239C436.541 289.532 435.854 289.679 435.054 289.679ZM437.754 272.879C437.248 272.879 436.854 272.759 436.574 272.519C436.308 272.266 436.174 271.912 436.174 271.459C436.174 271.032 436.314 270.686 436.594 270.419C436.874 270.152 437.261 270.019 437.754 270.019C438.248 270.019 438.628 270.146 438.894 270.399C439.174 270.639 439.314 270.992 439.314 271.459C439.314 271.872 439.174 272.212 438.894 272.479C438.614 272.746 438.234 272.879 437.754 272.879ZM445.458 285.859C444.592 285.859 443.805 285.619 443.098 285.139C442.392 284.659 441.825 284.006 441.398 283.179C440.972 282.352 440.758 281.412 440.758 280.359C440.758 279.306 440.972 278.366 441.398 277.539C441.825 276.712 442.405 276.066 443.138 275.599C443.872 275.132 444.698 274.899 445.618 274.899C446.152 274.899 446.638 274.979 447.078 275.139C447.518 275.286 447.905 275.499 448.238 275.779C448.572 276.059 448.845 276.379 449.058 276.739C449.285 277.099 449.438 277.486 449.518 277.899L448.978 277.759V275.119H451.458V285.659H448.958V283.139L449.538 283.039C449.445 283.399 449.272 283.752 449.018 284.099C448.778 284.432 448.472 284.732 448.098 284.999C447.738 285.252 447.332 285.459 446.878 285.619C446.438 285.779 445.965 285.859 445.458 285.859ZM446.138 283.679C446.712 283.679 447.218 283.539 447.658 283.259C448.098 282.979 448.438 282.592 448.678 282.099C448.932 281.592 449.058 281.012 449.058 280.359C449.058 279.719 448.932 279.152 448.678 278.659C448.438 278.166 448.098 277.779 447.658 277.499C447.218 277.219 446.712 277.079 446.138 277.079C445.565 277.079 445.058 277.219 444.618 277.499C444.192 277.779 443.858 278.166 443.618 278.659C443.378 279.152 443.258 279.719 443.258 280.359C443.258 281.012 443.378 281.592 443.618 282.099C443.858 282.592 444.192 282.979 444.618 283.259C445.058 283.539 445.565 283.679 446.138 283.679ZM453.931 285.659V270.859H456.411V285.659H453.931ZM459.181 285.659V275.119H461.641V285.659H459.181ZM460.381 272.879C459.888 272.879 459.501 272.759 459.221 272.519C458.954 272.266 458.821 271.912 458.821 271.459C458.821 271.032 458.961 270.686 459.241 270.419C459.521 270.152 459.901 270.019 460.381 270.019C460.888 270.019 461.274 270.146 461.541 270.399C461.821 270.639 461.961 270.992 461.961 271.459C461.961 271.872 461.821 272.212 461.541 272.479C461.261 272.746 460.874 272.879 460.381 272.879ZM467.881 285.859C466.947 285.859 466.107 285.706 465.361 285.399C464.627 285.079 464.027 284.626 463.561 284.039L465.161 282.659C465.561 283.112 466.007 283.439 466.501 283.639C466.994 283.839 467.514 283.939 468.061 283.939C468.287 283.939 468.487 283.912 468.661 283.859C468.847 283.806 469.007 283.726 469.141 283.619C469.274 283.512 469.374 283.392 469.441 283.259C469.521 283.112 469.561 282.952 469.561 282.779C469.561 282.459 469.441 282.206 469.201 282.019C469.067 281.926 468.854 281.826 468.561 281.719C468.281 281.612 467.914 281.506 467.461 281.399C466.741 281.212 466.141 280.999 465.661 280.759C465.181 280.506 464.807 280.226 464.541 279.919C464.314 279.666 464.141 279.379 464.021 279.059C463.914 278.739 463.861 278.392 463.861 278.019C463.861 277.552 463.961 277.132 464.161 276.759C464.374 276.372 464.661 276.039 465.021 275.759C465.381 275.479 465.801 275.266 466.281 275.119C466.761 274.972 467.261 274.899 467.781 274.899C468.314 274.899 468.827 274.966 469.321 275.099C469.827 275.232 470.294 275.426 470.721 275.679C471.161 275.919 471.534 276.212 471.841 276.559L470.481 278.059C470.227 277.819 469.947 277.606 469.641 277.419C469.347 277.232 469.047 277.086 468.741 276.979C468.434 276.859 468.147 276.799 467.881 276.799C467.627 276.799 467.401 276.826 467.201 276.879C467.001 276.919 466.834 276.986 466.701 277.079C466.567 277.172 466.461 277.292 466.381 277.439C466.314 277.572 466.281 277.732 466.281 277.919C466.294 278.079 466.334 278.232 466.401 278.379C466.481 278.512 466.587 278.626 466.721 278.719C466.867 278.812 467.087 278.919 467.381 279.039C467.674 279.159 468.054 279.272 468.521 279.379C469.174 279.552 469.721 279.746 470.161 279.959C470.601 280.172 470.947 280.419 471.201 280.699C471.454 280.939 471.634 281.219 471.741 281.539C471.847 281.859 471.901 282.212 471.901 282.599C471.901 283.226 471.721 283.786 471.361 284.279C471.014 284.772 470.534 285.159 469.921 285.439C469.321 285.719 468.641 285.859 467.881 285.859ZM466.321 273.659L465.541 272.479L468.661 269.879L470.021 271.659L466.321 273.659ZM478.188 285.859C477.201 285.859 476.314 285.619 475.528 285.139C474.741 284.659 474.121 284.006 473.668 283.179C473.214 282.352 472.988 281.419 472.988 280.379C472.988 279.339 473.214 278.406 473.668 277.579C474.121 276.752 474.741 276.099 475.528 275.619C476.314 275.139 477.201 274.899 478.188 274.899C479.134 274.899 479.994 275.079 480.768 275.439C481.541 275.799 482.141 276.299 482.568 276.939L481.208 278.579C481.008 278.299 480.754 278.046 480.448 277.819C480.141 277.592 479.814 277.412 479.468 277.279C479.121 277.146 478.774 277.079 478.428 277.079C477.841 277.079 477.314 277.226 476.848 277.519C476.394 277.799 476.034 278.192 475.768 278.699C475.501 279.192 475.368 279.752 475.368 280.379C475.368 281.006 475.501 281.566 475.768 282.059C476.048 282.552 476.421 282.946 476.888 283.239C477.354 283.532 477.874 283.679 478.448 283.679C478.794 283.679 479.128 283.626 479.448 283.519C479.781 283.399 480.094 283.232 480.388 283.019C480.681 282.806 480.954 282.539 481.208 282.219L482.568 283.879C482.114 284.466 481.488 284.946 480.688 285.319C479.901 285.679 479.068 285.859 478.188 285.859ZM484.329 285.659V275.119H486.789V285.659H484.329ZM485.529 272.879C485.035 272.879 484.649 272.759 484.369 272.519C484.102 272.266 483.969 271.912 483.969 271.459C483.969 271.032 484.109 270.686 484.389 270.419C484.669 270.152 485.049 270.019 485.529 270.019C486.035 270.019 486.422 270.146 486.689 270.399C486.969 270.639 487.109 270.992 487.109 271.459C487.109 271.872 486.969 272.212 486.689 272.479C486.409 272.746 486.022 272.879 485.529 272.879Z" fill="#D7D7D7"/>
<path d="M346.763 430.358C345.95 430.358 345.203 430.258 344.523 430.058C343.843 429.844 343.23 429.531 342.683 429.118C342.137 428.704 341.65 428.204 341.223 427.618L342.923 425.698C343.577 426.604 344.217 427.231 344.843 427.578C345.47 427.924 346.177 428.098 346.963 428.098C347.417 428.098 347.83 428.031 348.203 427.898C348.577 427.751 348.87 427.558 349.083 427.318C349.297 427.064 349.403 426.778 349.403 426.458C349.403 426.231 349.357 426.024 349.263 425.838C349.183 425.638 349.057 425.464 348.883 425.318C348.71 425.158 348.497 425.011 348.243 424.878C347.99 424.744 347.703 424.631 347.383 424.538C347.063 424.444 346.71 424.358 346.323 424.278C345.59 424.131 344.95 423.938 344.403 423.698C343.857 423.444 343.397 423.138 343.023 422.778C342.65 422.404 342.377 421.991 342.203 421.538C342.03 421.071 341.943 420.544 341.943 419.958C341.943 419.371 342.07 418.831 342.323 418.338C342.59 417.844 342.95 417.418 343.403 417.058C343.857 416.698 344.383 416.418 344.983 416.218C345.583 416.018 346.23 415.918 346.923 415.918C347.71 415.918 348.41 416.011 349.023 416.198C349.65 416.384 350.197 416.664 350.663 417.038C351.143 417.398 351.537 417.838 351.843 418.358L350.123 420.058C349.857 419.644 349.557 419.304 349.223 419.038C348.89 418.758 348.53 418.551 348.143 418.418C347.757 418.271 347.35 418.198 346.923 418.198C346.443 418.198 346.023 418.264 345.663 418.398C345.317 418.531 345.043 418.724 344.843 418.978C344.643 419.218 344.543 419.511 344.543 419.858C344.543 420.124 344.603 420.364 344.723 420.578C344.843 420.778 345.01 420.958 345.223 421.118C345.45 421.278 345.737 421.418 346.083 421.538C346.43 421.658 346.823 421.764 347.263 421.858C347.997 422.004 348.657 422.204 349.243 422.458C349.83 422.698 350.33 422.991 350.743 423.338C351.157 423.671 351.47 424.058 351.683 424.498C351.897 424.924 352.003 425.404 352.003 425.938C352.003 426.858 351.783 427.651 351.343 428.318C350.917 428.971 350.31 429.478 349.523 429.838C348.737 430.184 347.817 430.358 346.763 430.358ZM355.162 430.158V416.938H357.622V430.158H355.162ZM353.082 421.898V419.618H359.922V421.898H353.082ZM365.278 430.358C364.412 430.358 363.625 430.118 362.918 429.638C362.212 429.158 361.645 428.504 361.218 427.678C360.792 426.851 360.578 425.911 360.578 424.858C360.578 423.804 360.792 422.864 361.218 422.038C361.645 421.211 362.225 420.564 362.958 420.098C363.692 419.631 364.518 419.398 365.438 419.398C365.972 419.398 366.458 419.478 366.898 419.638C367.338 419.784 367.725 419.998 368.058 420.278C368.392 420.558 368.665 420.878 368.878 421.238C369.105 421.598 369.258 421.984 369.338 422.398L368.798 422.258V419.618H371.278V430.158H368.778V427.638L369.358 427.538C369.265 427.898 369.092 428.251 368.838 428.598C368.598 428.931 368.292 429.231 367.918 429.498C367.558 429.751 367.152 429.958 366.698 430.118C366.258 430.278 365.785 430.358 365.278 430.358ZM365.958 428.178C366.532 428.178 367.038 428.038 367.478 427.758C367.918 427.478 368.258 427.091 368.498 426.598C368.752 426.091 368.878 425.511 368.878 424.858C368.878 424.218 368.752 423.651 368.498 423.158C368.258 422.664 367.918 422.278 367.478 421.998C367.038 421.718 366.532 421.578 365.958 421.578C365.385 421.578 364.878 421.718 364.438 421.998C364.012 422.278 363.678 422.664 363.438 423.158C363.198 423.651 363.078 424.218 363.078 424.858C363.078 425.511 363.198 426.091 363.438 426.598C363.678 427.091 364.012 427.478 364.438 427.758C364.878 428.038 365.385 428.178 365.958 428.178ZM373.73 430.158V419.618H376.15L376.19 422.978L375.85 422.218C375.997 421.684 376.25 421.204 376.61 420.778C376.97 420.351 377.384 420.018 377.85 419.778C378.33 419.524 378.83 419.398 379.35 419.398C379.577 419.398 379.79 419.418 379.99 419.458C380.204 419.498 380.377 419.544 380.51 419.598L379.85 422.298C379.704 422.218 379.524 422.151 379.31 422.098C379.097 422.044 378.884 422.018 378.67 422.018C378.337 422.018 378.017 422.084 377.71 422.218C377.417 422.338 377.157 422.511 376.93 422.738C376.704 422.964 376.524 423.231 376.39 423.538C376.27 423.831 376.21 424.164 376.21 424.538V430.158H373.73ZM383.279 430.158V416.938H385.739V430.158H383.279ZM381.199 421.898V419.618H388.039V421.898H381.199ZM393.172 430.358C392.412 430.358 391.752 430.191 391.192 429.858C390.632 429.511 390.206 429.024 389.912 428.398C389.619 427.758 389.472 426.998 389.472 426.118V419.618H391.932V425.598C391.932 426.158 392.019 426.638 392.192 427.038C392.366 427.424 392.619 427.724 392.952 427.938C393.286 428.151 393.686 428.258 394.152 428.258C394.499 428.258 394.812 428.204 395.092 428.098C395.386 427.978 395.639 427.818 395.852 427.618C396.066 427.404 396.232 427.158 396.352 426.878C396.472 426.584 396.532 426.271 396.532 425.938V419.618H398.992V430.158H396.592L396.552 427.958L396.992 427.718C396.832 428.224 396.559 428.678 396.172 429.078C395.799 429.464 395.352 429.778 394.832 430.018C394.312 430.244 393.759 430.358 393.172 430.358ZM401.476 434.558V419.618H403.896L403.936 422.018L403.516 421.838C403.596 421.424 403.822 421.038 404.196 420.678C404.569 420.304 405.022 420.004 405.556 419.778C406.102 419.551 406.669 419.438 407.256 419.438C408.189 419.438 409.016 419.671 409.736 420.138C410.469 420.604 411.042 421.244 411.456 422.058C411.882 422.871 412.096 423.811 412.096 424.878C412.096 425.931 411.882 426.871 411.456 427.698C411.042 428.511 410.469 429.158 409.736 429.638C409.016 430.104 408.202 430.338 407.296 430.338C406.682 430.338 406.089 430.218 405.516 429.978C404.956 429.738 404.476 429.424 404.076 429.038C403.689 428.651 403.449 428.244 403.356 427.818L403.956 427.538V434.558H401.476ZM406.796 428.158C407.356 428.158 407.856 428.018 408.296 427.738C408.736 427.458 409.076 427.071 409.316 426.578C409.569 426.084 409.696 425.518 409.696 424.878C409.696 424.238 409.576 423.678 409.336 423.198C409.096 422.704 408.756 422.318 408.316 422.038C407.876 421.758 407.369 421.618 406.796 421.618C406.209 421.618 405.696 421.758 405.256 422.038C404.829 422.304 404.489 422.684 404.236 423.178C403.982 423.671 403.856 424.238 403.856 424.878C403.856 425.518 403.982 426.084 404.236 426.578C404.489 427.071 404.829 427.458 405.256 427.738C405.696 428.018 406.209 428.158 406.796 428.158ZM415.097 434.758L417.337 429.578L417.357 431.218L412.157 419.618H414.997L417.897 426.498C417.991 426.671 418.084 426.904 418.177 427.198C418.271 427.478 418.351 427.758 418.417 428.038L417.917 428.198C418.011 427.944 418.111 427.678 418.217 427.398C418.324 427.104 418.424 426.804 418.517 426.498L420.997 419.618H423.857L419.457 430.158L417.657 434.758H415.097Z" fill="#D7D7D7"/>
<path d="M310.713 577.765V563.765H316.533C317.333 563.765 318.053 563.958 318.693 564.345C319.346 564.732 319.866 565.258 320.253 565.925C320.64 566.592 320.833 567.338 320.833 568.165C320.833 569.005 320.64 569.765 320.253 570.445C319.866 571.112 319.346 571.645 318.693 572.045C318.053 572.445 317.333 572.645 316.533 572.645H313.313V577.765H310.713ZM313.313 570.245H316.353C316.686 570.245 316.986 570.152 317.253 569.965C317.533 569.778 317.753 569.532 317.913 569.225C318.086 568.918 318.173 568.572 318.173 568.185C318.173 567.798 318.086 567.458 317.913 567.165C317.753 566.858 317.533 566.618 317.253 566.445C316.986 566.258 316.686 566.165 316.353 566.165H313.313V570.245ZM322.744 577.765V567.225H325.164L325.204 570.585L324.864 569.825C325.011 569.292 325.264 568.812 325.624 568.385C325.984 567.958 326.397 567.625 326.864 567.385C327.344 567.132 327.844 567.005 328.364 567.005C328.591 567.005 328.804 567.025 329.004 567.065C329.217 567.105 329.391 567.152 329.524 567.205L328.864 569.905C328.717 569.825 328.537 569.758 328.324 569.705C328.111 569.652 327.897 569.625 327.684 569.625C327.351 569.625 327.031 569.692 326.724 569.825C326.431 569.945 326.171 570.118 325.944 570.345C325.717 570.572 325.537 570.838 325.404 571.145C325.284 571.438 325.224 571.772 325.224 572.145V577.765H322.744ZM330.322 577.765V576.005L335.822 568.765V569.285H330.322V567.225H338.382V568.985L333.042 576.085L332.962 575.705H338.522V577.765H330.322ZM345.243 577.965C344.137 577.965 343.157 577.732 342.303 577.265C341.463 576.798 340.803 576.165 340.323 575.365C339.857 574.552 339.623 573.625 339.623 572.585C339.623 571.758 339.757 571.005 340.023 570.325C340.29 569.645 340.657 569.058 341.123 568.565C341.603 568.058 342.17 567.672 342.823 567.405C343.49 567.125 344.217 566.985 345.003 566.985C345.697 566.985 346.343 567.118 346.943 567.385C347.543 567.652 348.063 568.018 348.503 568.485C348.943 568.938 349.277 569.485 349.503 570.125C349.743 570.752 349.857 571.438 349.843 572.185L349.823 573.045H341.283L340.823 571.365H347.763L347.443 571.705V571.265C347.403 570.852 347.27 570.492 347.043 570.185C346.817 569.865 346.523 569.618 346.163 569.445C345.817 569.258 345.43 569.165 345.003 569.165C344.35 569.165 343.797 569.292 343.343 569.545C342.903 569.798 342.57 570.165 342.343 570.645C342.117 571.112 342.003 571.698 342.003 572.405C342.003 573.085 342.143 573.678 342.423 574.185C342.717 574.692 343.123 575.085 343.643 575.365C344.177 575.632 344.797 575.765 345.503 575.765C345.997 575.765 346.45 575.685 346.863 575.525C347.277 575.365 347.723 575.078 348.203 574.665L349.423 576.365C349.063 576.698 348.65 576.985 348.183 577.225C347.73 577.452 347.25 577.632 346.743 577.765C346.237 577.898 345.737 577.965 345.243 577.965ZM355.862 577.965C354.929 577.965 354.089 577.732 353.342 577.265C352.609 576.785 352.022 576.138 351.582 575.325C351.156 574.498 350.942 573.552 350.942 572.485C350.942 571.432 351.156 570.492 351.582 569.665C352.009 568.838 352.589 568.192 353.322 567.725C354.069 567.245 354.909 567.005 355.842 567.005C356.349 567.005 356.836 567.085 357.302 567.245C357.782 567.405 358.209 567.625 358.582 567.905C358.956 568.172 359.249 568.472 359.462 568.805C359.689 569.138 359.816 569.485 359.842 569.845L359.182 569.925V562.965H361.642V577.765H359.262L359.202 575.285L359.682 575.325C359.669 575.658 359.549 575.978 359.322 576.285C359.109 576.592 358.829 576.872 358.482 577.125C358.136 577.378 357.729 577.585 357.262 577.745C356.809 577.892 356.342 577.965 355.862 577.965ZM356.342 575.885C356.916 575.885 357.422 575.738 357.862 575.445C358.302 575.152 358.642 574.752 358.882 574.245C359.136 573.738 359.262 573.152 359.262 572.485C359.262 571.832 359.136 571.252 358.882 570.745C358.642 570.225 358.302 569.825 357.862 569.545C357.422 569.252 356.916 569.105 356.342 569.105C355.769 569.105 355.262 569.252 354.822 569.545C354.382 569.825 354.036 570.225 353.782 570.745C353.542 571.252 353.422 571.832 353.422 572.485C353.422 573.152 353.542 573.738 353.782 574.245C354.036 574.752 354.382 575.152 354.822 575.445C355.262 575.738 355.769 575.885 356.342 575.885ZM367.555 577.965C366.621 577.965 365.781 577.812 365.035 577.505C364.301 577.185 363.701 576.732 363.235 576.145L364.835 574.765C365.235 575.218 365.681 575.545 366.175 575.745C366.668 575.945 367.188 576.045 367.735 576.045C367.961 576.045 368.161 576.018 368.335 575.965C368.521 575.912 368.681 575.832 368.815 575.725C368.948 575.618 369.048 575.498 369.115 575.365C369.195 575.218 369.235 575.058 369.235 574.885C369.235 574.565 369.115 574.312 368.875 574.125C368.741 574.032 368.528 573.932 368.235 573.825C367.955 573.718 367.588 573.612 367.135 573.505C366.415 573.318 365.815 573.105 365.335 572.865C364.855 572.612 364.481 572.332 364.215 572.025C363.988 571.772 363.815 571.485 363.695 571.165C363.588 570.845 363.535 570.498 363.535 570.125C363.535 569.658 363.635 569.238 363.835 568.865C364.048 568.478 364.335 568.145 364.695 567.865C365.055 567.585 365.475 567.372 365.955 567.225C366.435 567.078 366.935 567.005 367.455 567.005C367.988 567.005 368.501 567.072 368.995 567.205C369.501 567.338 369.968 567.532 370.395 567.785C370.835 568.025 371.208 568.318 371.515 568.665L370.155 570.165C369.901 569.925 369.621 569.712 369.315 569.525C369.021 569.338 368.721 569.192 368.415 569.085C368.108 568.965 367.821 568.905 367.555 568.905C367.301 568.905 367.075 568.932 366.875 568.985C366.675 569.025 366.508 569.092 366.375 569.185C366.241 569.278 366.135 569.398 366.055 569.545C365.988 569.678 365.955 569.838 365.955 570.025C365.968 570.185 366.008 570.338 366.075 570.485C366.155 570.618 366.261 570.732 366.395 570.825C366.541 570.918 366.761 571.025 367.055 571.145C367.348 571.265 367.728 571.378 368.195 571.485C368.848 571.658 369.395 571.852 369.835 572.065C370.275 572.278 370.621 572.525 370.875 572.805C371.128 573.045 371.308 573.325 371.415 573.645C371.521 573.965 371.575 574.318 371.575 574.705C371.575 575.332 371.395 575.892 371.035 576.385C370.688 576.878 370.208 577.265 369.595 577.545C368.995 577.825 368.315 577.965 367.555 577.965ZM374.482 577.765V564.545H376.942V577.765H374.482ZM372.402 569.505V567.225H379.242V569.505H372.402ZM384.598 577.965C383.731 577.965 382.944 577.725 382.238 577.245C381.531 576.765 380.964 576.112 380.538 575.285C380.111 574.458 379.898 573.518 379.898 572.465C379.898 571.412 380.111 570.472 380.538 569.645C380.964 568.818 381.544 568.172 382.278 567.705C383.011 567.238 383.838 567.005 384.758 567.005C385.291 567.005 385.778 567.085 386.218 567.245C386.658 567.392 387.044 567.605 387.378 567.885C387.711 568.165 387.984 568.485 388.198 568.845C388.424 569.205 388.578 569.592 388.658 570.005L388.118 569.865V567.225H390.598V577.765H388.098V575.245L388.678 575.145C388.584 575.505 388.411 575.858 388.158 576.205C387.918 576.538 387.611 576.838 387.238 577.105C386.878 577.358 386.471 577.565 386.018 577.725C385.578 577.885 385.104 577.965 384.598 577.965ZM385.278 575.785C385.851 575.785 386.358 575.645 386.798 575.365C387.238 575.085 387.578 574.698 387.818 574.205C388.071 573.698 388.198 573.118 388.198 572.465C388.198 571.825 388.071 571.258 387.818 570.765C387.578 570.272 387.238 569.885 386.798 569.605C386.358 569.325 385.851 569.185 385.278 569.185C384.704 569.185 384.198 569.325 383.758 569.605C383.331 569.885 382.998 570.272 382.758 570.765C382.518 571.258 382.398 571.825 382.398 572.465C382.398 573.118 382.518 573.698 382.758 574.205C382.998 574.698 383.331 575.085 383.758 575.365C384.198 575.645 384.704 575.785 385.278 575.785ZM395.412 577.765L391.872 567.225L394.392 567.205L396.752 574.725L396.312 574.685L398.872 568.805H400.352L402.972 574.685L402.452 574.745L404.832 567.225H407.352L403.792 577.765H402.032L399.332 571.445L399.712 571.485L397.152 577.765H395.412ZM409.043 577.765V567.225H411.503V577.765H409.043ZM410.243 564.985C409.75 564.985 409.363 564.865 409.083 564.625C408.816 564.372 408.683 564.018 408.683 563.565C408.683 563.138 408.823 562.792 409.103 562.525C409.383 562.258 409.763 562.125 410.243 562.125C410.75 562.125 411.136 562.252 411.403 562.505C411.683 562.745 411.823 563.098 411.823 563.565C411.823 563.978 411.683 564.318 411.403 564.585C411.123 564.852 410.736 564.985 410.243 564.985ZM418.742 577.965C417.756 577.965 416.869 577.725 416.082 577.245C415.296 576.765 414.676 576.112 414.222 575.285C413.769 574.458 413.542 573.525 413.542 572.485C413.542 571.445 413.769 570.512 414.222 569.685C414.676 568.858 415.296 568.205 416.082 567.725C416.869 567.245 417.756 567.005 418.742 567.005C419.689 567.005 420.549 567.185 421.322 567.545C422.096 567.905 422.696 568.405 423.122 569.045L421.762 570.685C421.562 570.405 421.309 570.152 421.002 569.925C420.696 569.698 420.369 569.518 420.022 569.385C419.676 569.252 419.329 569.185 418.982 569.185C418.396 569.185 417.869 569.332 417.402 569.625C416.949 569.905 416.589 570.298 416.322 570.805C416.056 571.298 415.922 571.858 415.922 572.485C415.922 573.112 416.056 573.672 416.322 574.165C416.602 574.658 416.976 575.052 417.442 575.345C417.909 575.638 418.429 575.785 419.002 575.785C419.349 575.785 419.682 575.732 420.002 575.625C420.336 575.505 420.649 575.338 420.942 575.125C421.236 574.912 421.509 574.645 421.762 574.325L423.122 575.985C422.669 576.572 422.042 577.052 421.242 577.425C420.456 577.785 419.622 577.965 418.742 577.965ZM424.883 577.765V567.225H427.343V577.765H424.883ZM426.083 564.985C425.59 564.985 425.203 564.865 424.923 564.625C424.657 564.372 424.523 564.018 424.523 563.565C424.523 563.138 424.663 562.792 424.943 562.525C425.223 562.258 425.603 562.125 426.083 562.125C426.59 562.125 426.977 562.252 427.243 562.505C427.523 562.745 427.663 563.098 427.663 563.565C427.663 563.978 427.523 564.318 427.243 564.585C426.963 564.852 426.577 564.985 426.083 564.985ZM435.003 577.965C433.896 577.965 432.916 577.732 432.063 577.265C431.223 576.798 430.563 576.165 430.083 575.365C429.616 574.552 429.383 573.625 429.383 572.585C429.383 571.758 429.516 571.005 429.783 570.325C430.05 569.645 430.416 569.058 430.883 568.565C431.363 568.058 431.93 567.672 432.583 567.405C433.25 567.125 433.976 566.985 434.763 566.985C435.456 566.985 436.103 567.118 436.703 567.385C437.303 567.652 437.823 568.018 438.263 568.485C438.703 568.938 439.036 569.485 439.263 570.125C439.503 570.752 439.616 571.438 439.603 572.185L439.583 573.045H431.043L430.583 571.365H437.523L437.203 571.705V571.265C437.163 570.852 437.03 570.492 436.803 570.185C436.576 569.865 436.283 569.618 435.923 569.445C435.576 569.258 435.19 569.165 434.763 569.165C434.11 569.165 433.556 569.292 433.103 569.545C432.663 569.798 432.33 570.165 432.103 570.645C431.876 571.112 431.763 571.698 431.763 572.405C431.763 573.085 431.903 573.678 432.183 574.185C432.476 574.692 432.883 575.085 433.403 575.365C433.936 575.632 434.556 575.765 435.263 575.765C435.756 575.765 436.21 575.685 436.623 575.525C437.036 575.365 437.483 575.078 437.963 574.665L439.183 576.365C438.823 576.698 438.41 576.985 437.943 577.225C437.49 577.452 437.01 577.632 436.503 577.765C435.996 577.898 435.496 577.965 435.003 577.965ZM441.402 577.765V562.965H443.882V577.765H441.402ZM451.117 577.965C450.01 577.965 449.03 577.732 448.177 577.265C447.337 576.798 446.677 576.165 446.197 575.365C445.73 574.552 445.497 573.625 445.497 572.585C445.497 571.758 445.63 571.005 445.897 570.325C446.164 569.645 446.53 569.058 446.997 568.565C447.477 568.058 448.044 567.672 448.697 567.405C449.364 567.125 450.09 566.985 450.877 566.985C451.57 566.985 452.217 567.118 452.817 567.385C453.417 567.652 453.937 568.018 454.377 568.485C454.817 568.938 455.15 569.485 455.377 570.125C455.617 570.752 455.73 571.438 455.717 572.185L455.697 573.045H447.157L446.697 571.365H453.637L453.317 571.705V571.265C453.277 570.852 453.144 570.492 452.917 570.185C452.69 569.865 452.397 569.618 452.037 569.445C451.69 569.258 451.304 569.165 450.877 569.165C450.224 569.165 449.67 569.292 449.217 569.545C448.777 569.798 448.444 570.165 448.217 570.645C447.99 571.112 447.877 571.698 447.877 572.405C447.877 573.085 448.017 573.678 448.297 574.185C448.59 574.692 448.997 575.085 449.517 575.365C450.05 575.632 450.67 575.765 451.377 575.765C451.87 575.765 452.324 575.685 452.737 575.525C453.15 575.365 453.597 575.078 454.077 574.665L455.297 576.365C454.937 576.698 454.524 576.985 454.057 577.225C453.604 577.452 453.124 577.632 452.617 577.765C452.11 577.898 451.61 577.965 451.117 577.965ZM348.252 605.965C347.786 605.965 347.326 605.898 346.872 605.765C346.432 605.618 346.032 605.425 345.672 605.185C345.312 604.945 345.012 604.678 344.772 604.385C344.532 604.078 344.372 603.772 344.292 603.465L344.872 603.205L344.812 605.725H342.432V590.965H344.892V597.665L344.452 597.465C344.519 597.145 344.666 596.845 344.892 596.565C345.132 596.272 345.426 596.012 345.772 595.785C346.119 595.545 346.499 595.358 346.912 595.225C347.326 595.078 347.746 595.005 348.172 595.005C349.119 595.005 349.952 595.238 350.672 595.705C351.406 596.172 351.979 596.818 352.392 597.645C352.819 598.472 353.032 599.412 353.032 600.465C353.032 601.532 352.826 602.478 352.412 603.305C351.999 604.132 351.426 604.785 350.692 605.265C349.972 605.732 349.159 605.965 348.252 605.965ZM347.732 603.805C348.292 603.805 348.792 603.665 349.232 603.385C349.672 603.092 350.019 602.698 350.272 602.205C350.526 601.698 350.652 601.118 350.652 600.465C350.652 599.825 350.526 599.258 350.272 598.765C350.032 598.272 349.692 597.885 349.252 597.605C348.812 597.325 348.306 597.185 347.732 597.185C347.159 597.185 346.652 597.325 346.212 597.605C345.772 597.885 345.426 598.272 345.172 598.765C344.919 599.258 344.792 599.825 344.792 600.465C344.792 601.118 344.919 601.698 345.172 602.205C345.426 602.698 345.772 603.092 346.212 603.385C346.652 603.665 347.159 603.805 347.732 603.805ZM355.105 605.765V595.225H357.565V605.765H355.105ZM356.305 592.985C355.812 592.985 355.425 592.865 355.145 592.625C354.879 592.372 354.745 592.018 354.745 591.565C354.745 591.138 354.885 590.792 355.165 590.525C355.445 590.258 355.825 590.125 356.305 590.125C356.812 590.125 357.199 590.252 357.465 590.505C357.745 590.745 357.885 591.098 357.885 591.565C357.885 591.978 357.745 592.318 357.465 592.585C357.185 592.852 356.799 592.985 356.305 592.985ZM359.845 605.765V604.005L365.345 596.765V597.285H359.845V595.225H367.905V596.985L362.565 604.085L362.485 603.705H368.045V605.765H359.845ZM370.021 605.765V595.225H372.421L372.461 597.385L372.001 597.625C372.135 597.145 372.395 596.712 372.781 596.325C373.168 595.925 373.628 595.605 374.161 595.365C374.695 595.125 375.241 595.005 375.801 595.005C376.601 595.005 377.268 595.165 377.801 595.485C378.348 595.805 378.755 596.285 379.021 596.925C379.301 597.565 379.441 598.365 379.441 599.325V605.765H376.981V599.505C376.981 598.972 376.908 598.532 376.761 598.185C376.615 597.825 376.388 597.565 376.081 597.405C375.775 597.232 375.401 597.152 374.961 597.165C374.601 597.165 374.268 597.225 373.961 597.345C373.668 597.452 373.408 597.612 373.181 597.825C372.968 598.025 372.795 598.258 372.661 598.525C372.541 598.792 372.481 599.085 372.481 599.405V605.765H371.261C371.021 605.765 370.795 605.765 370.581 605.765C370.381 605.765 370.195 605.765 370.021 605.765ZM386.749 605.965C385.642 605.965 384.662 605.732 383.809 605.265C382.969 604.798 382.309 604.165 381.829 603.365C381.362 602.552 381.129 601.625 381.129 600.585C381.129 599.758 381.262 599.005 381.529 598.325C381.796 597.645 382.162 597.058 382.629 596.565C383.109 596.058 383.676 595.672 384.329 595.405C384.996 595.125 385.722 594.985 386.509 594.985C387.202 594.985 387.849 595.118 388.449 595.385C389.049 595.652 389.569 596.018 390.009 596.485C390.449 596.938 390.782 597.485 391.009 598.125C391.249 598.752 391.362 599.438 391.349 600.185L391.329 601.045H382.789L382.329 599.365H389.269L388.949 599.705V599.265C388.909 598.852 388.776 598.492 388.549 598.185C388.322 597.865 388.029 597.618 387.669 597.445C387.322 597.258 386.936 597.165 386.509 597.165C385.856 597.165 385.302 597.292 384.849 597.545C384.409 597.798 384.076 598.165 383.849 598.645C383.622 599.112 383.509 599.698 383.509 600.405C383.509 601.085 383.649 601.678 383.929 602.185C384.222 602.692 384.629 603.085 385.149 603.365C385.682 603.632 386.302 603.765 387.009 603.765C387.502 603.765 387.956 603.685 388.369 603.525C388.782 603.365 389.229 603.078 389.709 602.665L390.929 604.365C390.569 604.698 390.156 604.985 389.689 605.225C389.236 605.452 388.756 605.632 388.249 605.765C387.742 605.898 387.242 605.965 386.749 605.965ZM396.648 605.965C395.714 605.965 394.874 605.812 394.128 605.505C393.394 605.185 392.794 604.732 392.328 604.145L393.928 602.765C394.328 603.218 394.774 603.545 395.268 603.745C395.761 603.945 396.281 604.045 396.828 604.045C397.054 604.045 397.254 604.018 397.428 603.965C397.614 603.912 397.774 603.832 397.908 603.725C398.041 603.618 398.141 603.498 398.208 603.365C398.288 603.218 398.328 603.058 398.328 602.885C398.328 602.565 398.208 602.312 397.968 602.125C397.834 602.032 397.621 601.932 397.328 601.825C397.048 601.718 396.681 601.612 396.228 601.505C395.508 601.318 394.908 601.105 394.428 600.865C393.948 600.612 393.574 600.332 393.308 600.025C393.081 599.772 392.908 599.485 392.788 599.165C392.681 598.845 392.628 598.498 392.628 598.125C392.628 597.658 392.728 597.238 392.928 596.865C393.141 596.478 393.428 596.145 393.788 595.865C394.148 595.585 394.568 595.372 395.048 595.225C395.528 595.078 396.028 595.005 396.548 595.005C397.081 595.005 397.594 595.072 398.088 595.205C398.594 595.338 399.061 595.532 399.488 595.785C399.928 596.025 400.301 596.318 400.608 596.665L399.248 598.165C398.994 597.925 398.714 597.712 398.408 597.525C398.114 597.338 397.814 597.192 397.508 597.085C397.201 596.965 396.914 596.905 396.648 596.905C396.394 596.905 396.168 596.932 395.968 596.985C395.768 597.025 395.601 597.092 395.468 597.185C395.334 597.278 395.228 597.398 395.148 597.545C395.081 597.678 395.048 597.838 395.048 598.025C395.061 598.185 395.101 598.338 395.168 598.485C395.248 598.618 395.354 598.732 395.488 598.825C395.634 598.918 395.854 599.025 396.148 599.145C396.441 599.265 396.821 599.378 397.288 599.485C397.941 599.658 398.488 599.852 398.928 600.065C399.368 600.278 399.714 600.525 399.968 600.805C400.221 601.045 400.401 601.325 400.508 601.645C400.614 601.965 400.668 602.318 400.668 602.705C400.668 603.332 400.488 603.892 400.128 604.385C399.781 604.878 399.301 605.265 398.688 605.545C398.088 605.825 397.408 605.965 396.648 605.965ZM406.095 605.965C405.335 605.965 404.675 605.798 404.115 605.465C403.555 605.118 403.128 604.632 402.835 604.005C402.541 603.365 402.395 602.605 402.395 601.725V595.225H404.855V601.205C404.855 601.765 404.941 602.245 405.115 602.645C405.288 603.032 405.541 603.332 405.875 603.545C406.208 603.758 406.608 603.865 407.075 603.865C407.421 603.865 407.735 603.812 408.015 603.705C408.308 603.585 408.561 603.425 408.775 603.225C408.988 603.012 409.155 602.765 409.275 602.485C409.395 602.192 409.455 601.878 409.455 601.545V595.225H411.915V605.765H409.515L409.475 603.565L409.915 603.325C409.755 603.832 409.481 604.285 409.095 604.685C408.721 605.072 408.275 605.385 407.755 605.625C407.235 605.852 406.681 605.965 406.095 605.965ZM420.157 605.765V595.225H422.617V605.765H420.157ZM421.357 592.985C420.864 592.985 420.477 592.865 420.197 592.625C419.93 592.372 419.797 592.018 419.797 591.565C419.797 591.138 419.937 590.792 420.217 590.525C420.497 590.258 420.877 590.125 421.357 590.125C421.864 590.125 422.25 590.252 422.517 590.505C422.797 590.745 422.937 591.098 422.937 591.565C422.937 591.978 422.797 592.318 422.517 592.585C422.237 592.852 421.85 592.985 421.357 592.985ZM332.957 633.765V623.225H335.417V633.765H332.957ZM334.157 620.985C333.663 620.985 333.277 620.865 332.997 620.625C332.73 620.372 332.597 620.018 332.597 619.565C332.597 619.138 332.737 618.792 333.017 618.525C333.297 618.258 333.677 618.125 334.157 618.125C334.663 618.125 335.05 618.252 335.317 618.505C335.597 618.745 335.737 619.098 335.737 619.565C335.737 619.978 335.597 620.318 335.317 620.585C335.037 620.852 334.65 620.985 334.157 620.985ZM338.136 633.765V623.225H340.536L340.576 625.385L340.116 625.625C340.249 625.145 340.509 624.712 340.896 624.325C341.283 623.925 341.743 623.605 342.276 623.365C342.809 623.125 343.356 623.005 343.916 623.005C344.716 623.005 345.383 623.165 345.916 623.485C346.463 623.805 346.869 624.285 347.136 624.925C347.416 625.565 347.556 626.365 347.556 627.325V633.765H345.096V627.505C345.096 626.972 345.023 626.532 344.876 626.185C344.729 625.825 344.503 625.565 344.196 625.405C343.889 625.232 343.516 625.152 343.076 625.165C342.716 625.165 342.383 625.225 342.076 625.345C341.783 625.452 341.523 625.612 341.296 625.825C341.083 626.025 340.909 626.258 340.776 626.525C340.656 626.792 340.596 627.085 340.596 627.405V633.765H339.376C339.136 633.765 338.909 633.765 338.696 633.765C338.496 633.765 338.309 633.765 338.136 633.765ZM352.403 633.765L348.863 623.225L351.383 623.205L353.743 630.725L353.303 630.685L355.863 624.805H357.343L359.963 630.685L359.443 630.745L361.823 623.225H364.343L360.783 633.765H359.023L356.323 627.445L356.703 627.485L354.143 633.765H352.403ZM370.401 633.965C369.294 633.965 368.314 633.732 367.461 633.265C366.621 632.798 365.961 632.165 365.481 631.365C365.014 630.552 364.781 629.625 364.781 628.585C364.781 627.758 364.914 627.005 365.181 626.325C365.448 625.645 365.814 625.058 366.281 624.565C366.761 624.058 367.328 623.672 367.981 623.405C368.648 623.125 369.374 622.985 370.161 622.985C370.854 622.985 371.501 623.118 372.101 623.385C372.701 623.652 373.221 624.018 373.661 624.485C374.101 624.938 374.434 625.485 374.661 626.125C374.901 626.752 375.014 627.438 375.001 628.185L374.981 629.045H366.441L365.981 627.365H372.921L372.601 627.705V627.265C372.561 626.852 372.428 626.492 372.201 626.185C371.974 625.865 371.681 625.618 371.321 625.445C370.974 625.258 370.588 625.165 370.161 625.165C369.508 625.165 368.954 625.292 368.501 625.545C368.061 625.798 367.728 626.165 367.501 626.645C367.274 627.112 367.161 627.698 367.161 628.405C367.161 629.085 367.301 629.678 367.581 630.185C367.874 630.692 368.281 631.085 368.801 631.365C369.334 631.632 369.954 631.765 370.661 631.765C371.154 631.765 371.608 631.685 372.021 631.525C372.434 631.365 372.881 631.078 373.361 630.665L374.581 632.365C374.221 632.698 373.808 632.985 373.341 633.225C372.888 633.452 372.408 633.632 371.901 633.765C371.394 633.898 370.894 633.965 370.401 633.965ZM380.3 633.965C379.366 633.965 378.526 633.812 377.78 633.505C377.046 633.185 376.446 632.732 375.98 632.145L377.58 630.765C377.98 631.218 378.426 631.545 378.92 631.745C379.413 631.945 379.933 632.045 380.48 632.045C380.706 632.045 380.906 632.018 381.08 631.965C381.266 631.912 381.426 631.832 381.56 631.725C381.693 631.618 381.793 631.498 381.86 631.365C381.94 631.218 381.98 631.058 381.98 630.885C381.98 630.565 381.86 630.312 381.62 630.125C381.486 630.032 381.273 629.932 380.98 629.825C380.7 629.718 380.333 629.612 379.88 629.505C379.16 629.318 378.56 629.105 378.08 628.865C377.6 628.612 377.226 628.332 376.96 628.025C376.733 627.772 376.56 627.485 376.44 627.165C376.333 626.845 376.28 626.498 376.28 626.125C376.28 625.658 376.38 625.238 376.58 624.865C376.793 624.478 377.08 624.145 377.44 623.865C377.8 623.585 378.22 623.372 378.7 623.225C379.18 623.078 379.68 623.005 380.2 623.005C380.733 623.005 381.246 623.072 381.74 623.205C382.246 623.338 382.713 623.532 383.14 623.785C383.58 624.025 383.953 624.318 384.26 624.665L382.9 626.165C382.646 625.925 382.366 625.712 382.06 625.525C381.766 625.338 381.466 625.192 381.16 625.085C380.853 624.965 380.566 624.905 380.3 624.905C380.046 624.905 379.82 624.932 379.62 624.985C379.42 625.025 379.253 625.092 379.12 625.185C378.986 625.278 378.88 625.398 378.8 625.545C378.733 625.678 378.7 625.838 378.7 626.025C378.713 626.185 378.753 626.338 378.82 626.485C378.9 626.618 379.006 626.732 379.14 626.825C379.286 626.918 379.506 627.025 379.8 627.145C380.093 627.265 380.473 627.378 380.94 627.485C381.593 627.658 382.14 627.852 382.58 628.065C383.02 628.278 383.366 628.525 383.62 628.805C383.873 629.045 384.053 629.325 384.16 629.645C384.266 629.965 384.32 630.318 384.32 630.705C384.32 631.332 384.14 631.892 383.78 632.385C383.433 632.878 382.953 633.265 382.34 633.545C381.74 633.825 381.06 633.965 380.3 633.965ZM387.227 633.765V620.545H389.687V633.765H387.227ZM385.147 625.505V623.225H391.987V625.505H385.147ZM398.182 633.965C397.129 633.965 396.189 633.732 395.362 633.265C394.536 632.785 393.882 632.132 393.402 631.305C392.922 630.478 392.682 629.538 392.682 628.485C392.682 627.432 392.922 626.492 393.402 625.665C393.882 624.838 394.536 624.192 395.362 623.725C396.189 623.245 397.129 623.005 398.182 623.005C399.222 623.005 400.156 623.245 400.982 623.725C401.809 624.192 402.456 624.838 402.922 625.665C403.402 626.492 403.642 627.432 403.642 628.485C403.642 629.538 403.402 630.478 402.922 631.305C402.456 632.132 401.809 632.785 400.982 633.265C400.156 633.732 399.222 633.965 398.182 633.965ZM398.182 631.785C398.756 631.785 399.262 631.638 399.702 631.345C400.156 631.052 400.509 630.658 400.762 630.165C401.029 629.672 401.156 629.112 401.142 628.485C401.156 627.845 401.029 627.278 400.762 626.785C400.509 626.292 400.156 625.905 399.702 625.625C399.262 625.332 398.756 625.185 398.182 625.185C397.609 625.185 397.089 625.332 396.622 625.625C396.169 625.905 395.816 626.298 395.562 626.805C395.309 627.298 395.182 627.858 395.182 628.485C395.182 629.112 395.309 629.672 395.562 630.165C395.816 630.658 396.169 631.052 396.622 631.345C397.089 631.638 397.609 631.785 398.182 631.785ZM405.443 633.765V623.225H407.863L407.903 626.585L407.563 625.825C407.71 625.292 407.963 624.812 408.323 624.385C408.683 623.958 409.096 623.625 409.563 623.385C410.043 623.132 410.543 623.005 411.063 623.005C411.29 623.005 411.503 623.025 411.703 623.065C411.916 623.105 412.09 623.152 412.223 623.205L411.563 625.905C411.416 625.825 411.236 625.758 411.023 625.705C410.81 625.652 410.596 625.625 410.383 625.625C410.05 625.625 409.73 625.692 409.423 625.825C409.13 625.945 408.87 626.118 408.643 626.345C408.416 626.572 408.236 626.838 408.103 627.145C407.983 627.438 407.923 627.772 407.923 628.145V633.765H405.443ZM413.021 633.765V632.005L418.521 624.765V625.285H413.021V623.225H421.081V624.985L415.741 632.085L415.661 631.705H421.221V633.765H413.021ZM424.798 638.365L427.038 633.185L427.058 634.825L421.858 623.225H424.698L427.598 630.105C427.691 630.278 427.784 630.512 427.878 630.805C427.971 631.085 428.051 631.365 428.118 631.645L427.618 631.805C427.711 631.552 427.811 631.285 427.918 631.005C428.024 630.712 428.124 630.412 428.218 630.105L430.698 623.225H433.558L429.158 633.765L427.358 638.365H424.798Z" fill="#D7D7D7"/>
<path d="M493.972 597.105C493.972 660.039 442.089 711.1 378.036 711.1C313.982 711.1 262.1 660.039 262.1 597.105C262.1 534.17 313.982 483.109 378.036 483.109C442.089 483.109 493.972 534.17 493.972 597.105Z" stroke="#54F98D" stroke-width="3"/>
<path d="M572.262 520.108C572.262 625.567 485.327 711.101 378.035 711.101C270.743 711.101 183.809 625.567 183.809 520.108C183.809 414.649 270.743 329.116 378.035 329.116C485.327 329.116 572.262 414.649 572.262 520.108Z" stroke="#36BB64" stroke-width="3"/>
<path d="M644.68 447.923C644.68 593.248 524.884 711.1 377.056 711.1C229.227 711.1 109.432 593.248 109.432 447.923C109.432 302.598 229.227 184.746 377.056 184.746C524.884 184.746 644.68 302.598 644.68 447.923Z" stroke="#27847B" stroke-width="3"/>
<path d="M693.612 399.8C693.612 571.703 551.909 711.1 377.056 711.1C202.203 711.1 60.5 571.703 60.5 399.8C60.5 227.897 202.203 88.5 377.056 88.5C551.909 88.5 693.612 227.897 693.612 399.8Z" stroke="#1F507E" stroke-width="3"/>
<g filter="url(#filter0_i_255_808)">
<ellipse cx="203.349" cy="450.33" rx="21.0406" ry="20.6929" fill="url(#paint0_radial_255_808)"/>
</g>
<g filter="url(#filter1_i_255_808)">
<ellipse cx="495.471" cy="206.345" rx="23.4872" ry="23.0991" fill="url(#paint1_radial_255_808)"/>
</g>
<g filter="url(#filter2_i_255_808)">
<ellipse cx="161.267" cy="170.253" rx="13.2116" ry="12.9932" fill="url(#paint2_radial_255_808)"/>
</g>
<g filter="url(#filter3_i_255_808)">
<ellipse cx="465.133" cy="522.033" rx="15.6581" ry="15.3994" fill="url(#paint3_radial_255_808)"/>
</g>
<g filter="url(#filter4_i_255_808)">
<ellipse cx="694.624" cy="387.77" rx="12.2329" ry="12.0308" fill="url(#paint4_radial_255_808)"/>
</g>
<g filter="url(#filter5_i_255_808)">
<ellipse cx="378.034" cy="712.601" rx="15.6581" ry="15.3994" fill="url(#paint5_radial_255_808)"/>
</g>
<g clip-path="url(#clip0_255_808)">
<g filter="url(#filter6_f_255_808)">
<path d="M572.5 531C572.5 622.955 486.091 697.5 379.5 697.5C272.909 697.5 186.5 622.955 186.5 531C186.5 439.045 272.909 364.5 379.5 364.5C486.091 364.5 572.5 439.045 572.5 531Z" fill="#46FF86" fill-opacity="0.3"/>
</g>
</g>
<defs>
<filter id="filter0_i_255_808" x="182.309" y="429.637" width="42.0811" height="45.3857" filterUnits="userSpaceOnUse" color-interpolation-filters="sRGB">
<feFlood flood-opacity="0" result="BackgroundImageFix"/>
<feBlend mode="normal" in="SourceGraphic" in2="BackgroundImageFix" result="shape"/>
<feColorMatrix in="SourceAlpha" type="matrix" values="0 0 0 0 0 0 0 0 0 0 0 0 0 0 0 0 0 0 127 0" result="hardAlpha"/>
<feOffset dy="4"/>
<feGaussianBlur stdDeviation="2"/>
<feComposite in2="hardAlpha" operator="arithmetic" k2="-1" k3="1"/>
<feColorMatrix type="matrix" values="0 0 0 0 0 0 0 0 0 0 0 0 0 0 0 0 0 0 0.25 0"/>
<feBlend mode="normal" in2="shape" result="effect1_innerShadow_255_808"/>
</filter>
<filter id="filter1_i_255_808" x="471.983" y="183.246" width="46.9746" height="50.1982" filterUnits="userSpaceOnUse" color-interpolation-filters="sRGB">
<feFlood flood-opacity="0" result="BackgroundImageFix"/>
<feBlend mode="normal" in="SourceGraphic" in2="BackgroundImageFix" result="shape"/>
<feColorMatrix in="SourceAlpha" type="matrix" values="0 0 0 0 0 0 0 0 0 0 0 0 0 0 0 0 0 0 127 0" result="hardAlpha"/>
<feOffset dy="4"/>
<feGaussianBlur stdDeviation="2"/>
<feComposite in2="hardAlpha" operator="arithmetic" k2="-1" k3="1"/>
<feColorMatrix type="matrix" values="0 0 0 0 0 0 0 0 0 0 0 0 0 0 0 0 0 0 0.25 0"/>
<feBlend mode="normal" in2="shape" result="effect1_innerShadow_255_808"/>
</filter>
<filter id="filter2_i_255_808" x="148.056" y="157.26" width="26.4229" height="29.9866" filterUnits="userSpaceOnUse" color-interpolation-filters="sRGB">
<feFlood flood-opacity="0" result="BackgroundImageFix"/>
<feBlend mode="normal" in="SourceGraphic" in2="BackgroundImageFix" result="shape"/>
<feColorMatrix in="SourceAlpha" type="matrix" values="0 0 0 0 0 0 0 0 0 0 0 0 0 0 0 0 0 0 127 0" result="hardAlpha"/>
<feOffset dy="4"/>
<feGaussianBlur stdDeviation="2"/>
<feComposite in2="hardAlpha" operator="arithmetic" k2="-1" k3="1"/>
<feColorMatrix type="matrix" values="0 0 0 0 0 0 0 0 0 0 0 0 0 0 0 0 0 0 0.25 0"/>
<feBlend mode="normal" in2="shape" result="effect1_innerShadow_255_808"/>
</filter>
<filter id="filter3_i_255_808" x="449.475" y="506.633" width="31.3164" height="34.7988" filterUnits="userSpaceOnUse" color-interpolation-filters="sRGB">
<feFlood flood-opacity="0" result="BackgroundImageFix"/>
<feBlend mode="normal" in="SourceGraphic" in2="BackgroundImageFix" result="shape"/>
<feColorMatrix in="SourceAlpha" type="matrix" values="0 0 0 0 0 0 0 0 0 0 0 0 0 0 0 0 0 0 127 0" result="hardAlpha"/>
<feOffset dy="4"/>
<feGaussianBlur stdDeviation="2"/>
<feComposite in2="hardAlpha" operator="arithmetic" k2="-1" k3="1"/>
<feColorMatrix type="matrix" values="0 0 0 0 0 0 0 0 0 0 0 0 0 0 0 0 0 0 0.25 0"/>
<feBlend mode="normal" in2="shape" result="effect1_innerShadow_255_808"/>
</filter>
<filter id="filter4_i_255_808" x="682.391" y="375.739" width="24.4658" height="28.0615" filterUnits="userSpaceOnUse" color-interpolation-filters="sRGB">
<feFlood flood-opacity="0" result="BackgroundImageFix"/>
<feBlend mode="normal" in="SourceGraphic" in2="BackgroundImageFix" result="shape"/>
<feColorMatrix in="SourceAlpha" type="matrix" values="0 0 0 0 0 0 0 0 0 0 0 0 0 0 0 0 0 0 127 0" result="hardAlpha"/>
<feOffset dy="4"/>
<feGaussianBlur stdDeviation="2"/>
<feComposite in2="hardAlpha" operator="arithmetic" k2="-1" k3="1"/>
<feColorMatrix type="matrix" values="0 0 0 0 0 0 0 0 0 0 0 0 0 0 0 0 0 0 0.25 0"/>
<feBlend mode="normal" in2="shape" result="effect1_innerShadow_255_808"/>
</filter>
<filter id="filter5_i_255_808" x="362.376" y="697.201" width="31.3164" height="34.7988" filterUnits="userSpaceOnUse" color-interpolation-filters="sRGB">
<feFlood flood-opacity="0" result="BackgroundImageFix"/>
<feBlend mode="normal" in="SourceGraphic" in2="BackgroundImageFix" result="shape"/>
<feColorMatrix in="SourceAlpha" type="matrix" values="0 0 0 0 0 0 0 0 0 0 0 0 0 0 0 0 0 0 127 0" result="hardAlpha"/>
<feOffset dy="4"/>
<feGaussianBlur stdDeviation="2"/>
<feComposite in2="hardAlpha" operator="arithmetic" k2="-1" k3="1"/>
<feColorMatrix type="matrix" values="0 0 0 0 0 0 0 0 0 0 0 0 0 0 0 0 0 0 0.25 0"/>
<feBlend mode="normal" in2="shape" result="effect1_innerShadow_255_808"/>
</filter>
<filter id="filter6_f_255_808" x="34.4" y="212.4" width="690.2" height="637.2" filterUnits="userSpaceOnUse" color-interpolation-filters="sRGB">
<feFlood flood-opacity="0" result="BackgroundImageFix"/>
<feBlend mode="normal" in="SourceGraphic" in2="BackgroundImageFix" result="shape"/>
<feGaussianBlur stdDeviation="76.05" result="effect1_foregroundBlur_255_808"/>
</filter>
<radialGradient id="paint0_radial_255_808" cx="0" cy="0" r="1" gradientUnits="userSpaceOnUse" gradientTransform="translate(203.349 450.33) rotate(90) scale(20.6929 21.0406)">
<stop stop-color="#54F98D"/>
<stop offset="1" stop-color="#16364D"/>
</radialGradient>
<radialGradient id="paint1_radial_255_808" cx="0" cy="0" r="1" gradientUnits="userSpaceOnUse" gradientTransform="translate(495.471 206.345) rotate(90) scale(23.0991 23.4872)">
<stop stop-color="#54F98D"/>
<stop offset="1" stop-color="#16364D"/>
</radialGradient>
<radialGradient id="paint2_radial_255_808" cx="0" cy="0" r="1" gradientUnits="userSpaceOnUse" gradientTransform="translate(161.267 170.253) rotate(90) scale(12.9932 13.2116)">
<stop stop-color="#54F98D"/>
<stop offset="1" stop-color="#16364D"/>
</radialGradient>
<radialGradient id="paint3_radial_255_808" cx="0" cy="0" r="1" gradientUnits="userSpaceOnUse" gradientTransform="translate(465.133 522.033) rotate(90) scale(15.3994 15.6581)">
<stop stop-color="#54F98D"/>
<stop offset="1" stop-color="#16364D"/>
</radialGradient>
<radialGradient id="paint4_radial_255_808" cx="0" cy="0" r="1" gradientUnits="userSpaceOnUse" gradientTransform="translate(694.624 387.77) rotate(90) scale(12.0308 12.2329)">
<stop stop-color="#54F98D"/>
<stop offset="1" stop-color="#16364D"/>
</radialGradient>
<radialGradient id="paint5_radial_255_808" cx="0" cy="0" r="1" gradientUnits="userSpaceOnUse" gradientTransform="translate(378.034 712.601) rotate(90) scale(15.3994 15.6581)">
<stop stop-color="#54F98D"/>
<stop offset="1" stop-color="#16364D"/>
</radialGradient>
<clipPath id="clip0_255_808">
<rect width="759" height="803" fill="white"/>
</clipPath>
</defs>
</svg>
