<svg width="181" height="86" viewBox="0 0 181 86" fill="none" xmlns="http://www.w3.org/2000/svg">
<g clip-path="url(#clip0_258_966)">
<mask id="mask0_258_966" style="mask-type:luminance" maskUnits="userSpaceOnUse" x="0" y="0" width="181" height="86">
<path d="M181 0H0V85.9998H181V0Z" fill="white"/>
</mask>
<g mask="url(#mask0_258_966)">
<path d="M19.533 21.0025C24.9059 23.3499 27.3271 26.6789 27.163 31.6878C26.9633 37.8634 22.7916 42.392 16.573 42.6544C11.1189 42.8839 5.64915 42.7036 -0.00292969 42.7036V1.75949C5.53065 1.98525 11.0819 1.29664 16.5963 2.20684C20.4788 2.84626 23.7695 4.52721 24.8397 8.59101C26.0369 13.1351 24.9484 17.1623 21.0912 20.1924C20.8022 20.4199 20.4288 20.5433 19.5294 21.0023L19.533 21.0025ZM6.60106 37.2289C9.4715 37.2289 12.0571 37.3541 14.6221 37.1959C17.7499 37.0029 19.7006 34.9914 20.0296 31.9556C20.9533 23.2988 12.352 24.5474 6.60106 24.4876V37.2289ZM6.62437 19.07C8.96047 19.0429 10.9084 19.1373 13.1749 19.0274C16.2661 18.8346 18.2818 16.6647 18.4972 13.4051C18.732 9.85633 17.3252 7.85247 13.8638 7.44152C11.5218 7.16386 9.11773 7.38938 6.62265 7.38938V19.07H6.62437Z" fill="white"/>
<path d="M128.841 42.6597C126.594 42.6597 124.497 42.6597 122.397 42.6577C121.905 40.6772 121.765 3.84018 122.249 0.198651C124.459 -0.0706685 126.693 -0.0661255 128.902 0.212178V19.9431C130.004 20.0686 130.363 19.166 130.953 18.7282C134.57 16.0414 138.501 15.808 142.508 17.4572C146.307 19.0194 148.166 22.1595 148.263 26.1596C148.395 31.5716 148.296 36.9892 148.296 42.6154C146.024 42.9278 143.865 42.8085 141.395 42.6646V30.2251C141.571 25.5278 140.698 21.6666 136.103 21.6056C132.285 21.4937 129.085 24.5103 128.982 28.524C128.804 33.253 129.099 37.9265 128.841 42.6597Z" fill="white"/>
<path d="M57.4309 31.6157H37.8012C37.9661 34.7693 39.2448 36.9795 42.0946 37.8995C46.3944 39.288 50.3058 38.565 53.7091 34.9729C54.7181 36.3191 55.6818 37.6031 56.6002 38.8247C54.0273 43.7389 44.811 44.4411 39.8323 42.7033C34.4266 40.815 31.2176 35.7188 31.3883 29.4701C31.7146 17.459 42.7818 14.3595 50.7234 17.6538C55.6806 19.7098 58.0673 24.7613 57.4309 31.6179V31.6157ZM51.0435 26.6513C50.1213 22.8189 47.9022 21.1581 44.2739 21.4033C40.7165 21.6426 38.6297 23.4728 38.3483 26.6513H51.0435Z" fill="white"/>
<path d="M63.042 17.3628H69.381C70.1977 18.1806 69.3423 19.2878 70.2289 20.0979C73.8341 16.5451 78.0797 15.5019 82.8679 17.2994C86.5836 18.6938 88.8343 21.3922 88.943 25.3827C89.0983 31.0743 88.9817 36.7738 88.9817 42.6332H82.2916C82.2723 37.8481 82.3248 32.8217 82.2838 27.9576C82.1597 24.081 80.3378 21.8629 77.1317 21.6335C73.5699 21.376 70.2539 23.8818 69.9843 27.481C69.6487 32.5632 69.8408 37.5741 69.7863 42.691H63.042V17.3628Z" fill="white"/>
<path d="M156.653 55.8797C158.465 51.8872 160.066 48.246 161.758 44.7933C162.476 43.3295 162.432 42.0969 161.804 40.6292C158.871 33.7861 156.024 26.9061 153.176 20.0284C152.833 19.201 152.519 18.4084 152.076 17.3455H158.949C161.287 23.4904 163.63 29.6507 166.243 36.5189C169.069 29.7781 171.667 23.585 174.287 17.3418H181.001C179.709 20.2792 178.528 23.045 177.287 25.7839C173.22 34.7467 169.038 43.6591 165.113 52.6848C164.641 53.7708 163.705 55.8819 163.705 55.8819L156.653 55.8797Z" fill="white"/>
<path d="M113.891 23.9392C109.729 21.2585 106.048 21.4649 103.31 24.3423C100.652 27.1371 100.423 31.9106 102.795 35.0448C105.29 38.3391 109.027 38.8405 113.911 36.4392C115.211 37.6689 116.074 39.2532 116.984 40.7942C112.151 44.9082 102.972 44.345 98.3828 39.7121C93.5031 34.7841 93.2739 25.989 97.8899 20.7932C102.387 15.7324 111.198 14.9784 117.055 19.3371C116.044 20.8087 115.024 22.2919 113.891 23.9409V23.9392Z" fill="white"/>
<path d="M148.561 71.5227C147.417 71.5343 146.167 71.5227 145.218 71.5112C145.213 70.1881 145.172 68.5738 145.185 67.3662C146.086 67.3908 147.335 67.3662 148.517 67.3662V60.1279H153.439V67.3662H157.789C157.789 67.3662 157.75 70.296 157.763 71.4979H153.439C153.439 73.8143 153.415 76.3371 153.447 78.7018C153.486 81.6313 153.898 81.9439 157.029 81.5098C157.774 82.3881 158.299 83.4323 158.559 84.5552C152.868 87.7993 148.579 85.416 148.563 79.0463C148.557 76.5813 148.563 74.1166 148.563 71.5222L148.561 71.5227Z" fill="white"/>
<path d="M136.562 67.3691H141.102V85.1385C139.689 85.5165 138.189 85.3237 136.562 85.2194V67.3691Z" fill="white"/>
<path d="M139 56.0527C142.675 56.2072 142.929 62.0009 139.124 61.9777C135.182 62.294 135.135 56.1973 139 56.0527Z" fill="white"/>
<path d="M124.234 82.0072C124.415 80.555 125.637 79.5558 127.323 79.6792C131.062 79.8625 130.653 85.7238 126.987 85.529C125.315 85.4537 124.166 84.3141 124.234 82.0072Z" fill="white"/>
</g>
</g>
<defs>
<clipPath id="clip0_258_966">
<rect width="181" height="86" fill="white"/>
</clipPath>
</defs>
</svg>
