<svg xmlns="http://www.w3.org/2000/svg" width="85" height="26" viewBox="0 0 85 26" fill="none">
<path d="M61 25H55V0H63.5762L67.713 10.3731L70 17L72.4888 10.3731L76.4238 0H85V25H79V14.6642V10.4851H78.4753L77.1973 14.6642L73.8341 23.5075H66.1659L62.8027 14.6642L61.5247 10.4851H61V14.6642V25Z" fill="#FFFFFF"/>
<path d="M44.6543 25.5H28V0.5H43.8012C45.6063 0.5 47.1024 0.736318 48.2893 1.20895C49.4763 1.65672 50.3665 2.32836 50.9599 3.22388C51.5534 4.1194 51.8501 5.22637 51.8501 6.54478C51.8501 8.13682 51.3803 9.45522 50.4407 10.5C49.5257 11.5448 47.9144 12.4005 45.6394 12.5H45.6558C48.1533 12.5995 49.9955 13.2736 51.1825 14.3433C52.3942 15.4129 53 16.8184 53 18.5597C53 19.9527 52.7156 21.1716 52.1469 22.2164C51.5781 23.2612 50.6756 24.0697 49.4392 24.6418C48.2275 25.2139 46.6325 25.5 44.6543 25.5ZM34.9362 15.7239V19.194H43.7641C44.6048 19.194 45.1736 19.0821 45.4703 18.8582C45.7918 18.6095 45.9525 18.1368 45.9525 17.4403C45.9525 16.7438 45.8042 16.2836 45.5074 16.0597C45.2107 15.8358 44.6296 15.7239 43.7641 15.7239H34.9362ZM34.9362 6.80597V9.97761H43.0593C43.7765 9.97761 44.2587 9.86567 44.5059 9.64179C44.7532 9.39303 44.8769 8.98259 44.8769 8.41045C44.8769 7.83831 44.7161 7.42786 44.3947 7.1791C44.0979 6.93035 43.591 6.80597 42.8739 6.80597H34.9362Z" fill="#FFFFFF"/>
<rect width="25.0001" height="25.0006" transform="translate(0 0.5)" fill="#C5FD64"/>
<path fill-rule="evenodd" clip-rule="evenodd" d="M12.2937 15.2774L20.5005 4.95266L10.1182 13.0358C7.37533 10.6894 3.85966 9.20406 0 9.00408L25.0001 0.5L15.954 25.5006C15.9181 21.6373 14.5548 18.0878 12.2937 15.2774Z" fill="#024722"/>
</svg>