<svg width="195" height="96" viewBox="0 0 195 96" fill="none" xmlns="http://www.w3.org/2000/svg">
<g clip-path="url(#clip0_258_981)">
<path d="M106.966 23.9592V5.3623H0V29.3799H39.5872V47.969H146.917V23.9592H106.966Z" fill="black"/>
<path d="M195 24.0176H170.959V48.0352H195V24.0176Z" fill="#4FB856"/>
<path d="M170.959 0H146.918V24.0176H170.959V0Z" fill="#FFA0C1"/>
<path d="M98.5649 29.3948V31.0609C98.3535 30.9279 98.0521 30.967 97.7506 30.967H97.0029V41.0809H97.7506C98.0521 41.0809 98.3574 41.1161 98.5649 40.9871V42.6532H93.5969V40.9871C93.8044 41.1201 94.1098 41.0809 94.4151 41.0809H95.1629V30.967H94.4151C94.1098 30.967 93.8083 30.9279 93.5969 31.0609V29.3948H98.5649ZM55.5874 42.6532C57.0281 42.6532 57.6349 41.781 57.6349 40.5334V31.5185C57.6349 30.2709 57.0281 29.3987 55.5874 29.3987H49.766V42.6571H55.5874V42.6532ZM55.0746 40.9871H51.606V31.0609H55.0941C55.5287 31.0609 55.7949 31.3268 55.7949 31.8548V40.1892C55.7949 40.7211 55.5287 40.9871 55.0746 40.9871ZM60.5945 29.3948V42.6532H67.7039V40.9871C67.516 41.0614 67.3242 41.0809 67.152 41.0809H62.4345V36.4581H65.7896C65.9618 36.4581 66.1497 36.4738 66.3416 36.5168V34.8702C66.1537 34.9054 65.9618 34.925 65.7896 34.925H62.4345V30.967H66.8309C66.9993 30.967 67.1911 30.9866 67.3986 31.0609V29.3948H60.5945ZM77.1975 40.5334V39.055C77.1975 38.089 76.9705 37.4828 76.0779 36.7436L72.1552 33.56C71.9085 33.3528 71.795 33.0673 71.795 32.727V31.761C71.795 31.233 72.0612 30.967 72.4762 30.967H76.0779C76.3793 30.967 76.6847 31.0022 76.8922 31.1391V29.3948H71.9986C70.5579 29.3948 69.9511 30.2474 69.9511 31.5146V32.727C69.9511 33.693 70.1781 34.3188 71.0903 35.0384L75.0169 38.2376C75.244 38.4254 75.3575 38.7109 75.3575 39.0511V40.2831C75.3575 40.815 75.1109 41.0809 74.6372 41.0809H70.7145C70.4287 41.0809 70.1273 41.0418 69.9159 40.9089V42.6493H75.15C76.6142 42.6493 77.1975 41.7967 77.1975 40.5295M113.441 40.5334V34.925H110.259C110.086 34.925 109.898 34.9054 109.707 34.8702V36.5168C109.895 36.4777 110.086 36.4581 110.259 36.4581H111.601V40.1892C111.601 40.7211 111.335 40.9871 110.881 40.9871H108.419C107.984 40.9871 107.718 40.7211 107.718 40.1892V31.8548C107.718 31.3229 107.984 31.0609 108.438 31.0609H112.283C112.584 31.0609 112.889 31.1 113.097 31.233V29.3948H107.925C106.485 29.3948 105.878 30.267 105.878 31.5146V40.5295C105.878 41.7771 106.485 42.6493 107.925 42.6493H111.394C112.835 42.6493 113.441 41.7771 113.441 40.5295M134.68 42.6532H136.786V29.3948H135.079V39.321L130.98 29.3948H128.858V42.6532H130.565V32.727L134.676 42.6532H134.68ZM87.1217 10.7744V12.4405C86.9142 12.3075 86.6089 12.3466 86.3074 12.3466H85.5597V22.4606H86.3074C86.6089 22.4606 86.9142 22.4997 87.1217 22.3667V24.0328H82.1538V22.3667C82.3612 22.4997 82.6666 22.4606 82.968 22.4606H83.7158V12.3466H82.968C82.6666 12.3466 82.3612 12.3075 82.1538 12.4405V10.7744H87.1217ZM35.739 24.0328H37.8452V10.7744H36.1383V20.7006L32.0394 10.7744H29.9176V24.0328H31.6244V14.1066L35.7351 24.0328H35.739ZM19.0694 21.913C19.0694 23.1645 19.6762 24.0367 21.1169 24.0367H24.8909C26.3315 24.0367 26.9383 23.1645 26.9383 21.913V12.8981C26.9383 11.6466 26.3315 10.7783 24.8909 10.7783H21.1169C19.6762 10.7783 19.0694 11.6505 19.0694 12.8981V21.913ZM25.1023 21.5728C25.1023 22.1007 24.8361 22.3667 24.3819 22.3667H21.6141C21.1796 22.3667 20.9133 22.1007 20.9133 21.5728V13.2384C20.9133 12.7065 21.1796 12.4444 21.6337 12.4444H24.4015C24.8361 12.4444 25.1023 12.7104 25.1023 13.2384V21.5728ZM49.766 21.913C49.766 23.1645 50.3728 24.0367 51.8135 24.0367H55.5835C57.0242 24.0367 57.631 23.1645 57.631 21.913V12.8981C57.631 11.6466 57.0242 10.7783 55.5835 10.7783H51.8135C50.3728 10.7783 49.766 11.6505 49.766 12.8981V21.913ZM55.7949 21.5728C55.7949 22.1007 55.5287 22.3667 55.0746 22.3667H52.3067C51.8722 22.3667 51.606 22.1007 51.606 21.5728V13.2384C51.606 12.7065 51.8722 12.4444 52.3263 12.4444H55.0941C55.5287 12.4444 55.7949 12.7104 55.7949 13.2384V21.5728ZM65.7661 12.4405C66.2046 12.4405 66.4708 12.7065 66.4708 13.2344V16.0778C66.4708 16.6097 66.2046 16.8717 65.7661 16.8717H62.4306V12.4366H65.7661V12.4405ZM66.5256 18.3149H66.6587C67.3477 18.3149 68.3068 17.8807 68.3068 16.2498V12.8942C68.3068 11.6427 67.7 10.7744 66.2594 10.7744H60.5906V24.0328H62.4306V18.487H64.7991L66.9405 24.0328H68.9489L66.5217 18.3149H66.5256ZM77.2602 24.0328C78.7008 24.0328 79.3076 23.1606 79.3076 21.9091V12.8942C79.3076 11.6427 78.7008 10.7744 77.2602 10.7744H71.4387V24.0328H77.2602ZM76.7512 22.3667H73.2826V12.4405H76.7708C77.2093 12.4405 77.4716 12.7065 77.4716 13.2344V21.5688C77.4716 22.0968 77.2054 22.3628 76.7512 22.3628M95.7814 20.9274L96.5605 24.0328H98.6471L95.159 10.7744H92.8296L89.2632 24.0328H91.2715L92.031 20.9274H95.7854H95.7814ZM92.3168 19.3826L93.9219 12.9724L95.5113 19.3826H92.3168ZM43.3847 12.4405H46.6184C46.9003 12.4405 47.2057 12.4796 47.4131 12.6126V10.7744H42.868C41.4273 10.7744 40.8205 11.6466 40.8205 12.8942V21.9091C40.8205 23.1606 41.4273 24.0328 42.868 24.0328H47.4131V22.1946C47.2057 22.3276 46.9003 22.3667 46.6184 22.3667H43.3612C42.9267 22.3667 42.6605 22.1007 42.6605 21.5728V13.2384C42.6605 12.7065 42.9267 12.4444 43.3808 12.4444M12.7195 12.4405H15.9571C16.2429 12.4405 16.5443 12.4796 16.7518 12.6126V10.7744H12.2067C10.766 10.7744 10.1592 11.6466 10.1592 12.8942V21.9091C10.1592 23.1606 10.766 24.0328 12.2067 24.0328H16.7518V22.1946C16.5443 22.3276 16.239 22.3667 15.9571 22.3667H12.6999C12.2654 22.3667 11.9992 22.1007 11.9992 21.5728V13.2384C11.9992 12.7065 12.2615 12.4444 12.7195 12.4444" fill="white"/>
<path d="M146.921 47.9688H122.88V71.9863H146.921V47.9688Z" fill="#383688"/>
<path d="M122.88 71.9824H98.8389V96H122.88V71.9824Z" fill="#FFCA00"/>
<path d="M170.959 47.9688H146.918V71.9863H170.959V47.9688Z" fill="#E44146"/>
<path d="M32.7834 63.8478L32.3801 62.5767H29.3735L28.9703 63.8478H26.9463L29.6984 55.7598H32.0591L34.8113 63.8478H32.7873H32.7834ZM29.9255 60.8441H31.8242L30.8768 57.8756L29.9294 60.8441H29.9255Z" fill="white"/>
<path d="M36.6589 62.8076C35.8602 61.998 35.4688 60.9929 35.4688 59.804C35.4688 58.615 35.8602 57.6099 36.6589 56.812C37.4575 56.0024 38.4636 55.5996 39.6772 55.5996C41.1218 55.5996 42.4411 56.3153 43.1458 57.473L41.5486 58.396C41.1884 57.7585 40.4955 57.4026 39.6733 57.4026C38.9569 57.4026 38.3775 57.6216 37.9508 58.0596C37.5241 58.4977 37.3127 59.0765 37.3127 59.804C37.3127 60.5314 37.5201 61.1102 37.9508 61.5483C38.3814 61.9863 38.9569 62.2053 39.6733 62.2053C40.4955 62.2053 41.2119 61.822 41.5486 61.2119L43.1458 62.1349C42.4529 63.2887 41.1453 64.0083 39.6772 64.0083C38.4636 64.0083 37.4575 63.6055 36.6589 62.8076Z" fill="white"/>
<path d="M45.362 62.8076C44.5634 61.998 44.1719 60.9929 44.1719 59.804C44.1719 58.615 44.5634 57.6099 45.362 56.812C46.1606 56.0024 47.1668 55.5996 48.3804 55.5996C49.825 55.5996 51.1443 56.3153 51.8489 57.473L50.2517 58.396C49.8915 57.7585 49.1986 57.4026 48.3765 57.4026C47.66 57.4026 47.0806 57.6216 46.6539 58.0596C46.2272 58.4977 46.0158 59.0765 46.0158 59.804C46.0158 60.5314 46.2233 61.1102 46.6539 61.5483C47.0845 61.9863 47.66 62.2053 48.3765 62.2053C49.1986 62.2053 49.915 61.822 50.2517 61.2119L51.8489 62.1349C51.156 63.2887 49.8484 64.0083 48.3804 64.0083C47.1668 64.0083 46.1606 63.6055 45.362 62.8076Z" fill="white"/>
<path d="M55.2512 62.0682H58.4888V63.8478H53.3994V55.7598H58.43V57.5393H55.2472V58.8808H58.1403V60.6368H55.2472V62.0682H55.2512Z" fill="white"/>
<path d="M62.2033 62.0682H65.0964V63.8478H60.3555V55.7598H62.2072V62.0682H62.2033Z" fill="white"/>
<path d="M68.2795 62.0682H71.5171V63.8478H66.4277V55.7598H71.4584V57.5393H68.2756V58.8808H71.1686V60.6368H68.2756V62.0682H68.2795Z" fill="white"/>
<path d="M77.6402 63.8478L76.1134 61.1883H75.2326V63.8478H73.3809V55.7598H76.6185C77.3936 55.7598 78.0396 56.0257 78.5837 56.5693C79.1279 57.113 79.3941 57.7583 79.3941 58.5327C79.3941 59.5143 78.7912 60.4178 77.9025 60.8793L79.6251 63.8478H77.6363H77.6402ZM75.2326 57.4923V59.573H76.6224C77.1313 59.573 77.5463 59.1232 77.5463 58.5327C77.5463 57.9421 77.1313 57.4923 76.6224 57.4923H75.2326Z" fill="white"/>
<path d="M86.4953 63.8478L86.0921 62.5767H83.0854L82.6822 63.8478H80.6582L83.4104 55.7598H85.771L88.5232 63.8478H86.4992H86.4953ZM83.6374 60.8441H85.5361L84.5887 57.8756L83.6413 60.8441H83.6374Z" fill="white"/>
<path d="M94.5562 55.7598V57.5393H92.4735V63.8478H90.6218V57.5393H88.5391V55.7598H94.5523H94.5562Z" fill="white"/>
<path d="M99.6733 64.0083C98.5067 64.0083 97.5123 63.6055 96.6902 62.7959C95.8681 61.9863 95.4648 60.9929 95.4648 59.804C95.4648 58.615 95.8681 57.6216 96.6902 56.812C97.5123 56.0024 98.5067 55.5996 99.6733 55.5996C100.84 55.5996 101.838 56.0024 102.656 56.812C103.479 57.6216 103.882 58.615 103.882 59.804C103.882 60.9929 103.479 61.9863 102.656 62.7959C101.834 63.6055 100.84 64.0083 99.6733 64.0083ZM99.6733 62.2053C100.343 62.2053 100.899 61.9863 101.349 61.5365C101.799 61.0868 102.03 60.5079 102.03 59.804C102.03 59.1 101.799 58.5211 101.349 58.0714C100.899 57.6216 100.343 57.4026 99.6733 57.4026C99.0039 57.4026 98.4362 57.6216 97.986 58.0714C97.5358 58.5211 97.3166 59.1 97.3166 59.804C97.3166 60.5079 97.5358 61.0868 97.986 61.5365C98.4362 61.9863 99.0039 62.2053 99.6733 62.2053Z" fill="white"/>
<path d="M109.855 63.8478L108.328 61.1883H107.447V63.8478H105.596V55.7598H108.833C109.608 55.7598 110.254 56.0257 110.799 56.5693C111.343 57.113 111.609 57.7583 111.609 58.5327C111.609 59.5143 111.006 60.4178 110.117 60.8793L111.84 63.8478H109.851H109.855ZM107.447 57.4923V59.573H108.837C109.346 59.573 109.761 59.1232 109.761 58.5327C109.761 57.9421 109.346 57.4923 108.837 57.4923H107.447Z" fill="white"/>
</g>
<defs>
<clipPath id="clip0_258_981">
<rect width="195" height="96" fill="white"/>
</clipPath>
</defs>
</svg>
