<svg width="165" height="119" viewBox="0 0 165 119" fill="none" xmlns="http://www.w3.org/2000/svg">
<g clip-path="url(#clip0_259_1018)">
<path d="M39.0261 33.1152H32.328L15.5889 14.3847V33.1152H7.42261V0.768738H14.1733L30.9124 20.1157V0.766357H39.0213V33.1152H39.0261ZM74.4413 4.91468C77.8417 8.18955 79.5683 12.2332 79.5683 16.9408C79.5683 21.6508 77.8417 25.642 74.4413 28.9169C71.0409 32.1942 66.8561 33.8316 61.9396 33.8316C57.0207 33.8316 52.8359 32.1942 49.4354 28.9169C46.035 25.642 44.3085 21.6508 44.3085 16.9408C44.3085 12.1808 46.035 8.18955 49.4354 4.91468C52.8359 1.63743 57.0207 0 61.9396 0C66.8561 0 71.0409 1.63743 74.4413 4.91468ZM68.6878 23.7999C70.5196 21.9578 71.4091 19.7063 71.4091 16.9408C71.4091 14.1776 70.5196 11.8738 68.6878 10.0317C66.8561 8.18955 64.6083 7.2685 61.9396 7.2685C59.2183 7.2685 56.968 8.18955 55.1913 10.0317C53.3596 11.8738 52.47 14.1776 52.47 16.9408C52.47 19.654 53.3596 21.9578 55.1913 23.7999C57.0206 25.642 59.2709 26.5131 61.9396 26.5131C64.6083 26.5131 66.8561 25.642 68.6878 23.7999ZM15.5865 56.7105H27.83V63.6719H15.5865V75.2887H7.425V42.9422H33.0072V49.9537H15.5865V56.7105ZM61.9922 75.2387H37.5602V42.8922H45.7217V68.3296H62.0424V75.2387H61.9922ZM94.7435 60.6517C94.7435 65.3094 93.3804 68.9936 90.7141 71.8091C88.0454 74.5723 84.4872 76.0074 80.092 76.0074C75.5963 76.0074 71.9328 74.6247 69.2115 71.8091C66.4376 69.046 65.0793 65.3094 65.0793 60.6517V42.8875H73.2409V60.6493C73.2409 63.1055 73.8674 65.0523 75.1228 66.4827C76.3783 67.9178 78.0522 68.6342 80.092 68.6342C82.0815 68.6342 83.6502 67.9178 84.853 66.4851C86.0559 65.0499 86.6322 63.1055 86.6322 60.6493V42.8875H94.7937V60.6493H94.7411L94.7435 60.6517ZM109.13 56.7105H121.371V63.6719H109.127V75.2887H100.968V42.9422H126.548V49.9537H109.127V56.7105H109.13ZM139.21 56.7105H151.453V63.6719H139.21V75.2887H131.051V42.9422H156.63V49.9537H139.207L139.21 56.7105ZM59.5865 89.928C62.987 93.2029 64.7111 97.2465 64.7111 101.956C64.7111 106.664 62.987 110.658 59.5865 113.933C56.1861 117.207 51.9989 118.845 47.08 118.845C42.1659 118.845 37.9787 117.207 34.5783 113.933C31.1778 110.658 29.4513 106.664 29.4513 101.956C29.4513 97.1965 31.1778 93.2029 34.5783 89.928C37.9787 86.6531 42.1635 85.0157 47.0824 85.0157C51.9989 85.0157 56.1837 86.6531 59.5865 89.928ZM53.8307 108.816C55.6624 106.971 56.552 104.72 56.552 101.956C56.552 99.1933 55.6624 96.8871 53.8307 95.045C51.9989 93.2029 49.7511 92.2842 47.0824 92.2842C44.4137 92.2842 42.1133 93.2029 40.3341 95.045C38.5024 96.8895 37.6128 99.1909 37.6128 101.956C37.6128 104.67 38.5024 106.971 40.3341 108.816C42.1635 110.658 44.4137 111.529 47.0824 111.529C49.7511 111.529 51.9989 110.658 53.8307 108.816ZM91.6013 101.597C93.3063 101.718 94.899 102.488 96.0491 103.746C97.3046 105.027 97.9311 106.816 97.9311 109.07C97.9311 111.833 96.9913 114.035 95.1069 115.672C93.2226 117.31 90.5563 118.129 87.0004 118.129H69.7878V85.7821H86.9454C89.9824 85.7821 92.3857 86.6008 94.2174 88.1859C96.0491 89.7757 96.9387 91.9224 96.9387 94.6356C96.9387 96.6824 96.3648 98.2699 95.2122 99.448C94.0596 100.626 92.8041 101.29 91.4985 101.445V101.597H91.6013ZM77.9996 99.141H85.1137C86.3189 99.141 87.3137 98.8316 88.0454 98.1675C88.7772 97.5011 89.1454 96.6324 89.1454 95.5591C89.1454 94.5357 88.7772 93.7669 88.0956 93.1529C87.3639 92.5389 86.5269 92.2318 85.4293 92.2318H77.9996V99.141ZM85.6374 111.681C86.9454 111.681 87.9402 111.372 88.6193 110.708C89.3535 110.041 89.6667 109.173 89.6667 108.047C89.6667 106.971 89.3009 106.152 88.5667 105.488C87.835 104.874 86.8928 104.565 85.745 104.565H77.9996V111.681H85.6374ZM138.528 2.35619V16.1744H135.862V2.35381H130.056V0H144.337V2.35619H138.528ZM165 16.1744H162.434V5.83574L156.733 16.1744H155.112L149.409 5.83574V16.1744H146.845V0H149.148L155.896 12.2332L162.645 0H164.947V16.1744H165ZM120.481 98.7816L113.628 97.2988C111.848 96.8895 110.959 96.1731 110.959 94.7903C110.959 93.8693 111.377 93.0506 112.214 92.4341C113.051 91.8225 114.099 91.5155 115.407 91.5155C116.767 91.5155 118.02 91.9248 119.12 92.6912C120.22 93.4599 120.9 94.5857 121.213 96.0708H129.061C129.061 96.0708 129.061 95.2521 128.903 94.4833C128.274 91.5654 126.655 89.1593 124.195 87.5218C121.737 85.8844 119.12 85.118 115.51 85.118C111.588 85.118 108.448 86.0367 106.04 87.8788C103.634 89.7233 102.432 92.1795 102.432 95.302C102.432 100.217 105.413 103.185 111.327 104.515L118.231 105.948C119.381 106.152 120.168 106.512 120.637 106.971C121.108 107.433 121.318 108.047 121.318 108.813C121.318 109.837 120.9 110.812 120.01 111.424C119.12 112.038 117.97 112.345 116.452 112.345C112.896 112.345 111.483 110.76 110.698 107.585H102.223C102.223 107.585 102.171 108.302 102.276 109.173C102.695 112.243 104.261 114.649 106.932 116.389C109.598 118.129 112.896 119 116.712 119C120.586 119 123.097 118.079 125.658 116.236C128.274 114.394 129.582 111.629 129.582 108.354C129.582 103.237 126.548 100.062 120.481 98.7816ZM24.3267 93.6646V85.7321H16.1652V106.462C16.1652 107.995 15.6941 109.275 14.7543 110.246C13.8122 111.222 12.5543 111.731 10.9857 111.731C9.41696 111.731 8.21174 111.272 7.27196 110.351C6.88838 109.959 6.57029 109.509 6.32978 109.018L0 113.83C0.573913 114.597 1.20283 115.315 1.93696 115.929C4.23739 117.874 7.26957 118.897 10.933 118.897C14.9098 118.897 18.1548 117.772 20.613 115.418C23.0713 113.114 24.2717 110.146 24.2717 106.512V93.6646H24.3267Z" fill="white"/>
</g>
<defs>
<clipPath id="clip0_259_1018">
<rect width="165" height="119" fill="white"/>
</clipPath>
</defs>
</svg>
