<svg width="318" height="42" viewBox="0 0 318 42" fill="none" xmlns="http://www.w3.org/2000/svg">
<g clip-path="url(#clip0_255_387)">
<mask id="mask0_255_387" style="mask-type:luminance" maskUnits="userSpaceOnUse" x="0" y="0" width="318" height="42">
<path d="M318 0H0V42H318V0Z" fill="white"/>
</mask>
<g mask="url(#mask0_255_387)">
<path d="M8.78947 5.19544C8.7893 5.75058 8.67072 6.29964 8.44123 6.80787C8.21175 7.31611 7.87636 7.77245 7.45628 8.14802C7.03621 8.52358 6.54059 8.8102 6.00081 8.98973C5.46103 9.16925 4.88883 9.23778 4.32043 9.19097C3.75201 9.23793 3.17976 9.1695 2.63992 8.99003C2.10008 8.81055 1.60442 8.52394 1.18433 8.14834C0.764231 7.77274 0.428855 7.31634 0.199439 6.80804C-0.0299782 6.29974 -0.148438 5.75062 -0.148438 5.19544C-0.148438 4.64027 -0.0299782 4.09114 0.199439 3.58284C0.428855 3.07454 0.764231 2.61814 1.18433 2.24254C1.60442 1.86694 2.10008 1.58033 2.63992 1.40086C3.17976 1.22139 3.75201 1.15296 4.32043 1.19992C4.88847 1.1548 5.45996 1.2245 5.99898 1.40465C6.53801 1.5848 7.03293 1.8715 7.45263 2.24674C7.87233 2.62197 8.20775 3.07763 8.43781 3.58508C8.66787 4.09253 8.7876 4.6408 8.78947 5.19544ZM0.749746 34.5291V12.0989H7.89112V34.5291H0.749746Z" fill="white"/>
<path d="M27.42 34.5288V18.7236H20.0946V34.5288H12.9316V12.0986H34.5613V34.5288H27.42Z" fill="white"/>
<path d="M41.8868 18.6071H37.9277V12.0794H41.8868V3.09473H56.0276V9.62683H49.0486V12.0794H56.0276V18.6071H49.0486V34.5096H41.8868V18.6071Z" fill="white"/>
<path d="M82.7595 23.314C82.7691 25.6492 82.0664 27.9346 80.7403 29.8808C79.4142 31.827 77.5245 33.3464 75.3104 34.2465C73.0963 35.1466 70.6574 35.3869 68.3028 34.9371C65.9483 34.4872 63.7839 33.3673 62.0838 31.7194C60.3837 30.0714 59.2245 27.9695 58.753 25.6798C58.2814 23.3902 58.5188 21.0158 59.4349 18.8575C60.3511 16.6993 61.9049 14.8542 63.8994 13.556C65.894 12.2578 68.2396 11.5649 70.6391 11.5651C72.236 11.5321 73.8234 11.8132 75.306 12.3914C76.7887 12.9695 78.1362 13.833 79.2679 14.93C80.3995 16.027 81.2921 17.3349 81.892 18.7756C82.492 20.2162 82.787 21.7598 82.7595 23.314ZM65.7612 23.314C65.7612 26.4596 67.9043 28.4568 70.638 28.4568C73.4125 28.4568 75.5147 26.4585 75.5147 23.314C75.5147 20.2083 73.4125 18.1713 70.638 18.1911C67.8816 18.1735 65.7544 20.2083 65.7544 23.314H65.7612Z" fill="white"/>
<path d="M148.501 12.0989V34.5292H141.346V18.7239H133.851V34.5292H126.708V3.11426H133.851V12.0945L148.501 12.0989Z" fill="white"/>
<path d="M169.706 14.6315V12.0949H176.868V34.5317H169.706V32.1167C168.918 33.0668 167.915 33.8271 166.775 34.3384C165.636 34.8496 164.39 35.0981 163.136 35.0645C157.238 35.0645 152.709 30.2577 152.709 23.3155C152.709 16.3336 157.34 11.5666 163.095 11.5666C164.367 11.5379 165.627 11.8004 166.776 12.3327C167.924 12.8651 168.928 13.6525 169.706 14.6315ZM159.953 23.3144C159.953 26.46 162.095 28.4572 164.829 28.4572C167.605 28.4572 169.706 26.4589 169.706 23.3144C169.706 20.2086 167.604 18.1716 164.829 18.1915C162.054 18.1738 159.953 20.2086 159.953 23.3144Z" fill="white"/>
<path d="M189.05 18.7048V34.5101H181.908V12.0986H196.927V18.7302H189.051L189.05 18.7048Z" fill="white"/>
<path d="M211.396 11.5651C214.294 11.4692 217.123 12.4369 219.323 14.2761C221.523 16.1154 222.932 18.6919 223.271 21.4948C223.395 22.5403 223.381 23.5971 223.23 24.6393H206.723C206.728 25.2554 206.86 25.8642 207.112 26.4295C207.364 26.9947 207.73 27.5048 208.189 27.9294C208.648 28.3539 209.19 28.6842 209.783 28.9005C210.376 29.1169 211.007 29.2148 211.64 29.1885C213.661 29.1885 215.475 28.259 215.904 26.3005H223.271C222.372 31.8787 217.251 35.063 211.599 35.063C210.008 35.0835 208.43 34.798 206.953 34.2229C205.477 33.6478 204.131 32.7945 202.994 31.712C201.858 30.6294 200.952 29.339 200.329 27.9148C199.707 26.4906 199.379 24.9606 199.366 23.4129C199.352 21.8651 199.653 20.3301 200.251 18.8959C200.849 17.4616 201.733 16.1565 202.85 15.0555C203.968 13.9545 205.299 13.0793 206.765 12.4801C208.231 11.8809 209.805 11.5696 211.396 11.564V11.5651ZM207.232 20.0756H215.72C215.453 19.2104 214.892 18.4592 214.128 17.9453C213.365 17.4313 212.444 17.1852 211.518 17.2473C210.59 17.2194 209.676 17.4773 208.906 17.9841C208.137 18.4908 207.552 19.2208 207.233 20.0701L207.232 20.0756Z" fill="white"/>
<path d="M94.1237 20.1497H121.672V34.5292H86.9619V29.0106H114.618V26.0441H86.9619V12.0791H121.672V17.5822H94.1237V20.1497Z" fill="white"/>
<path fill-rule="evenodd" clip-rule="evenodd" d="M242.249 1.2002H303.896V23.563H309.647V29.2905H303.896V35.0212H309.647V40.7487H248.545V34.6079H242.239V28.4715H235.935V7.33662H242.239L242.249 1.2002ZM247.67 14.4733C248.323 14.6815 248.888 15.0909 249.281 15.6397C249.674 16.1885 249.872 16.8468 249.846 17.515C249.782 18.4739 249.337 19.3711 248.606 20.0167C247.875 20.6623 246.914 21.0057 245.927 20.9743C244.94 20.9428 244.005 20.539 243.318 19.8482C242.632 19.1574 242.248 18.2339 242.249 17.2729C242.249 16.4086 242.434 14.9917 246.678 8.69941H250.66L247.67 14.4733ZM273.007 23.2988H261.082V27.406H272.251L271.303 33.244H254.867V17.4597H266.961L267.682 13.8555H254.867V8.01856H275.299L273.007 23.2988ZM296.194 13.8566H285.193L284.646 17.4608H296.194V33.244H276.546L277.448 27.406H289.974V23.2977H278.094L280.516 8.01746H296.189L296.194 13.8566Z" fill="white"/>
<path d="M242.249 34.6074V40.7438H235.944V34.6074H242.249Z" fill="white"/>
<path d="M309.653 35.0175V29.29H315.608V35.0175H309.653Z" fill="white"/>
<path d="M315.605 12.1074H309.65V17.8349H315.605V12.1074Z" fill="white"/>
</g>
</g>
<defs>
<clipPath id="clip0_255_387">
<rect width="318" height="42" fill="white"/>
</clipPath>
</defs>
</svg>
