<svg width="328" height="163" viewBox="0 0 328 163" fill="none" xmlns="http://www.w3.org/2000/svg">
<g clip-path="url(#clip0_255_410)">
<path d="M176.614 72.6467C177.257 72.6581 177.895 72.5391 178.49 72.2969C179.02 72.078 179.495 71.743 179.879 71.3166C180.268 70.8676 180.563 70.3446 180.746 69.7789C180.952 69.1264 181.053 68.445 181.045 67.7606V56.1084H184.659V67.7644C184.668 68.8581 184.48 69.9444 184.103 70.9706C183.756 71.9306 183.207 72.8048 182.495 73.5343C181.782 74.2638 180.921 74.8316 179.971 75.1994C177.8 75.9952 175.417 75.9952 173.246 75.1994C172.295 74.8326 171.435 74.2652 170.722 73.5355C170.01 72.8058 169.463 71.931 169.118 70.9706C168.737 69.9452 168.547 68.8585 168.558 67.7644V56.1084H172.172V67.7491C172.161 68.434 172.263 69.116 172.475 69.7673C172.658 70.3337 172.955 70.8568 173.346 71.3051C173.732 71.734 174.209 72.0715 174.742 72.2931C175.336 72.5365 175.973 72.6568 176.614 72.6467Z" fill="white"/>
<path d="M197.618 64.6812C197.533 64.7919 197.435 64.8913 197.326 64.9772C197.205 65.0579 197.061 65.0958 196.916 65.0848C196.739 65.0847 196.567 65.0311 196.421 64.9311C196.26 64.8273 196.068 64.7119 195.841 64.5812C195.588 64.4381 195.321 64.3209 195.044 64.2314C194.671 64.119 194.282 64.0671 193.893 64.0776C193.364 64.0658 192.84 64.1735 192.358 64.3929C191.925 64.6002 191.549 64.9119 191.265 65.3001C190.957 65.7315 190.736 66.2184 190.613 66.7341C190.463 67.3635 190.391 68.0091 190.398 68.6562C190.387 69.3186 190.466 69.9794 190.632 70.6207C190.764 71.1414 190.995 71.6319 191.311 72.0662C191.591 72.4461 191.96 72.7511 192.385 72.9542C192.83 73.1618 193.317 73.2656 193.808 73.2579C194.244 73.274 194.679 73.2075 195.09 73.0618C195.381 72.9516 195.657 72.8071 195.914 72.6313C196.141 72.4737 196.336 72.3314 196.501 72.2007C196.658 72.0731 196.855 72.005 197.058 72.0085C197.176 72.0013 197.295 72.026 197.401 72.0801C197.506 72.1342 197.596 72.2156 197.66 72.316L198.615 73.527C198.265 73.9393 197.863 74.3038 197.418 74.6111C197.002 74.8953 196.554 75.1301 196.083 75.3108C195.624 75.4885 195.146 75.6174 194.66 75.6952C194.177 75.7675 193.69 75.8035 193.202 75.8028C192.378 75.8072 191.561 75.645 190.801 75.3262C190.052 75.0074 189.38 74.5331 188.829 73.9345C188.237 73.2849 187.782 72.5227 187.49 71.6933C186.853 69.802 186.834 67.7564 187.436 65.8537C187.708 65.0245 188.145 64.2593 188.721 63.6048C189.301 62.9608 190.017 62.4539 190.816 62.1208C191.727 61.7451 192.705 61.5619 193.689 61.5826C194.608 61.5672 195.521 61.7358 196.375 62.0786C197.156 62.4134 197.865 62.8978 198.462 63.5048L197.618 64.6812Z" fill="white"/>
<path d="M210.599 63.1361C210.6 63.3694 210.56 63.6011 210.48 63.8204C210.41 64.0244 210.301 64.2125 210.158 64.374L203.636 73.0084H210.419V75.5687H199.75V74.1809C199.755 73.9941 199.791 73.8095 199.857 73.635C199.933 73.4208 200.042 73.2197 200.18 73.0391L206.786 64.3048H200.137V61.7637H210.599V63.1361Z" fill="white"/>
<path d="M215.337 69.0825C215.376 69.7091 215.505 70.3268 215.721 70.9162C215.89 71.3894 216.151 71.8244 216.488 72.1964C216.808 72.538 217.201 72.8011 217.639 72.9653C218.11 73.1345 218.608 73.2191 219.108 73.2152C219.578 73.2228 220.047 73.158 220.497 73.0229C220.849 72.9159 221.191 72.7769 221.517 72.6077C221.809 72.454 222.062 72.3156 222.285 72.1926C222.476 72.0732 222.696 72.0081 222.921 72.0042C223.042 71.996 223.163 72.0202 223.272 72.0742C223.38 72.1283 223.473 72.2102 223.539 72.3117L224.49 73.5227C224.136 73.9446 223.719 74.3101 223.255 74.6068C222.808 74.8941 222.329 75.1289 221.828 75.3065C221.33 75.4841 220.816 75.6128 220.294 75.6909C219.798 75.7613 219.298 75.7973 218.798 75.7985C217.88 75.81 216.969 75.6483 216.112 75.3218C215.303 75.0099 214.571 74.5274 213.964 73.9071C213.331 73.2461 212.843 72.4607 212.529 71.6005C212.161 70.5765 211.983 69.4939 212.003 68.4059C211.999 67.5004 212.154 66.6013 212.46 65.7494C212.747 64.9455 213.193 64.2081 213.772 63.5812C214.358 62.9582 215.066 62.4623 215.851 62.1242C217.503 61.4503 219.344 61.4066 221.026 62.0012C221.739 62.2644 222.386 62.6803 222.921 63.2199C223.466 63.7821 223.889 64.4508 224.164 65.1843C224.476 66.0346 224.628 66.9351 224.613 67.8408C224.643 68.1872 224.588 68.5356 224.452 68.8557C224.382 68.9507 224.288 69.0254 224.179 69.072C224.071 69.1186 223.952 69.1355 223.834 69.1209L215.337 69.0825ZM221.663 67.0757C221.665 66.6627 221.604 66.2519 221.483 65.8571C221.375 65.4915 221.196 65.1506 220.957 64.8537C220.705 64.5622 220.39 64.331 220.037 64.1771C219.626 64.0044 219.185 63.9193 218.74 63.9272C218.327 63.9051 217.915 63.9666 217.527 64.108C217.138 64.2493 216.783 64.4677 216.48 64.7499C215.885 65.3891 215.514 66.2059 215.425 67.0757H221.663Z" fill="white"/>
<path d="M230.483 55.5742V75.5648H227.168V55.5742H230.483Z" fill="white"/>
<path d="M236.9 63.4584C237.177 63.1828 237.472 62.926 237.783 62.6895C238.087 62.4543 238.414 62.252 238.761 62.0859C239.508 61.7252 240.329 61.5436 241.159 61.5554C241.844 61.5437 242.525 61.6746 243.157 61.9398C243.719 62.1812 244.218 62.5496 244.615 63.0163C245.019 63.4996 245.323 64.059 245.509 64.6616C245.719 65.3477 245.821 66.0623 245.812 66.7799V75.568H242.494V66.7799C242.538 66.0801 242.334 65.3871 241.918 64.8231C241.695 64.5775 241.418 64.3867 241.109 64.2654C240.801 64.1441 240.468 64.0955 240.138 64.1234C239.578 64.1191 239.025 64.251 238.527 64.5079C238.001 64.7881 237.521 65.1472 237.104 65.5727V75.568H233.789V61.763H235.815C236.004 61.7493 236.192 61.802 236.347 61.9122C236.501 62.0223 236.613 62.183 236.662 62.3666L236.9 63.4584Z" fill="white"/>
<path d="M252.841 57.7382C252.84 58.0169 252.78 58.2922 252.664 58.5455C252.44 59.0478 252.032 59.4451 251.525 59.6565C251.261 59.7681 250.978 59.8257 250.692 59.8257C250.413 59.8256 250.136 59.7681 249.879 59.6565C249.631 59.5504 249.406 59.3977 249.215 59.2068C249.027 59.0155 248.875 58.7914 248.767 58.5455C248.652 58.2921 248.594 58.0165 248.598 57.7382C248.596 57.4514 248.653 57.1673 248.767 56.904C248.978 56.3994 249.377 55.9968 249.879 55.7815C250.136 55.6699 250.413 55.6124 250.692 55.6123C250.978 55.6123 251.261 55.6699 251.525 55.7815C251.777 55.8888 252.007 56.0412 252.204 56.2312C252.399 56.4235 252.556 56.652 252.664 56.904C252.78 57.1668 252.84 57.4509 252.841 57.7382ZM252.384 61.7632V75.5683H249.054V61.7632H252.384Z" fill="white"/>
<path d="M255.445 63.6853C256.998 62.2441 259.049 61.4627 261.165 61.5056C261.903 61.4903 262.637 61.6209 263.325 61.89C263.935 62.1368 264.485 62.5132 264.936 62.9933C265.386 63.4795 265.727 64.0561 265.937 64.6848C266.171 65.3781 266.286 66.1059 266.279 66.8377V75.5566H264.775C264.525 75.5676 264.277 75.5188 264.05 75.4144C263.85 75.279 263.707 75.0753 263.647 74.8416L263.351 73.8459C263.029 74.1424 262.688 74.4184 262.331 74.6724C262.008 74.9069 261.662 75.1078 261.299 75.2722C260.931 75.442 260.545 75.5709 260.148 75.6566C259.705 75.7449 259.254 75.7874 258.802 75.7835C258.256 75.7903 257.712 75.7111 257.19 75.549C256.721 75.4036 256.287 75.1642 255.913 74.8454C255.553 74.528 255.269 74.134 255.081 73.6921C254.874 73.1756 254.773 72.6225 254.785 72.066C254.786 71.71 254.845 71.3567 254.962 71.0203C255.088 70.6586 255.281 70.3236 255.529 70.0323C255.826 69.6802 256.173 69.3733 256.558 69.1212C257.043 68.8153 257.565 68.5712 258.111 68.3946C258.81 68.1676 259.526 67.9991 260.252 67.891C261.177 67.7514 262.11 67.673 263.045 67.6565V66.8492C263.045 65.9227 262.845 65.2384 262.454 64.7963C262.235 64.5667 261.969 64.3881 261.674 64.2732C261.379 64.1582 261.063 64.1098 260.747 64.1313C260.294 64.1185 259.843 64.1822 259.412 64.3196C259.089 64.4313 258.776 64.5729 258.479 64.7425L257.747 65.1654C257.524 65.2925 257.271 65.3576 257.014 65.3538C256.803 65.3585 256.596 65.2951 256.423 65.1731C256.269 65.0581 256.139 64.9146 256.04 64.7502L255.445 63.6853ZM263.045 69.6748C262.234 69.7029 261.427 69.7851 260.628 69.9208C260.086 70.01 259.558 70.1662 259.055 70.386C258.72 70.5281 258.429 70.7562 258.211 71.0472C258.043 71.287 257.953 71.5731 257.954 71.8661C257.932 72.1015 257.967 72.3388 258.057 72.5572C258.148 72.7757 258.29 72.9687 258.472 73.1193C258.87 73.3882 259.343 73.5229 259.822 73.5038C260.432 73.5136 261.036 73.3821 261.587 73.1193C262.135 72.834 262.628 72.454 263.045 71.9968V69.6748Z" fill="white"/>
<path d="M180.604 99.4918V102.479H169.229V95.386L166.813 96.597V94.1097C166.805 93.9735 166.839 93.8383 166.911 93.7226C166.984 93.6069 167.09 93.5165 167.215 93.4639L169.229 92.4144V83.0342H172.843V90.7882L177.65 88.3778V90.8151C177.665 90.9698 177.628 91.1249 177.545 91.2564C177.463 91.3879 177.339 91.4882 177.194 91.5417L172.843 93.7983V99.4918H180.604Z" fill="white"/>
<path d="M182.334 90.5955C183.887 89.1542 185.938 88.3728 188.054 88.4157C188.793 88.4005 189.528 88.5311 190.218 88.8002C190.827 89.0484 191.376 89.4246 191.829 89.9035C192.276 90.3918 192.617 90.9678 192.83 91.595C193.064 92.2883 193.179 93.0161 193.171 93.7478V102.467H191.668C191.418 102.48 191.169 102.431 190.943 102.325C190.75 102.186 190.614 101.983 190.559 101.752L190.264 100.756C189.941 101.053 189.6 101.329 189.243 101.583C188.918 101.816 188.571 102.017 188.207 102.182C187.839 102.352 187.453 102.481 187.056 102.567C186.612 102.655 186.159 102.698 185.706 102.694C185.16 102.698 184.617 102.619 184.095 102.459C183.627 102.314 183.194 102.074 182.821 101.756C182.458 101.434 182.173 101.033 181.989 100.583C181.782 100.067 181.681 99.5134 181.693 98.9569C181.693 98.6012 181.751 98.2479 181.866 97.9113C181.994 97.5494 182.188 97.2144 182.438 96.9233C182.736 96.5792 183.082 96.2801 183.466 96.0352C183.944 95.7287 184.46 95.4845 185 95.3086C185.699 95.0816 186.415 94.9131 187.141 94.805C188.066 94.6654 188.999 94.587 189.934 94.5705V93.7632C189.934 92.8367 189.737 92.1524 189.343 91.7103C189.125 91.4811 188.859 91.3027 188.565 91.1877C188.271 91.0728 187.955 91.0241 187.64 91.0453C187.187 91.0325 186.736 91.0962 186.305 91.2336C185.979 91.3429 185.666 91.4846 185.368 91.6565L184.64 92.0794C184.416 92.2065 184.164 92.2716 183.907 92.2678C183.695 92.2745 183.488 92.2109 183.316 92.0871C183.163 91.9712 183.033 91.8278 182.932 91.6642L182.334 90.5955ZM189.934 96.585C189.123 96.613 188.316 96.6952 187.517 96.831C186.977 96.9201 186.449 97.0764 185.948 97.2962C185.612 97.4371 185.319 97.6653 185.1 97.9574C184.896 98.2794 184.811 98.6629 184.859 99.0413C184.907 99.4198 185.086 99.7694 185.365 100.029C185.761 100.299 186.233 100.434 186.711 100.414C187.323 100.426 187.928 100.294 188.48 100.029C189.027 99.7451 189.52 99.3649 189.934 98.9069V96.585Z" fill="white"/>
<path d="M206.18 90.0463C206.181 90.2796 206.141 90.5113 206.061 90.7305C205.991 90.9345 205.882 91.1227 205.739 91.2841L199.198 99.9185H205.996V102.479H195.347V101.091C195.351 100.904 195.388 100.72 195.454 100.545C195.527 100.33 195.636 100.128 195.776 99.9493L202.382 91.2149H195.734V88.6738H206.18V90.0463Z" fill="white"/>
<path d="M208.298 90.5955C209.851 89.1542 211.901 88.3728 214.017 88.4157C214.757 88.4005 215.492 88.5311 216.181 88.8002C216.79 89.0498 217.339 89.4258 217.792 89.9035C218.239 90.391 218.579 90.9673 218.79 91.595C219.027 92.2876 219.143 93.0157 219.135 93.7478V102.467H217.631C217.381 102.48 217.132 102.431 216.906 102.325C216.704 102.191 216.561 101.987 216.503 101.752L216.208 100.756C215.885 101.053 215.544 101.329 215.187 101.583C214.863 101.816 214.516 102.017 214.152 102.182C213.783 102.352 213.397 102.481 213.001 102.567C212.556 102.655 212.104 102.698 211.65 102.694C211.104 102.7 210.561 102.621 210.039 102.459C209.571 102.314 209.138 102.074 208.766 101.756C208.402 101.434 208.117 101.033 207.933 100.583C207.726 100.067 207.626 99.5134 207.638 98.9569C207.637 98.6012 207.696 98.2479 207.81 97.9113C207.938 97.5494 208.132 97.2144 208.382 96.9233C208.68 96.5792 209.026 96.2801 209.41 96.0352C209.889 95.7287 210.404 95.4845 210.945 95.3086C211.643 95.0816 212.359 94.9131 213.085 94.805C214.01 94.6654 214.943 94.587 215.878 94.5705V93.7632C215.878 92.8367 215.681 92.1524 215.287 91.7103C215.069 91.4811 214.804 91.3027 214.509 91.1877C214.215 91.0728 213.899 91.0241 213.584 91.0453C213.13 91.0328 212.678 91.0964 212.245 91.2336C211.922 91.3453 211.61 91.4869 211.313 91.6565L210.58 92.0794C210.358 92.2065 210.107 92.2716 209.851 92.2678C209.64 92.2745 209.432 92.2109 209.26 92.0871C209.107 91.9712 208.977 91.8278 208.877 91.6642L208.298 90.5955ZM215.897 96.585C215.087 96.613 214.28 96.6952 213.48 96.831C212.94 96.9201 212.413 97.0764 211.911 97.2962C211.575 97.4371 211.282 97.6653 211.063 97.9574C210.86 98.2793 210.774 98.6623 210.822 99.0404C210.87 99.4186 211.047 99.7683 211.324 100.029C211.722 100.298 212.195 100.433 212.675 100.414C213.285 100.426 213.889 100.294 214.439 100.029C214.988 99.7452 215.482 99.365 215.897 98.9069V96.585Z" fill="white"/>
<path d="M225.381 91.069C225.749 90.3191 226.272 89.6561 226.915 89.1237C227.51 88.6508 228.251 88.4006 229.01 88.4164C229.553 88.3887 230.09 88.5355 230.544 88.8354L230.33 91.3227C230.302 91.4545 230.233 91.5741 230.134 91.6649C230.035 91.7374 229.914 91.7728 229.792 91.7648C229.591 91.7604 229.391 91.7385 229.194 91.6995C228.941 91.6565 228.684 91.6347 228.427 91.6341C228.094 91.6279 227.762 91.6826 227.449 91.7956C227.167 91.9023 226.908 92.0585 226.681 92.2569C226.444 92.4689 226.241 92.7166 226.079 92.9912C225.89 93.306 225.726 93.6351 225.588 93.9753V102.479H222.273V88.674H224.218C224.338 88.6507 224.46 88.6547 224.578 88.6857C224.695 88.7168 224.804 88.774 224.896 88.8531C224.989 88.9322 225.062 89.0312 225.11 89.1426C225.159 89.254 225.182 89.3751 225.177 89.4966L225.381 91.069Z" fill="white"/>
<path d="M240.633 91.365C240.564 91.485 240.468 91.5876 240.353 91.6648C240.235 91.7266 240.103 91.757 239.969 91.7533C239.789 91.7492 239.611 91.7031 239.451 91.6187L238.814 91.315C238.547 91.1924 238.27 91.0921 237.986 91.0151C237.63 90.9187 237.261 90.8734 236.893 90.8806C236.35 90.8503 235.812 90.9959 235.358 91.2958C235.183 91.4176 235.04 91.5811 234.943 91.7716C234.846 91.9621 234.797 92.1737 234.802 92.3876C234.798 92.5248 234.821 92.6614 234.871 92.7894C234.92 92.9175 234.995 93.0344 235.089 93.1334C235.313 93.3532 235.572 93.5327 235.857 93.6639C236.206 93.8298 236.568 93.9674 236.939 94.0752C237.341 94.1944 237.748 94.329 238.166 94.4597C238.585 94.5977 238.995 94.762 239.394 94.9517C239.788 95.1276 240.153 95.3636 240.476 95.6514C240.82 95.955 241.094 96.3313 241.276 96.7534C241.459 97.1755 241.546 97.6328 241.531 98.0926C241.538 98.7231 241.416 99.3484 241.174 99.9302C240.947 100.498 240.592 101.006 240.138 101.414C239.633 101.845 239.045 102.17 238.412 102.367C237.646 102.61 236.847 102.725 236.045 102.71C235.578 102.71 235.112 102.667 234.652 102.583C234.21 102.5 233.775 102.381 233.352 102.229C232.953 102.083 232.568 101.903 232.201 101.691C231.868 101.498 231.556 101.273 231.269 101.018L232.036 99.7533C232.124 99.6114 232.243 99.4916 232.385 99.4035C232.54 99.3158 232.717 99.2731 232.895 99.2805C233.103 99.2805 233.306 99.342 233.478 99.4573C233.662 99.5726 233.862 99.6995 234.119 99.8417C234.393 99.9909 234.678 100.119 234.971 100.226C235.372 100.353 235.792 100.411 236.213 100.399C236.556 100.406 236.898 100.358 237.226 100.257C237.482 100.175 237.719 100.045 237.924 99.8725C238.1 99.7317 238.239 99.5494 238.327 99.342C238.411 99.1438 238.454 98.9306 238.454 98.7154C238.465 98.4227 238.362 98.1373 238.166 97.9196C237.946 97.6944 237.686 97.5131 237.399 97.3852C237.046 97.2114 236.679 97.0673 236.302 96.9546C235.895 96.8316 235.477 96.7009 235.051 96.5702C234.626 96.4273 234.21 96.2592 233.804 96.0666C233.405 95.8823 233.037 95.6357 232.715 95.3362C232.389 95.0275 232.128 94.6562 231.948 94.2444C231.744 93.7501 231.646 93.2183 231.66 92.6836C231.658 92.128 231.772 91.5782 231.994 91.069C232.218 90.5545 232.555 90.0972 232.98 89.7311C233.458 89.324 234.01 89.0133 234.606 88.8162C235.33 88.5742 236.091 88.4585 236.854 88.474C237.741 88.4616 238.621 88.6208 239.447 88.943C240.171 89.2224 240.832 89.6432 241.392 90.1809L240.633 91.365Z" fill="white"/>
<path d="M247.347 82.4844V93.9328H247.964C248.145 93.9401 248.325 93.91 248.494 93.8444C248.648 93.7593 248.78 93.6379 248.877 93.4907L252.299 89.2619C252.428 89.0885 252.59 88.9422 252.775 88.8314C252.985 88.7242 253.219 88.6738 253.454 88.6853H256.489L252.223 93.7983C251.953 94.1682 251.616 94.4838 251.229 94.7286C251.416 94.8624 251.585 95.0201 251.732 95.1976C251.882 95.3837 252.023 95.5775 252.154 95.7781L256.757 102.479H253.765C253.534 102.484 253.305 102.439 253.093 102.348C252.891 102.249 252.726 102.087 252.622 101.887L249.104 96.6508C249.018 96.4816 248.885 96.3412 248.72 96.2471C248.527 96.1745 248.32 96.1431 248.114 96.1548H247.347V102.479H244.032V82.4882H247.347V82.4844Z" fill="white"/>
<path d="M262.277 84.6484C262.279 84.9272 262.218 85.203 262.101 85.4557C261.988 85.7021 261.832 85.9261 261.64 86.1169C261.444 86.3082 261.214 86.4608 260.961 86.5667C260.698 86.6783 260.415 86.7358 260.129 86.7359C259.849 86.7358 259.572 86.6782 259.316 86.5667C258.817 86.3525 258.419 85.9549 258.203 85.4557C258.092 85.2011 258.034 84.9263 258.034 84.6484C258.031 84.2314 258.152 83.8229 258.381 83.4746C258.609 83.1263 258.936 82.8538 259.319 82.6916C259.576 82.5801 259.853 82.5225 260.133 82.5225C260.419 82.5225 260.702 82.58 260.965 82.6916C261.218 82.7975 261.448 82.9501 261.644 83.1414C261.84 83.3337 261.996 83.5622 262.104 83.8142C262.223 84.076 262.282 84.3609 262.277 84.6484ZM261.821 88.6734V102.478H258.491V88.6734H261.821Z" fill="white"/>
<path d="M267.76 95.9936C267.798 96.6202 267.928 97.2379 268.143 97.8274C268.312 98.3009 268.572 98.7361 268.911 99.1075C269.23 99.4491 269.624 99.7122 270.061 99.8764C270.533 100.046 271.03 100.13 271.531 100.126C272.002 100.134 272.472 100.069 272.923 99.9341C273.275 99.8271 273.617 99.6881 273.944 99.5189C274.235 99.3651 274.488 99.2267 274.711 99.1037C274.904 98.9843 275.125 98.9192 275.352 98.9153C275.472 98.9063 275.593 98.9302 275.701 98.9843C275.809 99.0385 275.9 99.1209 275.965 99.2229L276.921 100.434C276.564 100.854 276.148 101.219 275.685 101.518C275.237 101.806 274.757 102.041 274.254 102.218C273.763 102.396 273.256 102.524 272.739 102.602C272.244 102.672 271.744 102.708 271.243 102.71C270.326 102.721 269.415 102.559 268.558 102.233C267.748 101.922 267.015 101.44 266.409 100.818C265.776 100.157 265.286 99.372 264.971 98.5117C264.604 97.4874 264.428 96.4048 264.449 95.317C264.445 94.4116 264.599 93.5124 264.906 92.6606C265.193 91.8576 265.638 91.1204 266.214 90.4924C266.799 89.8668 267.509 89.3706 268.297 89.0354C269.949 88.3615 271.79 88.3177 273.472 88.9123C274.184 89.1746 274.83 89.5907 275.363 90.131C275.909 90.6922 276.332 91.3612 276.606 92.0955C276.918 92.9457 277.07 93.8463 277.055 94.7519C277.086 95.0984 277.031 95.4472 276.894 95.7668C276.824 95.8625 276.73 95.9377 276.621 95.9844C276.513 96.031 276.393 96.0475 276.276 96.0321L267.76 95.9936ZM274.086 93.9869C274.088 93.5735 274.026 93.1623 273.902 92.7682C273.789 92.4006 273.604 92.0593 273.357 91.7648C273.106 91.4726 272.793 91.2412 272.44 91.0882C272.03 90.9155 271.588 90.8304 271.143 90.8384C270.73 90.815 270.316 90.8759 269.927 91.0173C269.538 91.1587 269.182 91.3777 268.88 91.661C268.287 92.3017 267.916 93.1177 267.825 93.9869H274.086Z" fill="white"/>
<path d="M291.629 89.1423V90.3802C291.629 90.7761 291.391 91.0183 290.915 91.1067L289.684 91.3335C289.872 91.8334 289.967 92.3638 289.964 92.8982C289.972 93.5382 289.832 94.1713 289.553 94.7473C289.283 95.2931 288.896 95.7732 288.422 96.1543C287.909 96.553 287.328 96.8552 286.707 97.0462C286.019 97.2651 285.3 97.3728 284.578 97.3653C284.321 97.3647 284.065 97.3506 283.811 97.323C283.557 97.2961 283.312 97.2615 283.07 97.2154C282.64 97.4717 282.426 97.7638 282.426 98.0919C282.421 98.2205 282.455 98.3476 282.524 98.4565C282.592 98.5655 282.692 98.6514 282.809 98.7031C283.129 98.8523 283.471 98.9459 283.822 98.9799C284.244 99.0338 284.724 99.0645 285.257 99.0799C285.79 99.0953 286.346 99.1222 286.91 99.1645C287.465 99.2094 288.015 99.289 288.56 99.4028C289.065 99.5015 289.55 99.6806 289.998 99.9333C290.415 100.171 290.763 100.511 291.011 100.921C291.286 101.411 291.419 101.967 291.395 102.528C291.394 103.15 291.239 103.761 290.946 104.308C290.624 104.907 290.179 105.431 289.642 105.846C289.012 106.326 288.303 106.692 287.547 106.926C286.634 107.212 285.681 107.351 284.724 107.338C283.809 107.352 282.896 107.25 282.007 107.034C281.328 106.872 280.68 106.599 280.089 106.227C279.621 105.938 279.227 105.543 278.938 105.073C278.692 104.658 278.559 104.184 278.555 103.701C278.536 103.105 278.746 102.524 279.142 102.078C279.584 101.606 280.134 101.248 280.745 101.037C280.394 100.858 280.093 100.594 279.871 100.268C279.641 99.8972 279.529 99.4657 279.548 99.0299C279.55 98.8109 279.589 98.5938 279.664 98.3879C279.745 98.1565 279.859 97.9378 280.001 97.7382C280.16 97.5102 280.347 97.3035 280.557 97.1231C280.8 96.9194 281.067 96.7464 281.351 96.608C280.681 96.259 280.113 95.7392 279.706 95.101C279.188 94.2265 278.997 93.1955 279.169 92.193C279.34 91.1906 279.862 90.2821 280.642 89.6305C281.157 89.2239 281.746 88.9198 282.376 88.7348C283.624 88.374 284.943 88.3304 286.212 88.6079C286.708 88.719 287.187 88.8975 287.635 89.1384H291.629V89.1423ZM288.326 103.097C288.331 102.976 288.312 102.856 288.271 102.742C288.229 102.629 288.166 102.525 288.084 102.436C287.9 102.256 287.675 102.124 287.428 102.052C287.112 101.948 286.785 101.878 286.454 101.844C286.07 101.798 285.686 101.763 285.272 101.74C284.858 101.717 284.424 101.698 283.983 101.683C283.542 101.667 283.108 101.629 282.687 101.575C282.346 101.759 282.042 102.005 281.793 102.301C281.567 102.573 281.446 102.917 281.451 103.27C281.451 103.508 281.513 103.741 281.632 103.947C281.773 104.177 281.973 104.366 282.211 104.493C282.531 104.667 282.877 104.788 283.235 104.85C283.741 104.942 284.255 104.985 284.77 104.977C285.305 104.986 285.84 104.938 286.365 104.835C286.753 104.765 287.127 104.635 287.474 104.45C287.734 104.312 287.954 104.108 288.111 103.858C288.252 103.63 288.327 103.366 288.326 103.097ZM284.578 95.2394C284.944 95.2472 285.309 95.1899 285.656 95.0702C285.942 94.9732 286.204 94.8144 286.423 94.6051C286.627 94.4057 286.783 94.1625 286.88 93.8939C286.984 93.6003 287.036 93.2906 287.033 92.9789C287.048 92.681 287.002 92.3832 286.897 92.1041C286.792 91.8249 286.631 91.5705 286.423 91.3566C285.891 90.9669 285.25 90.7569 284.591 90.7569C283.933 90.7569 283.291 90.9669 282.759 91.3566C282.552 91.5705 282.391 91.8249 282.286 92.1041C282.181 92.3832 282.134 92.681 282.149 92.9789C282.148 93.2854 282.2 93.5898 282.303 93.8785C282.4 94.149 282.556 94.3945 282.759 94.5974C282.976 94.8116 283.238 94.9733 283.527 95.0702C283.865 95.1858 284.22 95.243 284.578 95.2394Z" fill="white"/>
<path d="M299.578 88.4587C300.529 88.4477 301.473 88.6159 302.363 88.9547C303.18 89.2684 303.918 89.7571 304.527 90.3866C305.136 91.016 305.601 91.7711 305.888 92.5991C306.533 94.5157 306.533 96.5912 305.888 98.5078C305.593 99.3458 305.124 100.111 304.511 100.753C303.906 101.379 303.173 101.867 302.363 102.183C300.558 102.844 298.578 102.844 296.773 102.183C295.958 101.871 295.222 101.383 294.617 100.753C294.003 100.11 293.531 99.3455 293.232 98.5078C292.584 96.5918 292.584 94.5151 293.232 92.5991C293.532 91.7661 294.004 91.0062 294.617 90.3694C295.226 89.7477 295.961 89.2651 296.773 88.9547C297.668 88.6137 298.62 88.4455 299.578 88.4587ZM299.578 100.122C300.725 100.122 301.572 99.738 302.121 98.9692C302.67 98.2003 302.946 97.0701 302.95 95.5784C302.95 94.092 302.673 92.9579 302.121 92.1762C301.569 91.3958 300.721 91.0075 299.578 91.0037C298.415 91.0037 297.553 91.3958 296.992 92.1801C296.432 92.9681 296.156 94.1022 296.156 95.5784C296.156 97.0547 296.432 98.1849 296.992 98.9615C297.552 99.738 298.415 100.122 299.578 100.122Z" fill="white"/>
<path d="M122.96 108.153C120.725 111.626 118.052 114.795 115.008 117.583C109.769 122.49 103.525 126.193 96.7113 128.434C89.8977 130.675 82.6784 131.4 75.5566 130.558C68.4349 129.717 61.582 127.329 55.4756 123.56C49.3693 119.792 44.1566 114.735 40.2007 108.741C40.0856 108.564 39.9782 108.388 39.817 108.161C39.817 108.161 38.1253 107.861 37.7109 107.776C41.8193 114.609 47.4689 120.382 54.2063 124.63C60.9437 128.879 68.5813 131.486 76.5059 132.241C84.4306 132.997 92.4216 131.88 99.8376 128.98C107.254 126.081 113.888 121.48 119.208 115.546C121.385 113.158 123.313 110.555 124.963 107.776L122.96 108.153Z" fill="white"/>
<path d="M56.7922 38.6434C63.7602 34.6385 71.5988 32.3995 79.6267 32.1208C87.6547 31.8422 95.6291 33.5324 102.857 37.0447C110.085 40.5569 116.347 45.7848 121.1 52.2741C125.853 58.7634 128.953 66.3177 130.13 74.2805V74.3689C130.272 74.3381 131.607 73.9844 131.664 73.9844C131.519 72.9619 131.388 72.2007 131.181 71.1896C129.023 60.7365 123.648 51.2251 115.812 43.995C107.975 36.7649 98.073 32.1805 87.4995 30.8874C76.9261 29.5944 66.2142 31.6579 56.8727 36.7872C47.5313 41.9166 40.0309 49.8534 35.4281 59.4798C33.222 64.0554 31.7302 68.9434 31.0049 73.9729C31.4499 74.0921 32.0368 74.242 32.5394 74.3573C32.6161 73.8076 32.7043 73.2925 32.8003 72.7504C34.0739 65.6555 36.8816 58.9259 41.0263 53.0338C45.1709 47.1418 50.5521 42.2301 56.7922 38.6434Z" fill="white"/>
<path d="M21.6329 100.156V99.9258C23.2049 100.557 24.8171 101.082 26.4589 101.498C29.8195 102.436 33.2376 103.147 36.6672 103.755C40.9063 104.524 45.176 105.058 49.4534 105.523C61.253 106.758 73.1144 107.302 84.9772 107.153C93.4553 107.053 101.933 106.626 110.373 105.815C118.134 105.046 125.895 104.035 133.487 102.213C135.953 101.606 138.708 100.925 141.052 99.9258V100.149C141.052 100.234 141.032 100.318 140.994 100.394C140.956 100.47 140.901 100.536 140.833 100.587C139.746 101.336 138.539 101.895 137.265 102.24C133.555 103.314 129.784 104.161 125.971 104.777C117.953 106.081 109.874 106.979 101.765 107.468C92.4118 108.072 83.045 108.26 73.6641 108.033C63.5628 107.81 53.48 107.057 43.4574 105.777C38.0308 105.108 32.65 104.108 27.3451 102.782C26.0805 102.471 24.8385 102.074 23.6278 101.594C23.0099 101.313 22.417 100.98 21.8554 100.599C21.7853 100.549 21.7283 100.482 21.6896 100.405C21.6508 100.328 21.6313 100.243 21.6329 100.156Z" fill="white"/>
<path d="M27.6095 67.5602C28.716 67.1884 29.8482 66.898 30.9969 66.6914C30.8517 66.983 30.6336 67.232 30.3639 67.4141C28.662 67.8948 27.008 68.5319 25.4228 69.3171C24.6401 69.6711 23.9466 70.1966 23.3934 70.8548C23.204 71.0689 23.0617 71.3206 22.9757 71.5935C22.8898 71.8664 22.8622 72.1544 22.8947 72.4387C23.0675 73.1333 23.4739 73.747 24.0456 74.1763C24.6445 74.6127 25.2874 74.9851 25.9637 75.2873C27.4533 75.9495 28.9926 76.4933 30.5672 76.9135C34.2706 77.894 38.0292 78.6514 41.8228 79.1817C50.7635 80.4279 59.7651 81.1876 68.7879 81.4575C72.9272 81.6036 77.0704 81.6843 81.2135 81.669C88.5714 81.6882 95.9256 81.4588 103.276 80.9808C107.703 80.6848 112.122 80.2965 116.526 79.7545C120.865 79.2584 125.174 78.5321 129.435 77.5786C131.177 77.1812 132.898 76.6962 134.591 76.1254C135.764 75.7383 136.895 75.2334 137.967 74.6184C138.521 74.3193 138.997 73.8955 139.36 73.3806C139.535 73.151 139.661 72.8866 139.727 72.605C139.793 72.3233 139.799 72.0307 139.743 71.7467C139.438 70.8191 138.782 70.0479 137.917 69.5977C136.165 68.6211 134.289 67.8878 132.339 67.418H132.297C132.048 67.2247 131.84 66.9844 131.683 66.7106C133.276 67.0413 134.841 67.495 136.364 68.0677C137.697 68.5284 138.934 69.2322 140.012 70.1436C140.333 70.4131 140.593 70.7485 140.775 71.1271C140.956 71.5057 141.054 71.9189 141.063 72.3387C141.025 73.2844 140.376 74.0649 139.67 74.6453C138.359 75.5874 136.907 76.3178 135.37 76.8097C132.117 77.9093 128.782 78.7475 125.396 79.3162C121.245 80.0851 117.06 80.6156 112.866 81.0539C100.342 82.2618 87.7586 82.7406 75.1791 82.4878C66.4631 82.3302 57.7471 81.8881 49.0925 80.9501C46.177 80.6348 43.2653 80.2658 40.3727 79.7968C36.9785 79.2977 33.6142 78.6124 30.2949 77.7439C28.4811 77.2639 26.7143 76.6206 25.0162 75.8217C24.2035 75.4377 23.4451 74.9478 22.7605 74.3647C22.2301 73.9224 21.855 73.3215 21.6901 72.6501C21.6312 72.3379 21.6348 72.017 21.7006 71.7062C21.7665 71.3954 21.8933 71.1007 22.0738 70.8395C22.573 70.1564 23.2127 69.5888 23.9497 69.1749C25.1126 68.5151 26.3386 67.9742 27.6095 67.5602Z" fill="white"/>
<path d="M85.2344 40.0078L86.1321 40.1039C85.8328 40.0693 85.5374 40.0347 85.2344 40.0078Z" fill="white"/>
<path d="M83.7109 39.9043C84.2212 39.9351 84.7275 39.9735 85.2454 40.0196C84.7314 39.962 84.225 39.9235 83.7109 39.9043Z" fill="white"/>
<path d="M64.4873 68.3828L64.5625 68.4065L64.519 68.3828H64.4873Z" fill="white"/>
<path d="M96.6373 53.1678L96.3825 52.9756C96.3846 53.0329 96.3768 53.0901 96.3594 53.1447C96.452 53.1563 96.5447 53.164 96.6373 53.1678Z" fill="white"/>
<path d="M122.296 74.042C122.29 73.9403 122.272 73.8397 122.243 73.7421C121.199 68.1998 119.037 62.9293 115.89 58.2533L115.706 57.9918C112.563 53.3952 108.534 49.4756 103.856 46.4642C99.1785 43.4528 93.9462 41.4105 88.4681 40.4578C87.9541 40.3655 87.4362 40.2771 86.9029 40.2041L86.1357 40.1041L85.238 40.008C84.7316 39.9619 84.2252 39.9234 83.7035 39.8927H83.3199C82.6677 39.8581 82.004 39.8389 81.3404 39.8389C80.6767 39.8389 79.9708 39.8389 79.2956 39.8927H79.1C78.467 39.9273 77.8378 39.9773 77.2125 40.0388L76.9018 40.0734C76.3724 40.131 75.8507 40.2002 75.3328 40.2733C75.0105 40.3194 74.6921 40.3732 74.3775 40.4271L73.9517 40.5001C67.5298 41.6537 61.4703 44.3104 56.2666 48.2541C56.1361 48.3502 56.0172 48.454 55.8829 48.5501L55.7448 48.6616L55.5262 48.8308C52.2399 51.4334 49.3614 54.5149 46.9867 57.9726L46.511 58.6915C43.5082 63.2715 41.4415 68.4027 40.4305 73.7882C40.4224 73.8699 40.4083 73.9508 40.3883 74.0304C40.254 74.757 40.1428 75.4874 40.0469 76.2255L40.5533 76.2986C40.6607 75.4951 40.7834 74.6993 40.9369 73.9112C41.0405 73.5729 41.144 73.2346 41.2515 72.904C41.3366 74.1467 41.6311 75.3659 42.1223 76.51L42.364 76.5408L42.7092 76.5869L42.7323 76.6292V76.5908L43.2501 76.6561L44.7463 76.8368C44.777 76.7176 44.8077 76.5984 44.8422 76.4793C45.2757 76.0449 45.3294 75.3683 45.8972 75.0684V74.361C46.4342 73.9574 47.5084 74.1534 48.2334 74.2342C48.502 74.4302 48.7475 74.584 48.9777 74.7262C48.5941 75.5413 48.268 76.3601 47.9534 77.1943L48.4828 77.2443C48.7744 76.4754 49.0889 75.7412 49.4189 74.9992C50.0945 75.3741 50.6911 75.8768 51.1759 76.4793C51.3354 76.5999 51.4566 76.7644 51.5247 76.9528C51.5928 77.1411 51.6049 77.3452 51.5595 77.5403L52.227 77.6018V77.1943C52.7411 76.4254 53.7078 76.4254 54.3293 75.7873H54.4635C54.8472 75.9987 55.2308 76.2102 55.6336 76.4139C55.4533 76.8906 55.2845 77.375 55.1195 77.8517L55.6489 77.894C55.7947 77.4788 55.9405 77.0598 56.0939 76.6446C57.2026 77.1866 58.3752 77.6928 59.6118 78.1631L61.457 78.2707C59.6849 77.6828 57.9546 76.9751 56.2781 76.1525C56.7077 75.0261 57.1643 73.9036 57.6591 72.7887C58.4131 72.6136 59.1895 72.5565 59.9609 72.6195C60.4481 72.4004 60.287 71.966 60.31 71.5585C61.012 71.3971 61.6565 71.0434 62.3854 70.855C62.489 70.9934 62.6271 71.101 62.7345 71.2394C62.98 71.0472 63.1949 70.855 63.0874 70.5052C63.4365 70.4244 63.6245 70.6166 63.7856 70.8896C64.2191 70.4552 64.2728 69.7824 64.8406 69.4557C64.8406 69.0712 64.9864 68.6868 64.5567 68.4215L64.4838 68.3985C62.7005 68.5214 60.9411 68.8794 59.2512 69.4634C59.2895 69.3826 59.3241 69.3057 59.3701 69.2288C60.4749 68.8098 61.5875 68.4023 62.7345 68.0448L62.957 67.8333C63.4557 68.0294 63.9621 68.2178 64.4915 68.3985H64.5222L64.5644 68.4215C65.1782 68.633 65.8035 68.8329 66.448 69.0212C65.3508 71.9929 64.3457 75.1491 63.4711 78.3822L63.9966 78.4091C64.8675 75.2145 65.8649 72.1006 66.9506 69.1596C69.0927 69.747 71.2714 70.1913 73.4722 70.4898C72.9965 73.1116 72.5476 75.8719 72.1525 78.7051H72.6704C73.054 75.8988 73.5067 73.1578 73.9862 70.5513C76.3483 70.8472 78.7259 71.0013 81.1063 71.0126V78.8089H81.6204V71.0049C83.9878 70.9942 86.3526 70.8427 88.7021 70.5513C89.1855 73.1539 89.6267 75.8911 90.0218 78.7051H90.5435C90.1599 75.8757 89.6996 73.1155 89.2162 70.4936C91.1203 70.2361 93.0082 69.8703 94.8708 69.398C95.1701 69.6363 94.9207 70.2591 95.4194 70.3745V71.4278C94.8516 71.5624 95.2545 72.3504 94.7174 72.485C93.8274 72.4542 93.0908 72.4158 92.3389 72.954C92.7954 73.7229 92.4847 75.2029 92.6458 76.0295C92.9685 76.3451 93.3524 76.5911 93.7737 76.7522C94.2609 76.7522 94.9245 77.0521 95.3926 77.0521C96.4284 76.5177 96.904 76.3639 97.445 75.5797C96.8465 75.226 97.2531 74.3687 97.1726 73.8843C97.2336 73.8473 97.2902 73.8035 97.3414 73.7536C97.679 74.8108 98.0012 75.8872 98.3081 76.9675C98.2821 77.005 98.2539 77.041 98.2237 77.0751C97.28 76.9444 96.3746 78.0362 95.4348 77.9555C95.3255 77.821 95.209 77.6927 95.0857 77.5711C94.6253 78.0593 94.8823 77.9055 94.3951 78.3937C94.4028 78.4499 94.4028 78.5068 94.3951 78.5629C95.8452 78.5091 97.2762 78.4553 98.6879 78.3861L99.2173 78.3591L101.224 78.2554L103.073 78.1439C104.385 78.0631 105.68 77.9747 106.959 77.8786L107.484 77.8402C109.786 77.6633 112.007 77.4557 114.152 77.252L114.693 77.1943C116.016 77.0598 117.309 76.9137 118.564 76.7599C116.922 75.326 114.98 74.2957 113.308 72.8617C113.791 72.7772 114.363 73.1039 114.712 72.5081C114.58 72.4507 114.473 72.3487 114.41 72.22C114.346 72.0913 114.329 71.9442 114.363 71.8046C115.226 71.6931 115.276 72.9579 116.143 72.8617C117.049 73.8546 118.03 74.7761 119.078 75.6181C119.197 75.9641 119.308 76.314 119.415 76.6676L119.83 76.61H119.933L120.121 76.5831L120.708 76.5062L122.104 76.3178H122.143L122.653 76.2448C122.549 75.499 122.431 74.7647 122.296 74.042ZM44.1747 69.4095C43.6069 69.5479 44.0136 70.336 43.4727 70.4706C43.3581 72.2723 42.9967 74.0497 42.3985 75.7527V75.8411C41.9617 74.6983 41.7343 73.4858 41.7272 72.262C41.7272 71.9775 41.7272 71.7315 41.7463 71.4932C41.7847 71.3855 41.8231 71.2702 41.8653 71.1625C41.9375 71.2086 42.0209 71.2341 42.1064 71.2363C42.192 71.2385 42.2766 71.2174 42.3511 71.1751C42.4256 71.1329 42.4872 71.0711 42.5293 70.9964C42.5715 70.9217 42.5926 70.837 42.5903 70.7512C42.9931 70.3475 43.6108 69.2135 43.3959 68.879C43.745 66.7416 44.5813 65.9535 45.2297 64.8425C45.2795 66.4571 44.3358 67.841 44.1747 69.4095ZM58.5645 69.6709L57.1489 70.1438C56.6617 70.0631 56.0939 70.3898 55.7448 69.7901V68.7368C55.9639 68.4878 56.197 68.2516 56.443 68.0294C56.4767 67.8897 56.4602 67.7426 56.3963 67.6139C56.3325 67.4853 56.2254 67.3833 56.0939 67.3259C55.6643 67.7103 54.9929 67.8141 54.6937 68.3831C53.9265 68.4638 54.5633 67.841 54.3446 67.6757C54.7781 67.026 55.4955 66.7031 56.0939 66.2687C56.2198 66.3768 56.3365 66.4951 56.443 66.6224C56.6847 66.434 56.8765 66.238 56.796 65.915C56.3932 65.4806 55.6911 65.4268 55.3957 64.8309C55.6911 64.235 56.1093 64.4465 56.6272 64.3658L57.0108 64.6502C57.3254 65.865 57.5095 66.7685 57.8509 68.0294C57.5018 67.9218 57.3139 68.1371 57.1527 68.3831C57.1827 68.5231 57.164 68.6692 57.0998 68.7971C57.0357 68.925 56.9298 69.0272 56.7998 69.0866C56.9341 69.6287 57.7167 69.2481 57.8509 69.7901L58.6451 69.4864L58.5645 69.6709ZM107.02 61.2019C107.181 60.9597 107.373 60.7405 107.718 60.852L108.34 61.4748C108.144 61.717 107.937 61.9554 107.715 62.1899C107.316 61.817 106.955 61.3749 107.02 61.2019ZM107.638 63.001C107.744 63.1223 107.893 63.1965 108.054 63.2073C108.214 63.2181 108.372 63.1647 108.493 63.0587C108.527 63.0304 108.556 62.9982 108.582 62.9626C108.407 62.8359 108.242 62.6971 108.087 62.5474C108.305 62.3129 108.509 62.0784 108.704 61.84L108.773 61.9092C109.492 61.8198 110.221 61.9414 110.872 62.2591C110.768 62.6127 110.979 62.8011 111.225 62.9626C111.136 63.4934 110.891 63.9858 110.523 64.3773H109.825C109.23 64.6964 109.176 65.373 108.743 65.7843V66.0188C108.179 65.1923 107.592 64.3888 106.993 63.5969C107.208 63.4008 107.423 63.2009 107.63 63.001H107.638ZM102.267 67.3913C102.651 68.0794 103.034 68.7752 103.383 69.4787C103 69.3134 102.889 68.8252 102.018 68.7714C102.102 68.4215 101.519 67.841 101.274 67.6796C101.585 67.5453 101.91 67.4485 102.244 67.3913H102.267ZM99.6546 58.7069C99.1674 58.926 99.3286 59.3873 99.3017 59.7679C99.8963 60.1216 99.5741 60.7136 99.6546 61.175C99.4858 61.2788 99.3286 61.3825 99.1674 61.4902C98.3004 60.2523 97.3861 59.0478 96.4245 57.8765C97.2068 57.477 97.9582 57.0196 98.6726 56.5079C98.5728 56.7924 98.6495 57.2038 98.2544 57.2999C98.6879 57.7881 99.2787 58.111 99.6316 58.7069H99.6546ZM92.3658 58.9529L91.9361 59.0836C90.6133 56.4209 89.004 53.911 87.1369 51.5987C87.723 51.4186 88.2949 51.195 88.8479 50.9298C89.7609 51.6987 90.6561 52.4983 91.5333 53.3287C91.5832 54.0053 92.0704 54.6242 91.9169 55.3354C92.454 55.5007 92.0512 56.2542 92.6189 56.3926C92.6776 57.1245 92.5564 57.8597 92.266 58.5339C92.2706 58.677 92.2978 58.8184 92.3466 58.9529H92.3658ZM84.1178 52.2484C84.9545 52.1454 85.7827 51.9823 86.596 51.7602C88.1689 53.5555 89.8223 56.1235 91.4374 59.2336C89.9575 59.6452 88.4515 59.956 86.9298 60.1639C85.9937 56.7501 85.0347 54.0129 84.0986 52.2484H84.1178ZM86.4196 60.2292C84.8291 60.4335 83.2277 60.54 81.6242 60.5483V52.4291C82.2779 52.4255 82.9309 52.3883 83.5807 52.3176C84.4899 54.0091 85.4643 56.7578 86.3965 60.2292H86.4196ZM92.2315 51.8217C91.7328 51.9409 91.986 52.5636 91.6867 52.802C90.9195 52.0716 90.1292 51.368 89.3198 50.6837C89.7703 50.4402 90.1967 50.1545 90.5934 49.8303C91.6177 50.3877 92.6381 51.0067 93.6624 51.6756C93.1918 51.774 92.7122 51.823 92.2315 51.8217ZM91 49.4689C91.2986 49.1797 91.5567 48.8512 91.7673 48.4925C93.3709 49.1114 94.9207 49.7919 96.4015 50.5338C96.6547 50.9413 96.5473 51.4026 97.0613 51.7486C97.1687 52.0985 96.9539 52.2907 96.7084 52.4521C96.9539 52.6405 97.1687 52.8366 97.0613 53.1826H96.6317C96.5392 53.1806 96.447 53.1729 96.3555 53.1595C96.3746 53.1053 96.3824 53.0477 96.3785 52.9904C96.3785 52.7674 96.202 52.6059 95.9949 52.4598C95.8836 52.4637 95.7724 52.4637 95.6611 52.4598L95.1931 52.1292C95.2915 52.1013 95.3829 52.0525 95.461 51.9862C95.5391 51.9199 95.6021 51.8375 95.6458 51.7448C95.7532 51.418 95.5383 51.2296 95.2928 51.0413C94.9761 51.2257 94.6404 51.3752 94.2916 51.4872C93.2059 50.7453 92.1087 50.0699 91 49.4613V49.4689ZM97.5562 49.8803C97.1726 49.9418 96.7544 49.7688 96.4053 49.961C94.9898 49.2652 93.5218 48.6245 92.0013 48.0388C92.1244 47.7377 92.2045 47.4206 92.2392 47.097C93.5811 47.3729 94.9035 47.7363 96.1982 48.1849C96.3018 48.281 96.4015 48.381 96.5012 48.4848C96.3783 48.5933 96.2617 48.7088 96.1521 48.8308C96.4475 49.3844 97.1227 49.4689 97.5562 49.8726V49.8803ZM94.6138 54.2129C95.2314 54.5396 95.4463 55.27 96.0102 55.6506C96.1474 56.1852 96.4031 56.6819 96.7583 57.1038C96.5319 57.2307 96.3018 57.3537 96.0601 57.4882C95.7915 57.1653 95.5153 56.8424 95.2353 56.5233C95.1854 55.666 94.3913 55.1163 94.6138 54.2052V54.2129ZM96.8503 47.0624C96.7199 46.9317 96.6125 46.8202 96.5012 46.7125C96.3248 47.0201 95.8798 47.1393 95.803 47.4814C94.6367 47.1013 93.4493 46.7894 92.2468 46.5472C92.2226 46.2853 92.1672 46.0272 92.0819 45.7784C93.9301 45.9898 95.76 46.3393 97.5562 46.824C97.56 47.4007 97.046 46.8509 96.8503 47.0547V47.0624ZM92.6496 44.9019L93.156 44.3944C93.5627 44.4175 93.9693 44.4482 94.3798 44.4905C94.4977 44.5528 94.6303 44.582 94.7634 44.5751H94.0537C93.7813 44.8519 93.4974 45.121 93.2251 45.3939C92.7532 45.3286 92.2929 45.2709 91.8363 45.2248C91.6942 44.9647 91.5258 44.7199 91.3338 44.4944C91.8079 44.4598 92.2776 44.6053 92.6496 44.9019ZM66.7396 43.3641C69.6273 42.0002 72.7154 41.1111 75.8852 40.7308C76.7982 40.6077 77.7202 40.5155 78.6511 40.454C79.2189 40.5539 79.802 40.5924 80.3698 40.6769C80.4444 40.5523 80.5484 40.448 80.6728 40.3732H81.0948C81.4478 40.9153 81.9963 40.6346 82.472 40.6846C82.5202 40.5591 82.6151 40.4571 82.7367 40.4001H83.7418C87.0986 40.5962 88.2456 41.8956 89.3505 42.9643C88.7372 42.6304 88.0953 42.3525 87.4323 42.1339C85.4673 41.5105 83.4168 41.2004 81.3557 41.2151C77.3698 41.2151 73.875 42.2646 71.9645 43.9062C71.4888 43.8716 71.0093 43.8524 70.5259 43.8524C70.1423 43.8524 69.7587 43.8639 69.3751 43.887C69.306 43.8068 69.2259 43.7369 69.1372 43.6794C69.0956 43.7745 69.0294 43.8568 68.9454 43.9177C68.6498 43.927 68.3551 43.9553 68.0631 44.0023C68.1513 43.6717 67.971 43.4795 67.7331 43.2988C67.3148 43.4961 66.8493 43.5707 66.3905 43.5141C66.4979 43.4718 66.613 43.4064 66.7396 43.3641ZM69.6167 50.38C69.6215 50.4584 69.6357 50.5358 69.6589 50.6107C68.9991 51.0182 68.3431 51.4513 67.6909 51.9101L67.5183 52.0331C66.9927 52.4175 66.471 52.7828 65.9531 53.1864V52.5213C65.6347 52.0562 65.0017 51.8486 64.7102 51.368C66.6914 50.2887 68.7419 49.3422 70.8482 48.5348C70.8523 48.6367 70.8704 48.7376 70.9019 48.8346L69.8546 48.9384C69.471 49.3844 68.8035 49.5266 68.5349 50.1263C68.8188 50.5723 69.2331 50.3685 69.6091 50.3608L69.6167 50.38ZM70.8635 45.2555C69.682 45.3786 68.5093 45.5592 67.3457 45.7976L68.0592 45.121C68.5838 45.0301 69.0712 44.7899 69.4633 44.429C69.8162 44.4136 70.1692 44.4059 70.5221 44.4059C70.8328 44.4059 71.1436 44.4059 71.4505 44.4367C71.2242 44.6811 71.0249 44.9492 70.8559 45.2363L70.8635 45.2555ZM65.9454 47.2085C66.1682 46.9385 66.4064 46.6818 66.659 46.4396C67.9631 46.149 69.2822 45.9308 70.6103 45.7861C70.5232 46.0344 70.4678 46.2927 70.4454 46.5549C68.9274 46.8658 67.4327 47.282 65.9723 47.8005C65.9209 47.7112 65.8916 47.6108 65.887 47.5078C65.8823 47.4047 65.9023 47.3021 65.9454 47.2085ZM66.2984 48.6193C66.3102 48.4873 66.2864 48.3545 66.2293 48.2349C67.6076 47.7458 69.0175 47.3515 70.4492 47.0547C70.4849 47.3777 70.5636 47.6945 70.6832 47.9966C68.5785 48.8033 66.5282 49.7458 64.5452 50.8183V50.7107C65.2187 50.0966 65.8082 49.396 66.2984 48.627V48.6193ZM64.1654 55.666C64.3057 55.6341 64.4527 55.6524 64.5809 55.7177C64.7091 55.783 64.8105 55.8912 64.8675 56.0235C65.1135 55.8013 65.3466 55.5652 65.5657 55.3162H66.6475C66.5401 55.666 66.728 55.8582 66.9966 56.0235C67.0539 55.8915 67.1554 55.7836 67.2835 55.7183C67.4116 55.6531 67.5584 55.6346 67.6986 55.666C67.9403 55.5084 68.1283 55.3162 68.0516 54.9933C67.806 54.4781 67.3764 54.6357 66.9966 54.6088C66.8892 54.2859 68.1475 53.0711 68.3968 52.9058C68.7267 52.6251 68.5541 52.3022 68.2741 52.0946C68.8418 51.7102 69.4249 51.3258 69.9889 50.9798C70.1243 51.0182 70.2677 51.0182 70.4032 50.9798C70.1845 51.2489 69.962 51.4872 69.7433 51.7486C70.0272 52.249 70.211 52.8001 70.2843 53.3709C68.9723 54.6665 67.7242 56.0184 66.5401 57.4267C65.646 56.9765 64.7958 56.4437 64.0005 55.8352C64.0611 55.7846 64.1164 55.7279 64.1654 55.666ZM69.7664 55.666L69.0682 55.7352C68.9147 56.1196 68.3009 56.2696 68.4697 56.8539C68.7344 57.073 68.9723 57.2922 69.237 57.4844C69.3751 57.8265 69.1794 58.038 68.9531 58.2225C69.0443 58.2601 69.126 58.3175 69.1924 58.3907C69.2587 58.4638 69.308 58.5508 69.3367 58.6454C68.5462 58.3675 67.7714 58.0466 67.0158 57.6843C67.948 56.5771 68.9211 55.5045 69.9352 54.4666C69.7444 54.8355 69.6848 55.2586 69.7664 55.666ZM62.067 62.755C61.9525 63.276 61.7113 63.7607 61.365 64.1658H60.3138V63.4585C60.5593 63.2201 60.7742 62.9741 61.0159 62.755C60.801 62.2937 61.5529 62.1629 61.365 61.7016C61.1274 61.4699 60.9032 61.2248 60.6936 60.9674C60.8816 60.4253 60.2908 60.0755 60.3407 59.5603C60.7627 59.2989 60.7243 58.9183 60.6859 58.5377C61.3151 57.8957 61.9596 57.2691 62.6041 56.6655C62.8694 56.5203 63.1596 56.4264 63.4596 56.3887C63.5171 56.3388 63.5708 56.285 63.6245 56.2311C64.4281 56.8556 65.2887 57.4026 66.1948 57.865C65.8035 58.3417 65.4199 58.8235 65.0439 59.3104C64.6368 59.5229 64.2653 59.7979 63.9429 60.1254C63.2524 60.8751 62.9301 62.0399 62.067 62.7434V62.755ZM66.6245 68.5215C65.4736 68.1909 64.3918 67.8218 63.356 67.4182L63.4404 67.3297H66.2715C66.1641 67.6796 66.3789 67.8718 66.6206 68.0333C66.678 68.0519 66.7371 68.0648 66.7971 68.0717L66.6245 68.5215ZM66.6245 58.5262L66.1334 58.7722C66.3099 58.5454 66.4902 58.3225 66.6705 58.0995C67.5581 58.5263 68.4701 58.8998 69.4019 59.2182C69.4006 59.3476 69.4147 59.4766 69.4441 59.6026C69.7056 59.7823 69.9893 59.9271 70.2881 60.0332C69.7587 61.0942 69.237 62.2129 68.7191 63.3778C68.6769 62.9049 68.9416 62.3705 68.3738 62.0361C68.2165 62.2783 68.0247 62.4974 67.6756 62.3898C67.4876 61.3326 67.1884 60.3023 67.3227 59.2182C67.1032 58.9707 66.8688 58.7371 66.6206 58.5185V58.5262H66.6245ZM73.5527 69.9746C71.3826 69.6813 69.2345 69.2421 67.1232 68.6599L67.3649 68.0294C67.806 67.9025 68.2319 67.645 68.7229 67.7026C68.9646 67.4604 69.1794 67.2183 69.4211 67.003V65.9419C68.9953 65.6997 68.861 65.2538 68.6347 64.8655C69.3175 63.2586 70.0157 61.7285 70.7254 60.2984C70.8032 60.3656 70.8727 60.4417 70.9326 60.5253C71.0436 60.2745 71.1718 60.0318 71.3162 59.7987C72.719 60.175 74.1437 60.4639 75.5821 60.6637C74.8686 63.4162 74.1781 66.5647 73.5489 69.967V69.9746H73.5527ZM72.7318 57.173C73.2228 56.6655 73.8827 56.3849 74.3737 55.9543C74.7266 56.0043 74.8993 55.7929 75.0642 55.5315C74.9223 55.197 75.0911 54.9856 75.3443 54.801L76.0425 54.7318C75.6589 54.3474 76.008 53.5093 75.8699 52.9519C76.3302 52.6905 76.1307 52.2753 76.1192 51.8678C76.1267 51.8369 76.1383 51.8072 76.1537 51.7794C76.9226 51.9864 77.7044 52.1418 78.4938 52.2445C77.5731 54.0091 76.6294 56.7501 75.7164 60.1677C74.3333 59.9773 72.9627 59.7051 71.6116 59.3527C71.9816 58.8421 72.3772 58.3507 72.797 57.8804C72.7701 57.6266 72.7471 57.3844 72.728 57.1653V57.173H72.7318ZM81.091 70.4975C78.7413 70.4937 76.3941 70.3435 74.063 70.0477C74.696 66.6378 75.3865 63.4854 76.0962 60.7444C77.7506 60.9526 79.4159 61.063 81.0833 61.075L81.091 70.4975ZM81.091 60.556C79.4659 60.5447 77.8428 60.4368 76.2305 60.2331C77.1588 56.7732 78.1179 54.0014 79.0348 52.3138C79.7023 52.3829 80.389 52.4252 81.091 52.4368V60.556ZM81.348 51.9255C79.7636 51.9339 78.1841 51.748 76.6448 51.3719C76.9593 51.2258 77.2969 51.0989 77.343 50.7952C76.8711 50.4108 76.2918 50.5684 75.9427 50.0264C75.7356 49.2806 76.3264 48.4617 76.5374 47.7621C76.6524 46.7164 75.3865 47.7082 75.0028 47.7121C74.132 46.8509 74.5195 46.5934 74.2625 46.455C73.5681 47.4199 72.2868 47.8966 71.0362 46.7664C70.9913 46.8274 70.9587 46.8966 70.9403 46.9701V46.7702C70.9403 45.467 72.0182 44.2022 73.9095 43.2642C75.8008 42.3262 78.421 41.7264 81.3519 41.7264C84.2828 41.7264 86.9144 42.3185 88.7942 43.2642C89.168 43.4514 89.5282 43.6646 89.8722 43.9023C90.0832 44.0484 90.2865 44.206 90.4822 44.3713C91.3108 45.1056 91.7711 45.9091 91.7673 46.7702C91.7673 48.1388 90.6855 49.4267 88.7942 50.38C86.9029 51.3334 84.2751 51.9178 81.3442 51.9178V51.9255H81.348ZM81.6051 70.4975V61.0673C83.2532 61.0547 84.8992 60.9456 86.5346 60.7405C87.2559 63.4816 87.9541 66.6339 88.5909 70.0438C86.2724 70.3365 83.938 70.4855 81.6012 70.4898V70.4975H81.6051ZM93.3018 68.9597C93.3534 69.0499 93.4257 69.1263 93.5128 69.1827C92.1011 69.5056 90.6279 69.7747 89.1049 69.9823C88.4681 66.5801 87.7738 63.4239 87.0487 60.679C88.6029 60.4583 90.1407 60.1347 91.6522 59.7103C92.8031 61.9861 93.954 64.5234 95.0089 67.249C94.6382 67.9877 94.0376 68.5855 93.298 68.9521V68.9597H93.3018ZM97.0728 62.0784C96.6393 62.3206 96.7468 62.3744 96.4744 61.94C96.202 61.5056 96.4744 61.148 96.3938 60.9597C96.3133 60.7713 95.5115 60.6406 95.5115 60.6406C95.5115 60.6406 94.7442 60.9135 94.8095 61.2634C94.9857 61.651 95.2227 62.0079 95.5115 62.3206C95.78 62.6505 96.1079 62.9269 96.4782 63.1356C95.711 63.6238 96.3708 64.1082 95.7493 64.7041V65.4114C95.5462 65.6406 95.3311 65.8587 95.1048 66.065C94.1611 63.7391 93.1867 61.5555 92.1701 59.5719C92.289 59.5373 92.4041 59.495 92.523 59.4565C92.8164 60.132 93.2837 60.7172 93.8772 61.1519C94.4719 60.7982 94.3836 60.0985 94.468 59.6142C94.9284 59.3989 94.8516 59.7487 95.312 59.5296L96.3631 60.5868C96.4948 60.5294 96.6022 60.4276 96.6667 60.299C96.7311 60.1705 96.7486 60.0234 96.7161 59.8833C96.4744 59.7218 96.2596 59.5296 96.3631 59.1721C96.4543 59.1133 96.537 59.0421 96.6087 58.9606C97.3414 59.8871 98.0485 60.8328 98.7301 61.7977C98.4178 62.0307 98.1333 62.299 97.8823 62.5974C97.6368 62.5858 97.3145 62.0707 97.069 62.0707V62.0784H97.0728ZM105.896 75.6835C105.436 76.2217 104.63 76.1986 104.147 76.7368C103.499 76.2486 103.564 76.0833 103.426 75.5143C103.211 75.2683 103.123 74.1611 102.881 73.9459C102.367 73.892 101.73 74.4917 101.178 74.2726C100.345 74.707 99.9424 75.4913 99.0524 75.8488C98.9 76.0192 98.771 76.2093 98.6687 76.4139C98.2851 75.1261 97.9015 73.8536 97.491 72.608V72.485C97.5447 71.9699 97.1956 71.7161 97.4373 71.151C98.1355 71.2048 98.0089 70.336 98.8183 70.6589C99.3823 70.3591 99.271 69.7363 99.6777 69.3288C100.027 69.2212 100.771 70.0169 100.852 70.3475C100.932 70.6782 102.275 71.0626 103.038 71.1164C104.86 71.2817 104.208 72.2697 104.665 72.312H104.719C104.569 72.312 102.8 72.2428 102.509 72.5311C102.735 73.3 103.679 73.0655 103.894 73.3C104.109 73.5345 104.692 73.1962 104.937 72.781C105.39 73.7998 105.816 74.8301 106.211 75.8565C106.104 75.806 106.003 75.7455 105.908 75.6758L105.896 75.6835ZM109.076 76.0372C108.618 75.9756 108.152 75.9834 107.695 76.0602C108.137 75.8296 108.559 75.5874 108.973 75.3413C109.047 75.4402 109.095 75.5554 109.115 75.6771C109.135 75.7989 109.126 75.9237 109.088 76.041H109.076V76.0372ZM110.227 73.9189H109.433C109.192 74.165 108.946 74.3803 108.727 74.6263C108.723 74.708 108.732 74.7898 108.754 74.8685C108.129 75.2529 107.469 75.6066 106.786 75.9526C106.253 74.5494 105.667 73.1526 105.029 71.7623C105.029 71.6854 105.002 71.6085 104.995 71.5201C104.937 71.028 105.486 71.4816 105.62 71.1356C105.754 70.7896 105.39 70.9165 105.236 70.5859C104.979 70.3168 104.63 70.1548 104.258 70.1323C103.875 69.3903 103.51 68.6483 103.107 67.9179C103.246 68.1127 103.423 68.2767 103.628 68.3997C103.832 68.5227 104.06 68.6021 104.297 68.633C105.129 69.0674 104.768 69.0789 105.39 69.7286C105.39 70.0016 105.931 70.4321 105.958 70.7589C105.984 71.0857 106.28 71.0011 106.575 71.2702C106.91 71.5989 107.148 72.014 107.262 72.4696C107.343 72.8541 107.331 72.1121 108.167 72.0852C109.004 72.0583 108.167 71.893 108.731 71.6239C109.295 71.3548 109.142 71.6239 109.38 71.8161C109.617 72.0083 109.514 71.5162 109.917 71.2125C110.319 70.9088 110.431 70.8281 110.082 70.5782C109.732 70.3283 109.978 70.1938 109.514 70.4321C109.05 70.6705 109.514 70.8934 108.593 70.7589C107.672 70.6243 108.516 70.2707 108.21 69.9477C107.903 69.6248 108.328 69.3596 107.059 69.3596C106.571 69.1135 106.644 69.0213 106.617 68.6176C106.859 68.3985 107.074 68.1563 107.316 67.9102C108.321 67.5258 108.555 66.9799 108.34 66.5186C108.129 66.3033 107.573 66.211 107.323 65.9688C107.404 65.2653 106.671 64.904 106.265 64.3927C106.265 64.3218 106.272 64.2511 106.284 64.1812C106.38 64.1043 106.479 64.0313 106.571 63.9544C107.316 64.927 108.03 65.924 108.716 66.9453V67.199C108.496 67.3874 108.314 67.6175 108.183 67.876C108.051 68.1346 107.972 68.4166 107.949 68.706C108.539 69.3019 109.188 69.0904 109.756 69.694C109.889 69.5307 110.01 69.3572 110.116 69.175C110.784 70.2822 111.411 71.4086 112 72.5542C111.436 73.0347 110.845 73.4884 110.235 73.9112L110.227 73.9189ZM112.426 72.2082C111.8 70.9857 111.126 69.785 110.404 68.6061C110.437 68.5004 110.463 68.3925 110.481 68.2831C110.611 68.3858 110.73 68.5032 110.833 68.633C111.075 68.3908 111.317 68.1486 111.559 67.9295V67.2259C112.122 67.0914 112.23 67.7142 112.61 67.9295C112.755 69.0366 113.377 70.0285 113.576 71.1126C113.227 71.4739 112.84 71.8392 112.433 72.1967L112.426 72.2082ZM119.266 68.9905C118.417 68.5783 117.597 68.1068 116.814 67.5796C116.81 67.3845 116.819 67.1892 116.841 66.9953C116.876 66.8404 116.93 66.6905 117.002 66.5493C117.428 66.6032 117.704 67.0952 118.214 66.8761C118.327 66.8344 118.423 66.7571 118.488 66.6559C118.553 66.5546 118.584 66.4349 118.575 66.3148C118.763 66.6493 118.959 66.9953 119.12 67.3451C119.227 67.9102 119.515 68.5638 119.273 68.9828L119.266 68.9905ZM119.266 66.5263C119.02 66.0688 118.767 65.6229 118.498 65.1846C118.647 65.0925 118.802 65.0116 118.963 64.9424C119.208 65.5037 119.438 66.0726 119.665 66.6416C119.526 66.6337 119.392 66.5915 119.273 66.5186L119.266 66.5263ZM90.8773 63.3086C90.8773 63.5815 90.3939 63.9313 90.229 64.2812C90.1633 64.3984 90.1439 64.536 90.1744 64.667C90.2049 64.7979 90.2832 64.9126 90.3939 64.9885C90.5282 65.0693 91.3376 65.2307 91.4489 65.2846C91.8717 65.6276 92.2575 66.0141 92.5998 66.4379C92.8952 66.8223 92.6803 67.3874 92.7072 67.6296C92.1394 67.5758 92.1164 68.4484 91.9821 68.6906C91.8479 68.9328 92.5729 69.0443 92.6803 68.7714C92.7877 68.4984 94.2954 67.2336 94.3759 66.953C94.4754 66.5678 94.4374 66.1598 94.2685 65.7997C94.037 65.4075 93.674 65.1105 93.2443 64.9616C92.8606 64.8232 92.9527 64.6079 92.477 64.2543C92.0013 63.9006 90.8773 61.2365 90.8773 63.3009V63.3086ZM92.0282 66.8031C91.5678 66.5609 91.3261 66.4801 91.3798 66.2072C91.4335 65.9342 91.6752 65.8574 91.3261 65.6382C90.977 65.4191 90.6509 65.8843 90.3556 65.7728C90.1676 65.4998 90.2213 66.1265 89.8952 66.2072C89.6267 66.3956 90.0026 66.4801 90.1139 66.83C90.7584 67.076 90.1369 67.9833 90.8121 68.2408C91.353 68.1025 91.2993 67.5066 91.8632 67.372C92.1433 67.0107 92.4962 67.0107 92.0128 66.8146L92.0282 66.8031Z" fill="white"/>
<path d="M100.759 110.706C100.359 112.253 99.8007 113.755 99.0942 115.188C96.4312 115.942 93.7187 116.507 90.9767 116.88C91.4182 115.081 91.7323 113.253 91.9165 111.409L91.3948 111.436C91.2055 113.305 90.8785 115.156 90.4166 116.976C87.4904 117.353 84.5434 117.545 81.5932 117.549V111.659H81.0868V117.53C78.116 117.526 75.1485 117.333 72.202 116.953C72.1954 116.915 72.1851 116.878 72.1713 116.842C72.5972 116.672 73.092 116.895 73.5447 116.792C74.1086 116.492 74.1623 115.811 74.592 115.381C74.3542 114.516 74.9181 113.755 74.9449 112.913H75.647C75.9842 112.538 76.2251 112.087 76.349 111.598C74.6227 111.556 72.9194 111.491 71.2391 111.406L70.7174 111.379C67.6867 111.221 64.7379 110.999 61.871 110.714L61.3262 110.664C59.082 110.437 56.903 110.172 54.7662 109.895L54.5859 109.868L54.1754 109.814C54.4713 110.527 54.8043 111.224 55.1729 111.902C53.7949 111.174 52.4796 110.333 51.2407 109.387L51.0182 109.353L50.6691 109.295L50.32 109.237H50.2241L49.875 109.184C53.7832 113.706 58.6161 117.333 64.0461 119.819C69.476 122.305 75.376 123.591 81.3457 123.591C87.3155 123.591 93.2154 122.305 98.6454 119.819C104.075 117.333 108.908 113.706 112.816 109.184C112.816 109.184 110.653 109.537 108.297 109.864C106.652 110.087 104.557 110.348 104.522 110.348C104.249 110.67 104.024 111.03 103.855 111.417C103.797 111.513 103.26 112.897 102.9 113.977C101.898 114.362 100.855 114.708 99.7732 115.027C100.421 113.636 100.935 112.187 101.308 110.698L100.759 110.706ZM81.0868 118.049V123.046C79.109 123.032 77.1347 122.876 75.179 122.581L75.1598 122.558C73.9667 121.643 73.046 119.867 72.367 117.491C75.2596 117.854 78.1716 118.04 81.0868 118.049ZM52.265 110.983C52.0348 110.752 51.82 110.514 51.5975 110.283C52.88 111.197 54.2319 112.01 55.6409 112.713C56.273 113.759 57.0081 114.739 57.8352 115.638C55.8468 114.252 53.9829 112.694 52.265 110.983ZM64.3761 119.371C64.404 119.347 64.4254 119.315 64.4381 119.281C64.4509 119.246 64.4546 119.208 64.4489 119.171C64.9745 119.121 65.0282 119.21 65.3773 118.964C65.8147 119.467 66.2864 119.94 66.7891 120.378C65.9719 120.071 65.1702 119.729 64.3761 119.371ZM68.2622 120.909L67.6023 120.413C67.0537 119.975 66.5406 119.494 66.0678 118.975C66.5627 119.121 67.0192 119.425 67.5602 119.267C67.8057 119.025 68.0512 118.81 68.2622 118.564H68.9642C69.2366 118.402 69.4207 118.21 69.3133 117.86C69.2128 117.729 69.0954 117.611 68.9642 117.51C69.2257 117.365 69.496 117.237 69.7737 117.126C70.4373 117.237 71.1087 117.334 71.7877 117.43C72.39 119.59 73.1879 121.305 74.2429 122.427C72.2181 122.066 70.2229 121.555 68.2737 120.897L68.2622 120.909ZM81.6009 118.06C84.4981 118.053 87.3922 117.868 90.267 117.507C89.5764 119.867 88.6442 121.643 87.455 122.558L87.4166 122.6C85.4959 122.884 83.5576 123.032 81.6162 123.042L81.6009 118.06ZM90.827 117.43C93.5094 117.076 96.165 116.541 98.7758 115.83C97.6251 117.773 96.1407 119.496 94.3909 120.92C92.4108 121.59 90.3817 122.104 88.322 122.458C89.3961 121.32 90.2171 119.594 90.827 117.418V117.43ZM95.6953 120.471C97.2488 119.121 98.5235 117.479 99.4471 115.638C100.571 115.315 101.657 114.958 102.704 114.577C102.647 114.754 102.604 114.935 102.578 115.119C102.531 115.6 103.387 115.7 104.112 115.704C104.349 115.71 104.586 115.701 104.822 115.677C104.012 116.242 103.184 116.78 102.336 117.284C100.222 118.54 97.9996 119.603 95.6953 120.459V120.471Z" fill="white"/>
<path d="M52.3349 101.206L50.0331 100.949C49.7994 100.93 49.5776 100.837 49.4002 100.683C49.2417 100.537 49.1173 100.357 49.0357 100.157L47.8388 96.739C45.6291 96.4661 43.4233 96.1662 41.2213 95.8395C40.8376 96.8698 40.4233 97.9039 40.0282 98.9342C39.9615 99.1055 39.8418 99.251 39.6868 99.3493C39.4983 99.464 39.2739 99.5037 39.0576 99.4608C38.2904 99.3417 37.5231 99.2135 36.7559 99.0764C38.8428 94.0749 40.9348 89.0465 43.032 83.9912C44.0409 84.1335 45.0498 84.2706 46.0588 84.4026C48.1419 90.0307 50.2339 95.6319 52.3349 101.206ZM47.0716 94.5324L45.1266 88.9427C45.0307 88.6928 44.9309 88.4007 44.8273 88.0585C44.7238 87.7164 44.6202 87.355 44.5166 86.9629C44.4207 87.3473 44.321 87.6664 44.2212 87.9816C44.1215 88.2969 44.0179 88.5698 43.922 88.8005L42.0039 93.8443C43.6841 94.0903 45.3734 94.3197 47.0716 94.5324Z" fill="white"/>
<path d="M66.7393 87.4093C66.7404 87.7374 66.6384 88.0575 66.4477 88.3242C63.6971 92.0532 60.9465 95.7387 58.1959 99.3806C60.9772 99.6151 63.761 99.8085 66.5474 99.961V102.348C62.4695 102.125 58.3941 101.813 54.3213 101.41V100.234C54.3213 100.09 54.3486 99.9482 54.4018 99.815C54.4507 99.6843 54.5179 99.5614 54.6013 99.4497C57.3519 95.8245 60.1064 92.1583 62.8646 88.4511C60.1908 88.2704 57.5169 88.05 54.843 87.7899V85.4141C58.802 85.7985 62.7662 86.0971 66.7354 86.3098V87.4093H66.7393Z" fill="white"/>
<path d="M84.6048 102.737H82.303C82.0749 102.749 81.8495 102.681 81.6662 102.544C81.5008 102.418 81.369 102.253 81.2826 102.064L80.0818 98.7846C77.8568 98.7846 75.6279 98.7346 73.4067 98.6693L72.2022 101.906C72.1304 102.086 72.011 102.243 71.8569 102.36C71.6757 102.497 71.4507 102.564 71.2239 102.548C70.4567 102.517 69.6625 102.487 68.8838 102.448C70.9937 97.1969 73.1062 91.9212 75.2213 86.6211C76.2379 86.6442 77.2583 86.6595 78.2903 86.6711C80.3887 92.057 82.4935 97.4121 84.6048 102.737ZM79.3107 96.6856C78.6586 94.8915 78.0051 93.1052 77.3504 91.3266C77.2545 91.0882 77.1509 90.8037 77.0473 90.477C76.9438 90.1502 76.8402 89.7965 76.7366 89.4159C76.6407 89.8004 76.541 90.1463 76.4374 90.4731C76.3338 90.7999 76.2302 91.0844 76.1343 91.3266C75.486 93.0873 74.8364 94.8441 74.1855 96.5972C75.8926 96.6433 77.601 96.6728 79.3107 96.6856Z" fill="white"/>
<path d="M100.518 102.098L97.8131 102.271C97.5957 102.303 97.3738 102.269 97.1757 102.174C96.9775 102.079 96.8122 101.927 96.7006 101.737C95.5728 100.088 94.4449 98.4307 93.317 96.7661C93.213 96.604 93.069 96.4716 92.8989 96.3817C92.6856 96.2978 92.4555 96.2662 92.2276 96.2894L90.9462 96.3356V102.606C89.945 102.64 88.9476 102.667 87.9463 102.69V86.6325C89.5844 86.594 91.2225 86.5415 92.8605 86.4748C93.8029 86.4168 94.7488 86.4867 95.6725 86.6824C96.3624 86.8293 97.0151 87.1157 97.5906 87.5243C98.0753 87.8821 98.4565 88.3623 98.6955 88.916C98.9398 89.5013 99.0613 90.1307 99.0523 90.7651C99.0523 91.2869 98.972 91.8056 98.8144 92.3029C98.6567 92.7875 98.4237 93.2442 98.1239 93.6561C97.8134 94.0781 97.4379 94.4479 97.0114 94.7517C96.5497 95.0816 96.0416 95.3408 95.5037 95.5206C95.6961 95.627 95.8751 95.7561 96.037 95.905C96.2072 96.055 96.3569 96.2269 96.482 96.4163C97.8285 98.3231 99.1737 100.217 100.518 102.098ZM92.826 94.1097C93.3297 94.0979 93.8282 94.0058 94.303 93.8367C94.687 93.6966 95.0391 93.481 95.3388 93.2024C95.6072 92.9488 95.8145 92.6372 95.9449 92.2913C96.0835 91.923 96.1512 91.5316 96.1444 91.138C96.1676 90.7899 96.1064 90.4414 95.9661 90.1221C95.8259 89.8028 95.6106 89.5222 95.3388 89.3043C94.8017 88.8968 93.9769 88.7161 92.872 88.7622L90.9539 88.8353V94.1635L92.826 94.1097Z" fill="white"/>
<path d="M112.476 87.8818C112.407 88.0274 112.311 88.1581 112.192 88.2662C112.082 88.3535 111.948 88.4045 111.808 88.4123C111.632 88.4266 111.455 88.3863 111.302 88.2969C111.122 88.2008 110.918 88.097 110.654 87.9856C110.37 87.8595 110.074 87.7617 109.771 87.6934C109.379 87.6095 108.976 87.5926 108.578 87.6434C108.206 87.6716 107.839 87.7572 107.493 87.8971C107.21 88.0126 106.95 88.178 106.725 88.3854C106.521 88.5758 106.36 88.8078 106.253 89.0658C106.15 89.3303 106.096 89.612 106.096 89.8962C106.081 90.2308 106.195 90.5583 106.415 90.8111C106.647 91.0603 106.933 91.2535 107.251 91.3763C107.635 91.5406 108.033 91.6693 108.44 91.7607C108.885 91.8568 109.338 91.9606 109.806 92.0721C110.267 92.1841 110.722 92.3214 111.168 92.4834C111.598 92.6373 111.999 92.8635 112.353 93.1523C112.711 93.4453 112.997 93.8161 113.189 94.2365C113.419 94.7603 113.528 95.3293 113.508 95.9011C113.506 96.6105 113.376 97.3138 113.124 97.977C112.879 98.6342 112.51 99.2383 112.039 99.7569C111.543 100.295 110.951 100.736 110.293 101.056C109.551 101.413 108.75 101.631 107.93 101.698C107.428 101.752 106.921 101.752 106.418 101.698C105.934 101.643 105.456 101.542 104.991 101.395C104.546 101.254 104.117 101.067 103.71 100.837C103.324 100.627 102.966 100.368 102.644 100.068L103.518 98.569C103.598 98.4574 103.696 98.3611 103.81 98.2845C103.923 98.2061 104.056 98.1596 104.193 98.15C104.408 98.142 104.619 98.2041 104.796 98.3268C105.011 98.4614 105.264 98.6075 105.563 98.7651C105.894 98.9387 106.242 99.0766 106.603 99.1764C107.068 99.2954 107.552 99.3266 108.03 99.2687C108.76 99.2364 109.457 98.9542 110.005 98.4691C110.241 98.2322 110.424 97.949 110.544 97.6373C110.665 97.3255 110.719 96.9922 110.704 96.6584C110.724 96.2973 110.61 95.9415 110.385 95.6589C110.156 95.4011 109.869 95.201 109.549 95.0745C109.167 94.9187 108.77 94.804 108.363 94.7324C107.918 94.6516 107.466 94.5555 107.009 94.4517C106.548 94.3456 106.094 94.2082 105.651 94.0404C105.217 93.8776 104.816 93.638 104.466 93.333C104.102 93.0071 103.815 92.6039 103.626 92.1528C103.188 91.0045 103.2 89.7326 103.66 88.593C103.898 88.0135 104.243 87.484 104.677 87.0322C105.148 86.5447 105.705 86.1473 106.319 85.8596C107.025 85.5254 107.785 85.321 108.563 85.2561C109.438 85.1596 110.324 85.2181 111.179 85.4291C111.924 85.614 112.62 85.9604 113.216 86.444C112.971 86.8861 112.725 87.382 112.476 87.8818Z" fill="white"/>
<path d="M120.727 90.6267L121.425 90.5267C121.668 90.4966 121.903 90.4224 122.119 90.3076C122.308 90.1979 122.469 90.0468 122.591 89.8655C124.06 87.7742 125.526 85.6713 126.988 83.557C127.138 83.3229 127.335 83.1226 127.567 82.9688C127.803 82.8299 128.063 82.7372 128.334 82.6958C129.186 82.5497 130.036 82.3985 130.885 82.2422C129.094 84.8051 127.303 87.3372 125.514 89.8386C125.253 90.2378 124.92 90.5846 124.532 90.8612C124.766 90.9081 124.988 90.998 125.188 91.1265C125.403 91.2733 125.591 91.4553 125.745 91.6647C127.586 93.8675 129.426 96.0523 131.265 98.2193C130.398 98.3807 129.53 98.5358 128.66 98.6844C128.403 98.7536 128.131 98.7536 127.874 98.6844C127.694 98.6031 127.543 98.4691 127.44 98.3C125.94 96.5777 124.438 94.8439 122.933 93.0986C122.813 92.9327 122.644 92.81 122.449 92.7488C122.187 92.695 121.917 92.695 121.655 92.7488L120.715 92.8833V99.9415C119.726 100.084 118.734 100.221 117.742 100.353V84.3143C118.736 84.1836 119.727 84.0465 120.715 83.9029L120.727 90.6267Z" fill="white"/>
<path d="M137.457 97.0043C136.471 97.2119 135.485 97.4118 134.499 97.604V81.5577C135.485 81.3617 136.471 81.1618 137.457 80.958V97.0043Z" fill="white"/>
<path d="M34.8677 98.7727V96.3085C32.7501 95.9432 30.635 95.5588 28.5225 95.1552V90.4458C29.7079 90.046 30.8933 89.6411 32.0787 89.231C32.1994 89.2093 32.3068 89.1414 32.3784 89.0416C32.45 88.9419 32.4801 88.8182 32.4623 88.6967V86.6861C31.1503 87.1218 29.8396 87.5459 28.5302 87.9586V81.5539C27.5481 81.3617 26.5673 81.163 25.5878 80.958V88.7274L23.9535 89.2579C23.8513 89.2816 23.7612 89.342 23.7004 89.4277C23.6396 89.5135 23.6123 89.6185 23.6236 89.7231V91.8029L25.5878 91.207V97.0197C28.6721 97.654 31.7654 98.2383 34.8677 98.7727Z" fill="white"/>
</g>
<defs>
<clipPath id="clip0_255_410">
<rect width="328" height="163" fill="white"/>
</clipPath>
</defs>
</svg>
